%TF.GenerationSoftware,KiCad,Pcbnew,(6.0.8)*%
%TF.CreationDate,2022-10-21T20:47:53+05:30*%
%TF.ProjectId,Dual Rail Supply For Breadboard,4475616c-2052-4616-996c-20537570706c,rev?*%
%TF.SameCoordinates,Original*%
%TF.FileFunction,Soldermask,Top*%
%TF.FilePolarity,Negative*%
%FSLAX46Y46*%
G04 Gerber Fmt 4.6, Leading zero omitted, Abs format (unit mm)*
G04 Created by KiCad (PCBNEW (6.0.8)) date 2022-10-21 20:47:53*
%MOMM*%
%LPD*%
G01*
G04 APERTURE LIST*
G04 Aperture macros list*
%AMRoundRect*
0 Rectangle with rounded corners*
0 $1 Rounding radius*
0 $2 $3 $4 $5 $6 $7 $8 $9 X,Y pos of 4 corners*
0 Add a 4 corners polygon primitive as box body*
4,1,4,$2,$3,$4,$5,$6,$7,$8,$9,$2,$3,0*
0 Add four circle primitives for the rounded corners*
1,1,$1+$1,$2,$3*
1,1,$1+$1,$4,$5*
1,1,$1+$1,$6,$7*
1,1,$1+$1,$8,$9*
0 Add four rect primitives between the rounded corners*
20,1,$1+$1,$2,$3,$4,$5,0*
20,1,$1+$1,$4,$5,$6,$7,0*
20,1,$1+$1,$6,$7,$8,$9,0*
20,1,$1+$1,$8,$9,$2,$3,0*%
G04 Aperture macros list end*
%ADD10R,1.700000X1.700000*%
%ADD11R,0.400000X1.400000*%
%ADD12R,1.750000X1.900000*%
%ADD13O,1.050000X1.900000*%
%ADD14R,1.150000X1.450000*%
%ADD15RoundRect,0.381000X-0.762000X-0.381000X0.762000X-0.381000X0.762000X0.381000X-0.762000X0.381000X0*%
%ADD16RoundRect,0.750000X-1.750000X0.750000X-1.750000X-0.750000X1.750000X-0.750000X1.750000X0.750000X0*%
%ADD17C,1.600000*%
%ADD18R,2.000000X2.000000*%
%ADD19C,2.000000*%
%ADD20R,3.200000X3.200000*%
%ADD21O,3.200000X3.200000*%
%ADD22R,2.000000X1.905000*%
%ADD23O,2.000000X1.905000*%
%ADD24R,2.400000X2.400000*%
%ADD25C,2.400000*%
%ADD26R,2.400000X1.600000*%
%ADD27O,2.400000X1.600000*%
%ADD28O,1.600000X1.600000*%
%ADD29R,3.500000X3.500000*%
%ADD30RoundRect,0.750000X-0.750000X-1.000000X0.750000X-1.000000X0.750000X1.000000X-0.750000X1.000000X0*%
%ADD31RoundRect,0.875000X-0.875000X-0.875000X0.875000X-0.875000X0.875000X0.875000X-0.875000X0.875000X0*%
G04 APERTURE END LIST*
D10*
%TO.C,J5*%
X139458000Y-123291600D03*
X141998000Y-123291600D03*
%TD*%
D11*
%TO.C,J10*%
X146200000Y-49850000D03*
X145550000Y-49850000D03*
X144900000Y-49850000D03*
X144250000Y-49850000D03*
X143600000Y-49850000D03*
D12*
X146025000Y-47200000D03*
D13*
X141325000Y-47200000D03*
X148475000Y-47200000D03*
D14*
X142580000Y-49430000D03*
D12*
X143775000Y-47200000D03*
D14*
X147220000Y-49430000D03*
%TD*%
D10*
%TO.C,J8*%
X189738000Y-128371600D03*
X192278000Y-128371600D03*
%TD*%
%TO.C,J6*%
X189738000Y-125831600D03*
X192278000Y-125831600D03*
%TD*%
D15*
%TO.C,U2*%
X166700200Y-80441800D03*
X171704000Y-80441800D03*
%TD*%
D16*
%TO.C,U1*%
X160232900Y-50912800D03*
X160232900Y-58786800D03*
X192443900Y-50912800D03*
X192443900Y-58786800D03*
%TD*%
D17*
%TO.C,C1*%
X140250000Y-72500000D03*
X142750000Y-72500000D03*
%TD*%
D18*
%TO.C,C3*%
X175367677Y-120500000D03*
D19*
X170367677Y-120500000D03*
%TD*%
D20*
%TO.C,D1*%
X154000000Y-65150000D03*
D21*
X154000000Y-52450000D03*
%TD*%
D22*
%TO.C,Q2*%
X188055000Y-96960000D03*
D23*
X188055000Y-99500000D03*
X188055000Y-102040000D03*
%TD*%
D24*
%TO.C,C2*%
X146000000Y-104000000D03*
D25*
X141000000Y-104000000D03*
%TD*%
D10*
%TO.C,J2*%
X189738000Y-120751600D03*
X192278000Y-120751600D03*
%TD*%
%TO.C,J9*%
X139458000Y-128371600D03*
X141998000Y-128371600D03*
%TD*%
D26*
%TO.C,U3*%
X161966600Y-99416000D03*
D27*
X161966600Y-101956000D03*
X161966600Y-104496000D03*
X161966600Y-107036000D03*
X169586600Y-107036000D03*
X169586600Y-104496000D03*
X169586600Y-101956000D03*
X169586600Y-99416000D03*
%TD*%
D10*
%TO.C,J4*%
X189738000Y-123291600D03*
X192278000Y-123291600D03*
%TD*%
%TO.C,J3*%
X139458000Y-120751600D03*
X141998000Y-120751600D03*
%TD*%
D22*
%TO.C,Q3*%
X188000000Y-110000000D03*
D23*
X188000000Y-112540000D03*
X188000000Y-115080000D03*
%TD*%
D18*
%TO.C,C4*%
X159767677Y-120600000D03*
D19*
X154767677Y-120600000D03*
%TD*%
D17*
%TO.C,R2*%
X156262800Y-97056400D03*
D28*
X156262800Y-109756400D03*
%TD*%
D22*
%TO.C,Q1*%
X142646400Y-85598000D03*
D23*
X142646400Y-83058000D03*
X142646400Y-80518000D03*
%TD*%
D17*
%TO.C,R1*%
X174500000Y-96650000D03*
D28*
X174500000Y-109350000D03*
%TD*%
D10*
%TO.C,J7*%
X139458000Y-125831600D03*
X141998000Y-125831600D03*
%TD*%
D29*
%TO.C,J1*%
X148400000Y-58842500D03*
D30*
X142400000Y-58842500D03*
D31*
X145400000Y-63542500D03*
%TD*%
M02*
