%TF.GenerationSoftware,KiCad,Pcbnew,(6.0.8)*%
%TF.CreationDate,2022-10-21T20:47:53+05:30*%
%TF.ProjectId,Dual Rail Supply For Breadboard,4475616c-2052-4616-996c-20537570706c,rev?*%
%TF.SameCoordinates,Original*%
%TF.FileFunction,Copper,L1,Top*%
%TF.FilePolarity,Positive*%
%FSLAX46Y46*%
G04 Gerber Fmt 4.6, Leading zero omitted, Abs format (unit mm)*
G04 Created by KiCad (PCBNEW (6.0.8)) date 2022-10-21 20:47:53*
%MOMM*%
%LPD*%
G01*
G04 APERTURE LIST*
G04 Aperture macros list*
%AMRoundRect*
0 Rectangle with rounded corners*
0 $1 Rounding radius*
0 $2 $3 $4 $5 $6 $7 $8 $9 X,Y pos of 4 corners*
0 Add a 4 corners polygon primitive as box body*
4,1,4,$2,$3,$4,$5,$6,$7,$8,$9,$2,$3,0*
0 Add four circle primitives for the rounded corners*
1,1,$1+$1,$2,$3*
1,1,$1+$1,$4,$5*
1,1,$1+$1,$6,$7*
1,1,$1+$1,$8,$9*
0 Add four rect primitives between the rounded corners*
20,1,$1+$1,$2,$3,$4,$5,0*
20,1,$1+$1,$4,$5,$6,$7,0*
20,1,$1+$1,$6,$7,$8,$9,0*
20,1,$1+$1,$8,$9,$2,$3,0*%
G04 Aperture macros list end*
%TA.AperFunction,ComponentPad*%
%ADD10R,1.700000X1.700000*%
%TD*%
%TA.AperFunction,SMDPad,CuDef*%
%ADD11R,0.400000X1.400000*%
%TD*%
%TA.AperFunction,SMDPad,CuDef*%
%ADD12R,1.750000X1.900000*%
%TD*%
%TA.AperFunction,ComponentPad*%
%ADD13O,1.050000X1.900000*%
%TD*%
%TA.AperFunction,SMDPad,CuDef*%
%ADD14R,1.150000X1.450000*%
%TD*%
%TA.AperFunction,SMDPad,CuDef*%
%ADD15RoundRect,0.381000X-0.762000X-0.381000X0.762000X-0.381000X0.762000X0.381000X-0.762000X0.381000X0*%
%TD*%
%TA.AperFunction,SMDPad,CuDef*%
%ADD16RoundRect,0.750000X-1.750000X0.750000X-1.750000X-0.750000X1.750000X-0.750000X1.750000X0.750000X0*%
%TD*%
%TA.AperFunction,ComponentPad*%
%ADD17C,1.600000*%
%TD*%
%TA.AperFunction,ComponentPad*%
%ADD18R,2.000000X2.000000*%
%TD*%
%TA.AperFunction,ComponentPad*%
%ADD19C,2.000000*%
%TD*%
%TA.AperFunction,ComponentPad*%
%ADD20R,3.200000X3.200000*%
%TD*%
%TA.AperFunction,ComponentPad*%
%ADD21O,3.200000X3.200000*%
%TD*%
%TA.AperFunction,ComponentPad*%
%ADD22R,2.000000X1.905000*%
%TD*%
%TA.AperFunction,ComponentPad*%
%ADD23O,2.000000X1.905000*%
%TD*%
%TA.AperFunction,ComponentPad*%
%ADD24R,2.400000X2.400000*%
%TD*%
%TA.AperFunction,ComponentPad*%
%ADD25C,2.400000*%
%TD*%
%TA.AperFunction,ComponentPad*%
%ADD26R,2.400000X1.600000*%
%TD*%
%TA.AperFunction,ComponentPad*%
%ADD27O,2.400000X1.600000*%
%TD*%
%TA.AperFunction,ComponentPad*%
%ADD28O,1.600000X1.600000*%
%TD*%
%TA.AperFunction,ComponentPad*%
%ADD29R,3.500000X3.500000*%
%TD*%
%TA.AperFunction,ComponentPad*%
%ADD30RoundRect,0.750000X-0.750000X-1.000000X0.750000X-1.000000X0.750000X1.000000X-0.750000X1.000000X0*%
%TD*%
%TA.AperFunction,ComponentPad*%
%ADD31RoundRect,0.875000X-0.875000X-0.875000X0.875000X-0.875000X0.875000X0.875000X-0.875000X0.875000X0*%
%TD*%
%TA.AperFunction,ViaPad*%
%ADD32C,0.800000*%
%TD*%
%TA.AperFunction,Conductor*%
%ADD33C,1.500000*%
%TD*%
%TA.AperFunction,Conductor*%
%ADD34C,2.000000*%
%TD*%
%TA.AperFunction,Conductor*%
%ADD35C,0.300000*%
%TD*%
%TA.AperFunction,Conductor*%
%ADD36C,0.750000*%
%TD*%
%TA.AperFunction,Conductor*%
%ADD37C,1.000000*%
%TD*%
G04 APERTURE END LIST*
D10*
%TO.P,J5,1,Pin_1*%
%TO.N,OUT-*%
X139458000Y-123291600D03*
%TO.P,J5,2,Pin_2*%
%TO.N,MID_GND*%
X141998000Y-123291600D03*
%TD*%
D11*
%TO.P,J10,1,VBUS*%
%TO.N,5V*%
X146200000Y-49850000D03*
%TO.P,J10,2,D-*%
%TO.N,unconnected-(J10-Pad2)*%
X145550000Y-49850000D03*
%TO.P,J10,3,D+*%
%TO.N,unconnected-(J10-Pad3)*%
X144900000Y-49850000D03*
%TO.P,J10,4,ID*%
%TO.N,unconnected-(J10-Pad4)*%
X144250000Y-49850000D03*
%TO.P,J10,5,GND*%
%TO.N,OUT-*%
X143600000Y-49850000D03*
D12*
%TO.P,J10,6,Shield*%
%TO.N,unconnected-(J10-Pad6)*%
X146025000Y-47200000D03*
D13*
X141325000Y-47200000D03*
X148475000Y-47200000D03*
D14*
X142580000Y-49430000D03*
D12*
X143775000Y-47200000D03*
D14*
X147220000Y-49430000D03*
%TD*%
D10*
%TO.P,J8,1,Pin_1*%
%TO.N,MID_GND*%
X189738000Y-128371600D03*
%TO.P,J8,2,Pin_2*%
%TO.N,Input*%
X192278000Y-128371600D03*
%TD*%
%TO.P,J6,1,Pin_1*%
%TO.N,MID_GND*%
X189738000Y-125831600D03*
%TO.P,J6,2,Pin_2*%
%TO.N,Input*%
X192278000Y-125831600D03*
%TD*%
D15*
%TO.P,U2,1,Vin*%
%TO.N,Input*%
X166700200Y-80441800D03*
%TO.P,U2,2,GND*%
%TO.N,OUT-*%
X171704000Y-80441800D03*
%TD*%
D16*
%TO.P,U1,1,GND*%
%TO.N,OUT-*%
X160232900Y-50912800D03*
%TO.P,U1,2,Vin*%
%TO.N,Net-(C2-Pad1)*%
X160232900Y-58786800D03*
%TO.P,U1,3,GND*%
%TO.N,OUT-*%
X192443900Y-50912800D03*
%TO.P,U1,4,Vout*%
%TO.N,Input*%
X192443900Y-58786800D03*
%TD*%
D17*
%TO.P,C1,1*%
%TO.N,Net-(C1-Pad1)*%
X140250000Y-72500000D03*
%TO.P,C1,2*%
%TO.N,OUT-*%
X142750000Y-72500000D03*
%TD*%
D18*
%TO.P,C3,1*%
%TO.N,Input*%
X175367677Y-120500000D03*
D19*
%TO.P,C3,2*%
%TO.N,MID_GND*%
X170367677Y-120500000D03*
%TD*%
D20*
%TO.P,D1,1,K*%
%TO.N,Net-(C2-Pad1)*%
X154000000Y-65150000D03*
D21*
%TO.P,D1,2,A*%
%TO.N,5V*%
X154000000Y-52450000D03*
%TD*%
D22*
%TO.P,Q2,1,B*%
%TO.N,Net-(Q2-Pad1)*%
X188055000Y-96960000D03*
D23*
%TO.P,Q2,2,C*%
%TO.N,Input*%
X188055000Y-99500000D03*
%TO.P,Q2,3,E*%
%TO.N,MID_GND*%
X188055000Y-102040000D03*
%TD*%
D24*
%TO.P,C2,1*%
%TO.N,Net-(C2-Pad1)*%
X146000000Y-104000000D03*
D25*
%TO.P,C2,2*%
%TO.N,OUT-*%
X141000000Y-104000000D03*
%TD*%
D10*
%TO.P,J2,1,Pin_1*%
%TO.N,MID_GND*%
X189738000Y-120751600D03*
%TO.P,J2,2,Pin_2*%
%TO.N,Input*%
X192278000Y-120751600D03*
%TD*%
%TO.P,J9,1,Pin_1*%
%TO.N,OUT-*%
X139458000Y-128371600D03*
%TO.P,J9,2,Pin_2*%
%TO.N,MID_GND*%
X141998000Y-128371600D03*
%TD*%
D26*
%TO.P,U3,1,NULL*%
%TO.N,unconnected-(U3-Pad1)*%
X161966600Y-99416000D03*
D27*
%TO.P,U3,2,-*%
%TO.N,MID_GND*%
X161966600Y-101956000D03*
%TO.P,U3,3,+*%
%TO.N,Net-(R1-Pad2)*%
X161966600Y-104496000D03*
%TO.P,U3,4,V-*%
%TO.N,OUT-*%
X161966600Y-107036000D03*
%TO.P,U3,5,NULL*%
%TO.N,unconnected-(U3-Pad5)*%
X169586600Y-107036000D03*
%TO.P,U3,6*%
%TO.N,Net-(Q2-Pad1)*%
X169586600Y-104496000D03*
%TO.P,U3,7,V+*%
%TO.N,Input*%
X169586600Y-101956000D03*
%TO.P,U3,8,NC*%
%TO.N,unconnected-(U3-Pad8)*%
X169586600Y-99416000D03*
%TD*%
D10*
%TO.P,J4,1,Pin_1*%
%TO.N,MID_GND*%
X189738000Y-123291600D03*
%TO.P,J4,2,Pin_2*%
%TO.N,Input*%
X192278000Y-123291600D03*
%TD*%
%TO.P,J3,1,Pin_1*%
%TO.N,OUT-*%
X139458000Y-120751600D03*
%TO.P,J3,2,Pin_2*%
%TO.N,MID_GND*%
X141998000Y-120751600D03*
%TD*%
D22*
%TO.P,Q3,1,B*%
%TO.N,Net-(Q2-Pad1)*%
X188000000Y-110000000D03*
D23*
%TO.P,Q3,2,C*%
%TO.N,OUT-*%
X188000000Y-112540000D03*
%TO.P,Q3,3,E*%
%TO.N,MID_GND*%
X188000000Y-115080000D03*
%TD*%
D18*
%TO.P,C4,1*%
%TO.N,MID_GND*%
X159767677Y-120600000D03*
D19*
%TO.P,C4,2*%
%TO.N,OUT-*%
X154767677Y-120600000D03*
%TD*%
D17*
%TO.P,R2,1*%
%TO.N,Net-(R1-Pad2)*%
X156262800Y-97056400D03*
D28*
%TO.P,R2,2*%
%TO.N,OUT-*%
X156262800Y-109756400D03*
%TD*%
D22*
%TO.P,Q1,1,G*%
%TO.N,OUT-*%
X142646400Y-85598000D03*
D23*
%TO.P,Q1,2,D*%
%TO.N,Net-(C1-Pad1)*%
X142646400Y-83058000D03*
%TO.P,Q1,3,S*%
%TO.N,Net-(C2-Pad1)*%
X142646400Y-80518000D03*
%TD*%
D17*
%TO.P,R1,1*%
%TO.N,Input*%
X174500000Y-96650000D03*
D28*
%TO.P,R1,2*%
%TO.N,Net-(R1-Pad2)*%
X174500000Y-109350000D03*
%TD*%
D10*
%TO.P,J7,1,Pin_1*%
%TO.N,OUT-*%
X139458000Y-125831600D03*
%TO.P,J7,2,Pin_2*%
%TO.N,MID_GND*%
X141998000Y-125831600D03*
%TD*%
D29*
%TO.P,J1,1*%
%TO.N,Net-(C1-Pad1)*%
X148400000Y-58842500D03*
D30*
%TO.P,J1,2*%
%TO.N,OUT-*%
X142400000Y-58842500D03*
D31*
%TO.P,J1,3*%
%TO.N,N/C*%
X145400000Y-63542500D03*
%TD*%
D32*
%TO.N,OUT-*%
X137600000Y-120800000D03*
X141000000Y-106000000D03*
X139200000Y-130600000D03*
X139000000Y-104000000D03*
X137600000Y-128400000D03*
X140600000Y-85800000D03*
X171600000Y-78800000D03*
X190600000Y-53400000D03*
X194000000Y-48400000D03*
X194200000Y-53400000D03*
X143600000Y-51500000D03*
X137600000Y-123400000D03*
X144400000Y-72600000D03*
X192400000Y-53400000D03*
X161200000Y-53200000D03*
X160000000Y-53200000D03*
X192200000Y-48400000D03*
X190600000Y-48400000D03*
X188800000Y-50000000D03*
X169800000Y-80400000D03*
X143000000Y-70400000D03*
X158600000Y-48600000D03*
X139400000Y-118800000D03*
X161600000Y-48600000D03*
X163800000Y-51800000D03*
X142800000Y-74400000D03*
X171800000Y-82000000D03*
X160000000Y-48600000D03*
X173600000Y-80200000D03*
X142600000Y-87800000D03*
X137400000Y-125800000D03*
X141000000Y-102000000D03*
X163800000Y-49800000D03*
X188800000Y-51400000D03*
X158600000Y-53200000D03*
%TO.N,MID_GND*%
X164200000Y-117200000D03*
X172400000Y-128000000D03*
X163600000Y-111000000D03*
X172600000Y-129600000D03*
X165800000Y-111000000D03*
X170600000Y-128000000D03*
X170600000Y-129600000D03*
X178400000Y-129200000D03*
X166200000Y-117200000D03*
X178200000Y-127800000D03*
X180200000Y-129200000D03*
X161600000Y-111000000D03*
X162400000Y-117200000D03*
X180000000Y-127800000D03*
%TD*%
D33*
%TO.N,Net-(C1-Pad1)*%
X137400000Y-81800000D02*
X137400000Y-73800000D01*
D34*
X143600000Y-54200000D02*
X139800000Y-54200000D01*
X139800000Y-54200000D02*
X137800000Y-56200000D01*
X137800000Y-56200000D02*
X137800000Y-71600000D01*
D33*
X138658000Y-83058000D02*
X137400000Y-81800000D01*
X140250000Y-72500000D02*
X138700000Y-72500000D01*
D34*
X148242500Y-58842500D02*
X143600000Y-54200000D01*
X137800000Y-71600000D02*
X138700000Y-72500000D01*
D33*
X137400000Y-73800000D02*
X138700000Y-72500000D01*
D34*
X148400000Y-58842500D02*
X148242500Y-58842500D01*
D33*
X142646400Y-83058000D02*
X138658000Y-83058000D01*
D34*
%TO.N,OUT-*%
X192200000Y-50668900D02*
X192443900Y-50912800D01*
D33*
X139458000Y-118858000D02*
X139400000Y-118800000D01*
D34*
X161345700Y-49800000D02*
X160232900Y-50912800D01*
X191956700Y-51400000D02*
X192443900Y-50912800D01*
X160000000Y-48600000D02*
X160000000Y-50679900D01*
D33*
X137600000Y-127600000D02*
X137600000Y-129000000D01*
X139026400Y-125400000D02*
X139458000Y-125831600D01*
D34*
X161600000Y-49545700D02*
X160232900Y-50912800D01*
D33*
X139458000Y-120751600D02*
X139458000Y-128371600D01*
D34*
X194000000Y-48400000D02*
X194000000Y-49356700D01*
X142646400Y-85598000D02*
X140802000Y-85598000D01*
X171662200Y-80400000D02*
X171704000Y-80441800D01*
X142800000Y-74400000D02*
X142800000Y-74200000D01*
X141000000Y-102000000D02*
X141000000Y-104000000D01*
X194000000Y-49356700D02*
X192443900Y-50912800D01*
X192400000Y-50956700D02*
X192443900Y-50912800D01*
X190600000Y-53400000D02*
X190600000Y-52756700D01*
X171945800Y-80200000D02*
X171704000Y-80441800D01*
X158600000Y-53200000D02*
X158600000Y-52545700D01*
X161200000Y-51879900D02*
X160232900Y-50912800D01*
X144300000Y-72500000D02*
X144400000Y-72600000D01*
X142646400Y-85598000D02*
X142646400Y-87753600D01*
X173600000Y-80200000D02*
X171945800Y-80200000D01*
D33*
X137600000Y-125400000D02*
X137600000Y-127600000D01*
D34*
X171800000Y-80537800D02*
X171704000Y-80441800D01*
X142800000Y-74200000D02*
X144400000Y-72600000D01*
X158600000Y-52545700D02*
X160232900Y-50912800D01*
D33*
X137600000Y-120800000D02*
X139458000Y-118942000D01*
D34*
X163800000Y-51800000D02*
X161120100Y-51800000D01*
X163800000Y-49800000D02*
X161345700Y-49800000D01*
D33*
X137600000Y-124000000D02*
X137600000Y-125400000D01*
X137600000Y-129000000D02*
X139200000Y-130600000D01*
D34*
X141000000Y-106000000D02*
X141000000Y-104000000D01*
X194200000Y-52668900D02*
X192443900Y-50912800D01*
X190600000Y-49068900D02*
X192443900Y-50912800D01*
X169800000Y-80400000D02*
X171662200Y-80400000D01*
X143000000Y-71200000D02*
X144400000Y-72600000D01*
D33*
X139458000Y-120751600D02*
X139458000Y-118858000D01*
D34*
X160000000Y-53200000D02*
X160000000Y-51145700D01*
X171600000Y-78800000D02*
X171600000Y-80337800D01*
X160000000Y-51145700D02*
X160232900Y-50912800D01*
D33*
X137648400Y-120751600D02*
X137600000Y-120800000D01*
D34*
X190600000Y-48400000D02*
X190600000Y-49068900D01*
X192400000Y-53400000D02*
X192400000Y-50956700D01*
D33*
X137600000Y-120800000D02*
X137600000Y-124000000D01*
D34*
X192200000Y-48400000D02*
X192200000Y-50668900D01*
X142750000Y-72500000D02*
X144300000Y-72500000D01*
X142646400Y-87753600D02*
X142600000Y-87800000D01*
X190600000Y-52756700D02*
X192443900Y-50912800D01*
D33*
X137600000Y-124000000D02*
X138749600Y-124000000D01*
X137600000Y-125400000D02*
X139026400Y-125400000D01*
D34*
X139000000Y-104000000D02*
X141000000Y-104000000D01*
X143000000Y-70400000D02*
X143000000Y-71200000D01*
D33*
X138749600Y-124000000D02*
X139458000Y-123291600D01*
X139458000Y-118942000D02*
X139458000Y-118858000D01*
D34*
X160000000Y-50679900D02*
X160232900Y-50912800D01*
X158600000Y-49279900D02*
X160232900Y-50912800D01*
X140802000Y-85598000D02*
X140600000Y-85800000D01*
X191531100Y-50000000D02*
X192443900Y-50912800D01*
X188800000Y-51400000D02*
X191956700Y-51400000D01*
X161200000Y-53200000D02*
X161200000Y-51879900D01*
D33*
X138686400Y-127600000D02*
X139458000Y-128371600D01*
D34*
X188800000Y-50000000D02*
X191531100Y-50000000D01*
X171600000Y-80337800D02*
X171704000Y-80441800D01*
X161120100Y-51800000D02*
X160232900Y-50912800D01*
X161600000Y-48600000D02*
X161600000Y-49545700D01*
D33*
X137600000Y-127600000D02*
X138686400Y-127600000D01*
D35*
X143600000Y-49850000D02*
X143600000Y-51500000D01*
D33*
X139458000Y-120751600D02*
X137648400Y-120751600D01*
D34*
X194200000Y-53400000D02*
X194200000Y-52668900D01*
X171800000Y-82000000D02*
X171800000Y-80537800D01*
X158600000Y-48600000D02*
X158600000Y-49279900D01*
D33*
%TO.N,Net-(C2-Pad1)*%
X154000000Y-65150000D02*
X156650000Y-65150000D01*
X154000000Y-77800000D02*
X154000000Y-65150000D01*
X146000000Y-83060660D02*
X146000000Y-104000000D01*
X148542660Y-80518000D02*
X146000000Y-83060660D01*
X148542660Y-80518000D02*
X142646400Y-80518000D01*
X148542660Y-80518000D02*
X151282000Y-80518000D01*
X160232900Y-61567100D02*
X160232900Y-58786800D01*
X151282000Y-80518000D02*
X154000000Y-77800000D01*
X156650000Y-65150000D02*
X160232900Y-61567100D01*
%TO.N,Input*%
X191600000Y-131800000D02*
X192600000Y-130800000D01*
X176413200Y-58786800D02*
X192443900Y-58786800D01*
X192278000Y-120751600D02*
X192278000Y-128371600D01*
X160200000Y-88200000D02*
X167200000Y-88200000D01*
X154200000Y-113200000D02*
X154200000Y-94200000D01*
X192600000Y-128693600D02*
X192278000Y-128371600D01*
X175367677Y-130367677D02*
X176800000Y-131800000D01*
X191450000Y-93250000D02*
X172250000Y-93250000D01*
D36*
X171844000Y-101956000D02*
X174500000Y-99300000D01*
D33*
X154200000Y-94200000D02*
X160200000Y-88200000D01*
X189700000Y-99500000D02*
X191600000Y-97600000D01*
D36*
X169586600Y-101956000D02*
X171844000Y-101956000D01*
D33*
X174500000Y-95500000D02*
X174500000Y-96650000D01*
X192600000Y-130800000D02*
X192600000Y-128693600D01*
X166700200Y-80441800D02*
X166700200Y-87700200D01*
X170200000Y-91200000D02*
X174500000Y-95500000D01*
X191600000Y-97600000D02*
X191600000Y-93400000D01*
X175367677Y-120500000D02*
X175367677Y-130367677D01*
X175367677Y-119767677D02*
X169200000Y-113600000D01*
X166200000Y-79941600D02*
X166700200Y-80441800D01*
X166700200Y-87700200D02*
X167200000Y-88200000D01*
X188055000Y-99500000D02*
X189700000Y-99500000D01*
X176800000Y-131800000D02*
X191600000Y-131800000D01*
X175367677Y-120500000D02*
X175367677Y-119767677D01*
D36*
X174500000Y-99300000D02*
X174500000Y-96650000D01*
D33*
X167200000Y-88200000D02*
X170200000Y-91200000D01*
X169200000Y-113600000D02*
X154600000Y-113600000D01*
X191600000Y-93400000D02*
X191450000Y-93250000D01*
X166200000Y-69000000D02*
X166200000Y-79941600D01*
X166200000Y-69000000D02*
X176413200Y-58786800D01*
X172250000Y-93250000D02*
X170200000Y-91200000D01*
X154600000Y-113600000D02*
X154200000Y-113200000D01*
%TO.N,MID_GND*%
X170267677Y-120600000D02*
X170367677Y-120500000D01*
X189738000Y-120751600D02*
X189738000Y-128371600D01*
X141998000Y-120751600D02*
X141998000Y-128371600D01*
D36*
%TO.N,Net-(Q2-Pad1)*%
X183440000Y-96960000D02*
X179696000Y-100704000D01*
X185200000Y-110000000D02*
X179696000Y-104496000D01*
X188000000Y-110000000D02*
X185200000Y-110000000D01*
X179696000Y-103304000D02*
X178504000Y-104496000D01*
X179696000Y-100704000D02*
X179696000Y-103304000D01*
X178504000Y-104496000D02*
X169586600Y-104496000D01*
X188055000Y-96960000D02*
X183440000Y-96960000D01*
X179696000Y-103304000D02*
X179696000Y-104496000D01*
%TO.N,Net-(R1-Pad2)*%
X168150000Y-109350000D02*
X174500000Y-109350000D01*
X156262800Y-95937200D02*
X156800000Y-95400000D01*
X165800000Y-103000000D02*
X164304000Y-104496000D01*
X162600000Y-95400000D02*
X165800000Y-98600000D01*
X156262800Y-97056400D02*
X156262800Y-95937200D01*
X156800000Y-95400000D02*
X162600000Y-95400000D01*
X165800000Y-98600000D02*
X165800000Y-103000000D01*
X161966600Y-104496000D02*
X163296000Y-104496000D01*
X163296000Y-104496000D02*
X168150000Y-109350000D01*
X164304000Y-104496000D02*
X161966600Y-104496000D01*
D35*
%TO.N,5V*%
X146200000Y-51600000D02*
X147050000Y-52450000D01*
X146200000Y-49850000D02*
X146200000Y-51600000D01*
X154000000Y-52450000D02*
X153050000Y-53400000D01*
X147050000Y-52450000D02*
X154000000Y-52450000D01*
D37*
%TO.N,unconnected-(J10-Pad6)*%
X142580000Y-49430000D02*
X142580000Y-47320000D01*
X142580000Y-47320000D02*
X142700000Y-47200000D01*
X147100000Y-47200000D02*
X148475000Y-47200000D01*
X147220000Y-47320000D02*
X147100000Y-47200000D01*
X147220000Y-49430000D02*
X147220000Y-47320000D01*
X143775000Y-47200000D02*
X146025000Y-47200000D01*
X146025000Y-47200000D02*
X147100000Y-47200000D01*
X141325000Y-47200000D02*
X142700000Y-47200000D01*
X142700000Y-47200000D02*
X143775000Y-47200000D01*
%TD*%
%TA.AperFunction,Conductor*%
%TO.N,MID_GND*%
G36*
X160254270Y-101018910D02*
G01*
X160355310Y-101073590D01*
X160433121Y-101158115D01*
X160479271Y-101263326D01*
X160488758Y-101377820D01*
X160465104Y-101478325D01*
X160426479Y-101575138D01*
X160421299Y-101598946D01*
X160441721Y-101602000D01*
X161971600Y-101602000D01*
X162084920Y-101620910D01*
X162185960Y-101675590D01*
X162263771Y-101760115D01*
X162309921Y-101865326D01*
X162320600Y-101951000D01*
X162320600Y-101961000D01*
X162301690Y-102074320D01*
X162247010Y-102175360D01*
X162162485Y-102253171D01*
X162057274Y-102299321D01*
X161971600Y-102310000D01*
X160446969Y-102310000D01*
X160422487Y-102314085D01*
X160422416Y-102314944D01*
X160426240Y-102332200D01*
X160473317Y-102459811D01*
X160487040Y-102488583D01*
X160584236Y-102651954D01*
X160625924Y-102759010D01*
X160630593Y-102873802D01*
X160597736Y-102983890D01*
X160530913Y-103077345D01*
X160437367Y-103144039D01*
X160413923Y-103154431D01*
X159800000Y-103400000D01*
X159800000Y-109200000D01*
X160400000Y-110600000D01*
X172103333Y-110600000D01*
X172216653Y-110618910D01*
X172282891Y-110649734D01*
X173030561Y-111098336D01*
X173118001Y-111172853D01*
X173176510Y-111271725D01*
X173199744Y-111384238D01*
X173200000Y-111397600D01*
X173200000Y-113000000D01*
X170368474Y-113000000D01*
X170158821Y-112790347D01*
X170144316Y-112773807D01*
X170144194Y-112773919D01*
X170133669Y-112762473D01*
X170124210Y-112750146D01*
X170068232Y-112699210D01*
X170056333Y-112687859D01*
X170044194Y-112675720D01*
X170027885Y-112662083D01*
X170016884Y-112652487D01*
X169970601Y-112610373D01*
X169959107Y-112599914D01*
X169945942Y-112591656D01*
X169937339Y-112585125D01*
X169928483Y-112578970D01*
X169916562Y-112569003D01*
X169848707Y-112530299D01*
X169836165Y-112522792D01*
X169783176Y-112489552D01*
X169770010Y-112481293D01*
X169755594Y-112475498D01*
X169746007Y-112470613D01*
X169736168Y-112466108D01*
X169722663Y-112458405D01*
X169708010Y-112453216D01*
X169708001Y-112453212D01*
X169649041Y-112432333D01*
X169635371Y-112427168D01*
X169577313Y-112403829D01*
X169577304Y-112403826D01*
X169562895Y-112398034D01*
X169547685Y-112394884D01*
X169537371Y-112391770D01*
X169526898Y-112389081D01*
X169512244Y-112383892D01*
X169435166Y-112371270D01*
X169420793Y-112368606D01*
X169399947Y-112364289D01*
X169344310Y-112352767D01*
X169328407Y-112351850D01*
X169322811Y-112351234D01*
X169322794Y-112351468D01*
X169307292Y-112350330D01*
X169291954Y-112347818D01*
X169276414Y-112348062D01*
X169276413Y-112348062D01*
X169187613Y-112349457D01*
X169182132Y-112349500D01*
X158749000Y-112349500D01*
X158635680Y-112330590D01*
X158534640Y-112275910D01*
X158456829Y-112191385D01*
X158410679Y-112086174D01*
X158400000Y-112000500D01*
X158400000Y-101967738D01*
X158418910Y-101854418D01*
X158473590Y-101753378D01*
X158530982Y-101695215D01*
X159304405Y-101076477D01*
X159404706Y-101020452D01*
X159522423Y-101000000D01*
X160140950Y-101000000D01*
X160254270Y-101018910D01*
G37*
%TD.AperFunction*%
%TD*%
%TA.AperFunction,Conductor*%
%TO.N,MID_GND*%
G36*
X196141282Y-101185578D02*
G01*
X196187946Y-101239085D01*
X196199500Y-101291793D01*
X196199500Y-136473500D01*
X196179498Y-136541621D01*
X196125842Y-136588114D01*
X196073500Y-136599500D01*
X141028856Y-136599500D01*
X140960735Y-136579498D01*
X140914242Y-136525842D01*
X140902857Y-136474056D01*
X140873619Y-129842830D01*
X140893321Y-129774621D01*
X140946771Y-129727892D01*
X141017000Y-129717479D01*
X141028763Y-129719691D01*
X141045646Y-129723705D01*
X141096514Y-129729231D01*
X141103328Y-129729600D01*
X141579885Y-129729600D01*
X141595124Y-129725125D01*
X141596329Y-129723735D01*
X141598000Y-129716052D01*
X141598000Y-129711484D01*
X142398000Y-129711484D01*
X142402475Y-129726723D01*
X142403865Y-129727928D01*
X142411548Y-129729599D01*
X142892669Y-129729599D01*
X142899490Y-129729229D01*
X142950352Y-129723705D01*
X142965604Y-129720079D01*
X143086054Y-129674924D01*
X143101649Y-129666386D01*
X143203724Y-129589885D01*
X143216285Y-129577324D01*
X143292786Y-129475249D01*
X143301324Y-129459654D01*
X143346478Y-129339206D01*
X143350105Y-129323951D01*
X143355631Y-129273086D01*
X143356000Y-129266272D01*
X143356000Y-128789715D01*
X143351525Y-128774476D01*
X143350135Y-128773271D01*
X143342452Y-128771600D01*
X142416115Y-128771600D01*
X142400876Y-128776075D01*
X142399671Y-128777465D01*
X142398000Y-128785148D01*
X142398000Y-129711484D01*
X141598000Y-129711484D01*
X141598000Y-127953485D01*
X142398000Y-127953485D01*
X142402475Y-127968724D01*
X142403865Y-127969929D01*
X142411548Y-127971600D01*
X143337884Y-127971600D01*
X143353123Y-127967125D01*
X143354328Y-127965735D01*
X143355999Y-127958052D01*
X143355999Y-127476931D01*
X143355629Y-127470110D01*
X143350105Y-127419248D01*
X143346479Y-127403996D01*
X143301324Y-127283546D01*
X143292789Y-127267956D01*
X143224745Y-127177165D01*
X143199898Y-127110658D01*
X143214951Y-127041276D01*
X143224745Y-127026035D01*
X143292789Y-126935244D01*
X143301324Y-126919654D01*
X143346478Y-126799206D01*
X143350105Y-126783951D01*
X143355631Y-126733086D01*
X143356000Y-126726272D01*
X143356000Y-126249715D01*
X143351525Y-126234476D01*
X143350135Y-126233271D01*
X143342452Y-126231600D01*
X142416115Y-126231600D01*
X142400876Y-126236075D01*
X142399671Y-126237465D01*
X142398000Y-126245148D01*
X142398000Y-127953485D01*
X141598000Y-127953485D01*
X141598000Y-125413485D01*
X142398000Y-125413485D01*
X142402475Y-125428724D01*
X142403865Y-125429929D01*
X142411548Y-125431600D01*
X143337884Y-125431600D01*
X143353123Y-125427125D01*
X143354328Y-125425735D01*
X143355999Y-125418052D01*
X143355999Y-124936931D01*
X143355629Y-124930110D01*
X143350105Y-124879248D01*
X143346479Y-124863996D01*
X143301324Y-124743546D01*
X143292789Y-124727956D01*
X143224745Y-124637165D01*
X143199898Y-124570658D01*
X143214951Y-124501276D01*
X143224745Y-124486035D01*
X143292789Y-124395244D01*
X143301324Y-124379654D01*
X143346478Y-124259206D01*
X143350105Y-124243951D01*
X143355631Y-124193086D01*
X143356000Y-124186272D01*
X143356000Y-123709715D01*
X143351525Y-123694476D01*
X143350135Y-123693271D01*
X143342452Y-123691600D01*
X142416115Y-123691600D01*
X142400876Y-123696075D01*
X142399671Y-123697465D01*
X142398000Y-123705148D01*
X142398000Y-125413485D01*
X141598000Y-125413485D01*
X141598000Y-122873485D01*
X142398000Y-122873485D01*
X142402475Y-122888724D01*
X142403865Y-122889929D01*
X142411548Y-122891600D01*
X143337884Y-122891600D01*
X143353123Y-122887125D01*
X143354328Y-122885735D01*
X143355999Y-122878052D01*
X143355999Y-122396931D01*
X143355629Y-122390110D01*
X143350105Y-122339248D01*
X143346479Y-122323996D01*
X143301324Y-122203546D01*
X143292789Y-122187956D01*
X143224745Y-122097165D01*
X143199898Y-122030658D01*
X143214951Y-121961276D01*
X143224745Y-121946035D01*
X143292789Y-121855244D01*
X143301324Y-121839654D01*
X143346478Y-121719206D01*
X143350105Y-121703951D01*
X143355631Y-121653086D01*
X143356000Y-121646272D01*
X143356000Y-121169715D01*
X143351525Y-121154476D01*
X143350135Y-121153271D01*
X143342452Y-121151600D01*
X142416115Y-121151600D01*
X142400876Y-121156075D01*
X142399671Y-121157465D01*
X142398000Y-121165148D01*
X142398000Y-122873485D01*
X141598000Y-122873485D01*
X141598000Y-120552736D01*
X152962747Y-120552736D01*
X152975586Y-120820041D01*
X153027795Y-121082512D01*
X153118226Y-121334383D01*
X153120442Y-121338507D01*
X153188659Y-121465465D01*
X153244892Y-121570121D01*
X153247687Y-121573864D01*
X153247689Y-121573867D01*
X153402219Y-121780807D01*
X153405012Y-121784547D01*
X153408319Y-121787825D01*
X153408324Y-121787831D01*
X153587975Y-121965920D01*
X153595067Y-121972950D01*
X153598833Y-121975712D01*
X153598835Y-121975713D01*
X153726908Y-122069620D01*
X153810882Y-122131192D01*
X153815017Y-122133368D01*
X153815021Y-122133370D01*
X153944595Y-122201542D01*
X154047716Y-122255797D01*
X154052135Y-122257340D01*
X154295950Y-122342484D01*
X154295956Y-122342486D01*
X154300367Y-122344026D01*
X154563283Y-122393943D01*
X154690293Y-122398933D01*
X154826022Y-122404266D01*
X154826027Y-122404266D01*
X154830690Y-122404449D01*
X154926620Y-122393943D01*
X155092059Y-122375825D01*
X155092064Y-122375824D01*
X155096712Y-122375315D01*
X155212244Y-122344898D01*
X155350986Y-122308370D01*
X155355506Y-122307180D01*
X155480178Y-122253617D01*
X155597084Y-122203391D01*
X155597087Y-122203389D01*
X155601387Y-122201542D01*
X155605367Y-122199079D01*
X155605371Y-122199077D01*
X155824979Y-122063179D01*
X155824983Y-122063176D01*
X155828952Y-122060720D01*
X155910243Y-121991902D01*
X156029637Y-121890828D01*
X156029638Y-121890827D01*
X156033203Y-121887809D01*
X156100945Y-121810564D01*
X156206571Y-121690122D01*
X156206575Y-121690117D01*
X156209653Y-121686607D01*
X156231212Y-121653090D01*
X156236629Y-121644669D01*
X158259678Y-121644669D01*
X158260048Y-121651490D01*
X158265572Y-121702352D01*
X158269198Y-121717604D01*
X158314353Y-121838054D01*
X158322891Y-121853649D01*
X158399392Y-121955724D01*
X158411953Y-121968285D01*
X158514028Y-122044786D01*
X158529623Y-122053324D01*
X158650071Y-122098478D01*
X158665326Y-122102105D01*
X158716191Y-122107631D01*
X158723005Y-122108000D01*
X159349562Y-122108000D01*
X159364801Y-122103525D01*
X159366006Y-122102135D01*
X159367677Y-122094452D01*
X159367677Y-122089884D01*
X160167677Y-122089884D01*
X160172152Y-122105123D01*
X160173542Y-122106328D01*
X160181225Y-122107999D01*
X160812346Y-122107999D01*
X160819167Y-122107629D01*
X160870029Y-122102105D01*
X160885281Y-122098479D01*
X161005731Y-122053324D01*
X161021326Y-122044786D01*
X161123401Y-121968285D01*
X161135962Y-121955724D01*
X161212463Y-121853649D01*
X161221001Y-121838054D01*
X161231097Y-121811123D01*
X169627859Y-121811123D01*
X169633586Y-121818773D01*
X169676722Y-121845207D01*
X169685516Y-121849688D01*
X169895665Y-121936734D01*
X169905050Y-121939783D01*
X170126231Y-121992885D01*
X170135978Y-121994428D01*
X170362747Y-122012275D01*
X170372607Y-122012275D01*
X170599376Y-121994428D01*
X170609123Y-121992885D01*
X170830304Y-121939783D01*
X170839689Y-121936734D01*
X171049838Y-121849688D01*
X171058632Y-121845207D01*
X171098102Y-121821020D01*
X171107562Y-121810564D01*
X171103778Y-121801786D01*
X170380489Y-121078497D01*
X170366545Y-121070883D01*
X170364712Y-121071014D01*
X170358097Y-121075265D01*
X169634619Y-121798743D01*
X169627859Y-121811123D01*
X161231097Y-121811123D01*
X161266155Y-121717606D01*
X161269782Y-121702351D01*
X161275308Y-121651486D01*
X161275677Y-121644672D01*
X161275677Y-121018115D01*
X161271202Y-121002876D01*
X161269812Y-121001671D01*
X161262129Y-121000000D01*
X160185792Y-121000000D01*
X160170553Y-121004475D01*
X160169348Y-121005865D01*
X160167677Y-121013548D01*
X160167677Y-122089884D01*
X159367677Y-122089884D01*
X159367677Y-121018115D01*
X159363202Y-121002876D01*
X159361812Y-121001671D01*
X159354129Y-121000000D01*
X158277793Y-121000000D01*
X158262554Y-121004475D01*
X158261349Y-121005865D01*
X158259678Y-121013548D01*
X158259678Y-121644669D01*
X156236629Y-121644669D01*
X156351896Y-121465465D01*
X156351899Y-121465460D01*
X156354424Y-121461534D01*
X156464338Y-121217534D01*
X156536979Y-120959969D01*
X156554780Y-120820041D01*
X156570354Y-120697625D01*
X156570354Y-120697621D01*
X156570752Y-120694495D01*
X156573226Y-120600000D01*
X156566161Y-120504930D01*
X168855402Y-120504930D01*
X168873249Y-120731699D01*
X168874792Y-120741446D01*
X168927894Y-120962627D01*
X168930943Y-120972012D01*
X169017989Y-121182161D01*
X169022470Y-121190955D01*
X169046657Y-121230425D01*
X169057113Y-121239885D01*
X169065891Y-121236101D01*
X169789180Y-120512812D01*
X169795558Y-120501132D01*
X170938560Y-120501132D01*
X170938691Y-120502965D01*
X170942942Y-120509580D01*
X171666420Y-121233058D01*
X171678800Y-121239818D01*
X171686450Y-121234091D01*
X171712884Y-121190955D01*
X171717365Y-121182161D01*
X171804411Y-120972012D01*
X171807460Y-120962627D01*
X171860562Y-120741446D01*
X171862105Y-120731699D01*
X171879952Y-120504930D01*
X171879952Y-120495070D01*
X171862105Y-120268301D01*
X171860562Y-120258554D01*
X171807460Y-120037373D01*
X171804411Y-120027988D01*
X171717365Y-119817839D01*
X171712884Y-119809045D01*
X171688697Y-119769575D01*
X171678241Y-119760115D01*
X171669463Y-119763899D01*
X170946174Y-120487188D01*
X170938560Y-120501132D01*
X169795558Y-120501132D01*
X169796794Y-120498868D01*
X169796663Y-120497035D01*
X169792412Y-120490420D01*
X169068934Y-119766942D01*
X169056554Y-119760182D01*
X169048904Y-119765909D01*
X169022470Y-119809045D01*
X169017989Y-119817839D01*
X168930943Y-120027988D01*
X168927894Y-120037373D01*
X168874792Y-120258554D01*
X168873249Y-120268301D01*
X168855402Y-120495070D01*
X168855402Y-120504930D01*
X156566161Y-120504930D01*
X156554643Y-120349929D01*
X156553741Y-120337788D01*
X156553740Y-120337784D01*
X156553394Y-120333123D01*
X156542838Y-120286470D01*
X156519172Y-120181885D01*
X158259677Y-120181885D01*
X158264152Y-120197124D01*
X158265542Y-120198329D01*
X158273225Y-120200000D01*
X159349562Y-120200000D01*
X159364801Y-120195525D01*
X159366006Y-120194135D01*
X159367677Y-120186452D01*
X159367677Y-120181885D01*
X160167677Y-120181885D01*
X160172152Y-120197124D01*
X160173542Y-120198329D01*
X160181225Y-120200000D01*
X161257561Y-120200000D01*
X161272800Y-120195525D01*
X161274005Y-120194135D01*
X161275676Y-120186452D01*
X161275676Y-119555331D01*
X161275306Y-119548510D01*
X161269782Y-119497648D01*
X161266156Y-119482396D01*
X161221001Y-119361946D01*
X161212463Y-119346351D01*
X161135962Y-119244276D01*
X161123401Y-119231715D01*
X161066988Y-119189436D01*
X169627792Y-119189436D01*
X169631576Y-119198214D01*
X170354865Y-119921503D01*
X170368809Y-119929117D01*
X170370642Y-119928986D01*
X170377257Y-119924735D01*
X171100735Y-119201257D01*
X171107495Y-119188877D01*
X171101768Y-119181227D01*
X171058632Y-119154793D01*
X171049838Y-119150312D01*
X170839689Y-119063266D01*
X170830304Y-119060217D01*
X170609123Y-119007115D01*
X170599376Y-119005572D01*
X170372607Y-118987725D01*
X170362747Y-118987725D01*
X170135978Y-119005572D01*
X170126231Y-119007115D01*
X169905050Y-119060217D01*
X169895665Y-119063266D01*
X169685516Y-119150312D01*
X169676722Y-119154793D01*
X169637252Y-119178980D01*
X169627792Y-119189436D01*
X161066988Y-119189436D01*
X161021326Y-119155214D01*
X161005731Y-119146676D01*
X160885283Y-119101522D01*
X160870028Y-119097895D01*
X160819163Y-119092369D01*
X160812349Y-119092000D01*
X160185792Y-119092000D01*
X160170553Y-119096475D01*
X160169348Y-119097865D01*
X160167677Y-119105548D01*
X160167677Y-120181885D01*
X159367677Y-120181885D01*
X159367677Y-119110116D01*
X159363202Y-119094877D01*
X159361812Y-119093672D01*
X159354129Y-119092001D01*
X158723008Y-119092001D01*
X158716187Y-119092371D01*
X158665325Y-119097895D01*
X158650073Y-119101521D01*
X158529623Y-119146676D01*
X158514028Y-119155214D01*
X158411953Y-119231715D01*
X158399392Y-119244276D01*
X158322891Y-119346351D01*
X158314353Y-119361946D01*
X158269199Y-119482394D01*
X158265572Y-119497649D01*
X158260046Y-119548514D01*
X158259677Y-119555328D01*
X158259677Y-120181885D01*
X156519172Y-120181885D01*
X156495363Y-120076666D01*
X156494332Y-120072109D01*
X156478589Y-120031626D01*
X156399032Y-119827044D01*
X156399031Y-119827042D01*
X156397339Y-119822691D01*
X156386551Y-119803815D01*
X156297467Y-119647951D01*
X156264545Y-119590350D01*
X156098867Y-119380189D01*
X155903946Y-119196825D01*
X155684062Y-119044286D01*
X155679871Y-119042219D01*
X155448236Y-118927989D01*
X155448233Y-118927988D01*
X155444048Y-118925924D01*
X155425264Y-118919911D01*
X155193619Y-118845761D01*
X155193621Y-118845761D01*
X155189174Y-118844338D01*
X155029513Y-118818336D01*
X154929653Y-118802073D01*
X154929652Y-118802073D01*
X154925041Y-118801322D01*
X154791246Y-118799570D01*
X154662128Y-118797880D01*
X154662125Y-118797880D01*
X154657451Y-118797819D01*
X154392282Y-118833907D01*
X154387795Y-118835215D01*
X154387794Y-118835215D01*
X154356494Y-118844338D01*
X154135360Y-118908792D01*
X154131107Y-118910752D01*
X154131106Y-118910753D01*
X154088532Y-118930380D01*
X153892329Y-119020831D01*
X153888420Y-119023394D01*
X153672441Y-119164996D01*
X153672436Y-119165000D01*
X153668528Y-119167562D01*
X153602963Y-119226081D01*
X153478148Y-119337483D01*
X153468874Y-119345760D01*
X153297752Y-119551512D01*
X153295329Y-119555505D01*
X153165428Y-119769575D01*
X153158921Y-119780298D01*
X153157114Y-119784606D01*
X153157114Y-119784607D01*
X153099709Y-119921503D01*
X153055432Y-120027091D01*
X153054281Y-120031623D01*
X153054280Y-120031626D01*
X153008444Y-120212105D01*
X152989558Y-120286470D01*
X152962747Y-120552736D01*
X141598000Y-120552736D01*
X141598000Y-120333485D01*
X142398000Y-120333485D01*
X142402475Y-120348724D01*
X142403865Y-120349929D01*
X142411548Y-120351600D01*
X143337884Y-120351600D01*
X143353123Y-120347125D01*
X143354328Y-120345735D01*
X143355999Y-120338052D01*
X143355999Y-119856931D01*
X143355629Y-119850110D01*
X143350105Y-119799248D01*
X143346479Y-119783996D01*
X143301324Y-119663546D01*
X143292786Y-119647951D01*
X143216285Y-119545876D01*
X143203724Y-119533315D01*
X143101649Y-119456814D01*
X143086054Y-119448276D01*
X142965606Y-119403122D01*
X142950351Y-119399495D01*
X142899486Y-119393969D01*
X142892672Y-119393600D01*
X142416115Y-119393600D01*
X142400876Y-119398075D01*
X142399671Y-119399465D01*
X142398000Y-119407148D01*
X142398000Y-120333485D01*
X141598000Y-120333485D01*
X141598000Y-119411716D01*
X141593525Y-119396477D01*
X141592135Y-119395272D01*
X141584452Y-119393601D01*
X141134500Y-119393601D01*
X141066379Y-119373599D01*
X141019886Y-119319943D01*
X141008500Y-119267601D01*
X141008500Y-118995225D01*
X141008749Y-118987313D01*
X141012990Y-118919911D01*
X141012990Y-118919907D01*
X141013308Y-118914852D01*
X141009600Y-118877038D01*
X141009047Y-118861227D01*
X141009811Y-118833907D01*
X141011412Y-118776589D01*
X141000718Y-118696441D01*
X141000018Y-118689892D01*
X140993940Y-118614340D01*
X140993939Y-118614336D01*
X140993534Y-118609298D01*
X140985434Y-118576321D01*
X140982903Y-118562927D01*
X140979083Y-118534298D01*
X140978413Y-118529275D01*
X140955042Y-118451864D01*
X140953306Y-118445519D01*
X140946887Y-118419385D01*
X140934018Y-118366994D01*
X140920754Y-118335746D01*
X140916115Y-118322931D01*
X140907759Y-118295254D01*
X140906299Y-118290418D01*
X140870854Y-118217745D01*
X140868118Y-118211742D01*
X140838503Y-118141974D01*
X140836529Y-118137323D01*
X140835788Y-118136146D01*
X140821750Y-118079534D01*
X140804601Y-114190203D01*
X140818358Y-114132395D01*
X141564724Y-112669159D01*
X141613495Y-112617565D01*
X141677636Y-112600413D01*
X152524170Y-112658057D01*
X152592183Y-112678421D01*
X152638390Y-112732323D01*
X152649500Y-112784055D01*
X152649500Y-113175402D01*
X152649451Y-113178920D01*
X152646588Y-113281411D01*
X152647257Y-113286425D01*
X152657281Y-113361547D01*
X152657981Y-113368100D01*
X152664466Y-113448702D01*
X152665672Y-113453612D01*
X152665673Y-113453618D01*
X152672566Y-113481679D01*
X152675096Y-113495069D01*
X152679587Y-113528725D01*
X152702954Y-113606120D01*
X152704694Y-113612481D01*
X152711113Y-113638615D01*
X152723982Y-113691006D01*
X152725957Y-113695658D01*
X152725958Y-113695662D01*
X152737246Y-113722254D01*
X152741885Y-113735069D01*
X152751701Y-113767582D01*
X152753917Y-113772125D01*
X152787146Y-113840255D01*
X152789882Y-113846258D01*
X152821471Y-113920677D01*
X152824169Y-113924961D01*
X152839566Y-113949411D01*
X152846194Y-113961320D01*
X152850987Y-113971146D01*
X152861078Y-113991837D01*
X152895253Y-114040283D01*
X152907687Y-114057910D01*
X152911342Y-114063390D01*
X152954427Y-114131808D01*
X152957768Y-114135597D01*
X152957772Y-114135603D01*
X152976888Y-114157286D01*
X152985334Y-114167981D01*
X153004901Y-114195719D01*
X153025087Y-114217825D01*
X153065989Y-114258727D01*
X153071408Y-114264497D01*
X153119428Y-114318965D01*
X153123336Y-114322175D01*
X153152739Y-114346327D01*
X153161858Y-114354596D01*
X153486230Y-114678968D01*
X153488682Y-114681489D01*
X153559138Y-114755994D01*
X153563157Y-114759067D01*
X153563164Y-114759073D01*
X153623369Y-114805103D01*
X153628504Y-114809246D01*
X153690072Y-114861645D01*
X153694404Y-114864269D01*
X153694406Y-114864270D01*
X153719124Y-114879240D01*
X153730371Y-114886912D01*
X153757349Y-114907538D01*
X153761809Y-114909930D01*
X153761813Y-114909932D01*
X153828611Y-114945749D01*
X153834340Y-114949017D01*
X153899159Y-114988273D01*
X153899164Y-114988276D01*
X153903491Y-114990896D01*
X153908189Y-114992794D01*
X153934971Y-115003615D01*
X153947301Y-115009390D01*
X153977239Y-115025443D01*
X153982020Y-115027089D01*
X153982024Y-115027091D01*
X154053703Y-115051772D01*
X154059881Y-115054082D01*
X154130132Y-115082465D01*
X154130135Y-115082466D01*
X154134828Y-115084362D01*
X154167951Y-115091888D01*
X154181035Y-115095616D01*
X154208354Y-115105023D01*
X154208365Y-115105026D01*
X154213152Y-115106674D01*
X154218144Y-115107536D01*
X154218147Y-115107537D01*
X154292808Y-115120433D01*
X154299276Y-115121725D01*
X154373203Y-115138521D01*
X154373207Y-115138522D01*
X154378134Y-115139641D01*
X154383177Y-115139958D01*
X154383182Y-115139959D01*
X154412019Y-115141773D01*
X154425553Y-115143362D01*
X154459017Y-115149142D01*
X154462974Y-115149322D01*
X154462977Y-115149322D01*
X154487503Y-115150436D01*
X154487522Y-115150436D01*
X154488922Y-115150500D01*
X154546787Y-115150500D01*
X154554698Y-115150749D01*
X154619296Y-115154813D01*
X154627148Y-115155307D01*
X154649197Y-115153145D01*
X154670045Y-115151101D01*
X154682340Y-115150500D01*
X168505572Y-115150500D01*
X168573693Y-115170502D01*
X168594667Y-115187405D01*
X173530272Y-120123010D01*
X173564298Y-120185322D01*
X173567177Y-120212105D01*
X173567178Y-121587836D01*
X173567451Y-121592589D01*
X173607850Y-121767577D01*
X173686013Y-121929266D01*
X173759052Y-122020759D01*
X173789648Y-122059086D01*
X173816516Y-122124802D01*
X173817177Y-122137695D01*
X173817177Y-130343079D01*
X173817128Y-130346597D01*
X173814265Y-130449088D01*
X173814934Y-130454102D01*
X173824958Y-130529224D01*
X173825658Y-130535777D01*
X173832143Y-130616379D01*
X173833349Y-130621289D01*
X173833350Y-130621295D01*
X173840243Y-130649356D01*
X173842773Y-130662746D01*
X173847264Y-130696402D01*
X173870631Y-130773797D01*
X173872371Y-130780158D01*
X173891659Y-130858683D01*
X173893634Y-130863335D01*
X173893635Y-130863339D01*
X173904923Y-130889931D01*
X173909562Y-130902746D01*
X173919378Y-130935259D01*
X173921594Y-130939802D01*
X173954823Y-131007932D01*
X173957559Y-131013935D01*
X173978283Y-131062756D01*
X173989148Y-131088354D01*
X173991846Y-131092638D01*
X174007243Y-131117088D01*
X174013871Y-131128997D01*
X174028755Y-131159514D01*
X174070686Y-131218955D01*
X174075364Y-131225587D01*
X174079019Y-131231067D01*
X174122104Y-131299485D01*
X174125445Y-131303274D01*
X174125449Y-131303280D01*
X174144565Y-131324963D01*
X174153011Y-131335658D01*
X174172578Y-131363396D01*
X174192764Y-131385502D01*
X174233666Y-131426404D01*
X174239085Y-131432174D01*
X174287105Y-131486642D01*
X174291014Y-131489853D01*
X174320414Y-131514003D01*
X174329532Y-131522271D01*
X175686245Y-132878983D01*
X175688666Y-132881471D01*
X175759138Y-132955994D01*
X175763155Y-132959065D01*
X175763158Y-132959068D01*
X175823357Y-133005094D01*
X175828489Y-133009235D01*
X175871187Y-133045573D01*
X175890073Y-133061646D01*
X175894396Y-133064264D01*
X175894400Y-133064267D01*
X175908234Y-133072644D01*
X175919123Y-133079239D01*
X175930373Y-133086914D01*
X175957349Y-133107538D01*
X175961801Y-133109925D01*
X175961810Y-133109931D01*
X176028609Y-133145749D01*
X176034336Y-133149015D01*
X176099164Y-133188275D01*
X176103492Y-133190896D01*
X176108181Y-133192791D01*
X176108182Y-133192791D01*
X176134974Y-133203616D01*
X176147300Y-133209390D01*
X176177239Y-133225443D01*
X176182019Y-133227089D01*
X176182033Y-133227095D01*
X176253702Y-133251772D01*
X176259882Y-133254082D01*
X176330133Y-133282466D01*
X176330137Y-133282467D01*
X176334829Y-133284363D01*
X176339765Y-133285484D01*
X176339767Y-133285485D01*
X176367938Y-133291885D01*
X176381045Y-133295619D01*
X176408362Y-133305025D01*
X176408366Y-133305026D01*
X176413152Y-133306674D01*
X176418138Y-133307535D01*
X176418141Y-133307536D01*
X176492813Y-133320434D01*
X176499281Y-133321726D01*
X176573204Y-133338521D01*
X176573207Y-133338521D01*
X176578135Y-133339641D01*
X176583180Y-133339958D01*
X176583184Y-133339959D01*
X176612031Y-133341774D01*
X176625554Y-133343362D01*
X176659017Y-133349142D01*
X176662978Y-133349322D01*
X176662979Y-133349322D01*
X176687503Y-133350436D01*
X176687522Y-133350436D01*
X176688922Y-133350500D01*
X176746775Y-133350500D01*
X176754686Y-133350749D01*
X176827148Y-133355308D01*
X176870053Y-133351101D01*
X176882350Y-133350500D01*
X191575402Y-133350500D01*
X191578920Y-133350549D01*
X191676356Y-133353271D01*
X191676359Y-133353271D01*
X191681411Y-133353412D01*
X191761559Y-133342718D01*
X191768100Y-133342019D01*
X191797690Y-133339638D01*
X191843660Y-133335940D01*
X191843664Y-133335939D01*
X191848702Y-133335534D01*
X191853612Y-133334328D01*
X191853618Y-133334327D01*
X191881679Y-133327434D01*
X191895069Y-133324904D01*
X191928725Y-133320413D01*
X192006136Y-133297042D01*
X192012481Y-133295306D01*
X192038615Y-133288887D01*
X192091006Y-133276018D01*
X192095658Y-133274043D01*
X192095662Y-133274042D01*
X192122254Y-133262754D01*
X192135069Y-133258115D01*
X192162746Y-133249759D01*
X192167582Y-133248299D01*
X192211056Y-133227095D01*
X192240255Y-133212854D01*
X192246258Y-133210118D01*
X192316019Y-133180506D01*
X192320677Y-133178529D01*
X192349411Y-133160434D01*
X192361320Y-133153806D01*
X192387286Y-133141142D01*
X192387290Y-133141140D01*
X192391837Y-133138922D01*
X192457917Y-133092308D01*
X192463397Y-133088654D01*
X192466156Y-133086917D01*
X192531808Y-133045573D01*
X192535597Y-133042232D01*
X192535603Y-133042228D01*
X192557286Y-133023112D01*
X192567981Y-133014666D01*
X192592473Y-132997389D01*
X192592475Y-132997387D01*
X192595719Y-132995099D01*
X192617825Y-132974913D01*
X192658728Y-132934010D01*
X192664498Y-132928591D01*
X192715168Y-132883920D01*
X192715171Y-132883917D01*
X192718965Y-132880572D01*
X192746326Y-132847262D01*
X192754596Y-132838142D01*
X193679003Y-131913736D01*
X193681525Y-131911284D01*
X193752315Y-131844341D01*
X193755994Y-131840862D01*
X193805094Y-131776643D01*
X193809235Y-131771511D01*
X193858367Y-131713780D01*
X193858368Y-131713779D01*
X193861646Y-131709927D01*
X193879239Y-131680877D01*
X193886917Y-131669622D01*
X193893603Y-131660878D01*
X193907538Y-131642651D01*
X193909925Y-131638199D01*
X193909931Y-131638190D01*
X193945749Y-131571391D01*
X193949015Y-131565664D01*
X193988275Y-131500836D01*
X193988275Y-131500835D01*
X193990896Y-131496508D01*
X194003616Y-131465026D01*
X194009390Y-131452700D01*
X194025443Y-131422761D01*
X194027089Y-131417981D01*
X194027095Y-131417967D01*
X194051772Y-131346298D01*
X194054082Y-131340118D01*
X194082466Y-131269867D01*
X194082467Y-131269863D01*
X194084363Y-131265171D01*
X194091885Y-131232062D01*
X194095619Y-131218955D01*
X194105025Y-131191638D01*
X194105026Y-131191634D01*
X194106674Y-131186848D01*
X194110682Y-131163648D01*
X194120434Y-131107187D01*
X194121726Y-131100719D01*
X194138521Y-131026796D01*
X194138521Y-131026793D01*
X194139641Y-131021865D01*
X194140194Y-131013085D01*
X194141774Y-130987969D01*
X194143363Y-130974438D01*
X194149142Y-130940983D01*
X194150500Y-130911078D01*
X194150500Y-130853225D01*
X194150749Y-130845313D01*
X194154990Y-130777906D01*
X194155308Y-130772852D01*
X194151101Y-130729946D01*
X194150500Y-130717650D01*
X194150500Y-128718214D01*
X194150549Y-128714696D01*
X194153271Y-128617245D01*
X194153271Y-128617243D01*
X194153412Y-128612190D01*
X194142719Y-128532051D01*
X194142018Y-128525492D01*
X194135941Y-128449951D01*
X194135940Y-128449945D01*
X194135534Y-128444898D01*
X194127431Y-128411906D01*
X194124903Y-128398526D01*
X194121084Y-128369899D01*
X194121082Y-128369891D01*
X194120413Y-128364875D01*
X194097042Y-128287464D01*
X194095306Y-128281119D01*
X194088887Y-128254985D01*
X194076018Y-128202594D01*
X194062754Y-128171346D01*
X194058115Y-128158531D01*
X194049759Y-128130854D01*
X194048299Y-128126018D01*
X194012855Y-128053347D01*
X194010119Y-128047344D01*
X193998040Y-128018888D01*
X193978529Y-127972923D01*
X193960426Y-127944176D01*
X193953814Y-127932297D01*
X193941250Y-127906537D01*
X193928499Y-127851305D01*
X193928499Y-127433764D01*
X193928226Y-127429011D01*
X193887827Y-127254023D01*
X193841060Y-127157280D01*
X193828500Y-127102441D01*
X193828500Y-127100759D01*
X193841060Y-127045920D01*
X193884761Y-126955519D01*
X193887827Y-126949177D01*
X193894643Y-126919654D01*
X193927026Y-126779388D01*
X193927026Y-126779385D01*
X193928226Y-126774189D01*
X193928500Y-126769437D01*
X193928499Y-124893764D01*
X193928226Y-124889011D01*
X193887827Y-124714023D01*
X193841060Y-124617280D01*
X193828500Y-124562441D01*
X193828500Y-124560759D01*
X193841060Y-124505920D01*
X193884761Y-124415519D01*
X193887827Y-124409177D01*
X193894643Y-124379654D01*
X193927026Y-124239388D01*
X193927026Y-124239385D01*
X193928226Y-124234189D01*
X193928500Y-124229437D01*
X193928499Y-122353764D01*
X193928226Y-122349011D01*
X193887827Y-122174023D01*
X193841060Y-122077280D01*
X193828500Y-122022441D01*
X193828500Y-122020759D01*
X193841060Y-121965920D01*
X193861846Y-121922922D01*
X193887827Y-121869177D01*
X193914555Y-121753404D01*
X193927026Y-121699388D01*
X193927026Y-121699385D01*
X193928226Y-121694189D01*
X193928500Y-121689437D01*
X193928499Y-119813764D01*
X193928226Y-119809011D01*
X193887827Y-119634023D01*
X193846489Y-119548510D01*
X193812731Y-119478678D01*
X193812730Y-119478677D01*
X193809664Y-119472334D01*
X193697620Y-119331980D01*
X193557266Y-119219936D01*
X193518627Y-119201257D01*
X193401919Y-119144839D01*
X193401920Y-119144839D01*
X193395577Y-119141773D01*
X193388716Y-119140189D01*
X193225788Y-119102574D01*
X193225785Y-119102574D01*
X193220589Y-119101374D01*
X193215837Y-119101100D01*
X193214013Y-119101100D01*
X192269963Y-119101101D01*
X191340164Y-119101101D01*
X191335411Y-119101374D01*
X191160423Y-119141773D01*
X191154080Y-119144839D01*
X191154081Y-119144839D01*
X191037374Y-119201257D01*
X190998734Y-119219936D01*
X190858380Y-119331980D01*
X190836137Y-119359843D01*
X190778009Y-119400600D01*
X190708522Y-119403815D01*
X190690351Y-119399495D01*
X190639486Y-119393969D01*
X190632672Y-119393600D01*
X190156115Y-119393600D01*
X190140876Y-119398075D01*
X190139671Y-119399465D01*
X190138000Y-119407148D01*
X190138000Y-129711484D01*
X190142475Y-129726723D01*
X190143865Y-129727928D01*
X190151548Y-129729599D01*
X190632669Y-129729599D01*
X190639490Y-129729229D01*
X190690354Y-129723705D01*
X190708525Y-129719385D01*
X190779425Y-129723088D01*
X190836137Y-129763357D01*
X190858380Y-129791220D01*
X190863883Y-129795613D01*
X190998734Y-129903264D01*
X190997415Y-129904916D01*
X191037623Y-129950457D01*
X191049500Y-130003860D01*
X191049500Y-130105572D01*
X191029498Y-130173693D01*
X191012595Y-130194667D01*
X190994667Y-130212595D01*
X190932355Y-130246621D01*
X190905572Y-130249500D01*
X177494428Y-130249500D01*
X177426307Y-130229498D01*
X177405333Y-130212595D01*
X176955082Y-129762344D01*
X176921056Y-129700032D01*
X176918177Y-129673249D01*
X176918177Y-129266269D01*
X188380001Y-129266269D01*
X188380371Y-129273090D01*
X188385895Y-129323952D01*
X188389521Y-129339204D01*
X188434676Y-129459654D01*
X188443214Y-129475249D01*
X188519715Y-129577324D01*
X188532276Y-129589885D01*
X188634351Y-129666386D01*
X188649946Y-129674924D01*
X188770394Y-129720078D01*
X188785649Y-129723705D01*
X188836514Y-129729231D01*
X188843328Y-129729600D01*
X189319885Y-129729600D01*
X189335124Y-129725125D01*
X189336329Y-129723735D01*
X189338000Y-129716052D01*
X189338000Y-128789715D01*
X189333525Y-128774476D01*
X189332135Y-128773271D01*
X189324452Y-128771600D01*
X188398116Y-128771600D01*
X188382877Y-128776075D01*
X188381672Y-128777465D01*
X188380001Y-128785148D01*
X188380001Y-129266269D01*
X176918177Y-129266269D01*
X176918177Y-127953485D01*
X188380000Y-127953485D01*
X188384475Y-127968724D01*
X188385865Y-127969929D01*
X188393548Y-127971600D01*
X189319885Y-127971600D01*
X189335124Y-127967125D01*
X189336329Y-127965735D01*
X189338000Y-127958052D01*
X189338000Y-126249715D01*
X189333525Y-126234476D01*
X189332135Y-126233271D01*
X189324452Y-126231600D01*
X188398116Y-126231600D01*
X188382877Y-126236075D01*
X188381672Y-126237465D01*
X188380001Y-126245148D01*
X188380001Y-126726269D01*
X188380371Y-126733090D01*
X188385895Y-126783952D01*
X188389521Y-126799204D01*
X188434676Y-126919654D01*
X188443211Y-126935244D01*
X188511255Y-127026035D01*
X188536102Y-127092542D01*
X188521049Y-127161924D01*
X188511255Y-127177165D01*
X188443211Y-127267956D01*
X188434676Y-127283546D01*
X188389522Y-127403994D01*
X188385895Y-127419249D01*
X188380369Y-127470114D01*
X188380000Y-127476928D01*
X188380000Y-127953485D01*
X176918177Y-127953485D01*
X176918177Y-125413485D01*
X188380000Y-125413485D01*
X188384475Y-125428724D01*
X188385865Y-125429929D01*
X188393548Y-125431600D01*
X189319885Y-125431600D01*
X189335124Y-125427125D01*
X189336329Y-125425735D01*
X189338000Y-125418052D01*
X189338000Y-123709715D01*
X189333525Y-123694476D01*
X189332135Y-123693271D01*
X189324452Y-123691600D01*
X188398116Y-123691600D01*
X188382877Y-123696075D01*
X188381672Y-123697465D01*
X188380001Y-123705148D01*
X188380001Y-124186269D01*
X188380371Y-124193090D01*
X188385895Y-124243952D01*
X188389521Y-124259204D01*
X188434676Y-124379654D01*
X188443211Y-124395244D01*
X188511255Y-124486035D01*
X188536102Y-124552542D01*
X188521049Y-124621924D01*
X188511255Y-124637165D01*
X188443211Y-124727956D01*
X188434676Y-124743546D01*
X188389522Y-124863994D01*
X188385895Y-124879249D01*
X188380369Y-124930114D01*
X188380000Y-124936928D01*
X188380000Y-125413485D01*
X176918177Y-125413485D01*
X176918177Y-122873485D01*
X188380000Y-122873485D01*
X188384475Y-122888724D01*
X188385865Y-122889929D01*
X188393548Y-122891600D01*
X189319885Y-122891600D01*
X189335124Y-122887125D01*
X189336329Y-122885735D01*
X189338000Y-122878052D01*
X189338000Y-121169715D01*
X189333525Y-121154476D01*
X189332135Y-121153271D01*
X189324452Y-121151600D01*
X188398116Y-121151600D01*
X188382877Y-121156075D01*
X188381672Y-121157465D01*
X188380001Y-121165148D01*
X188380001Y-121646269D01*
X188380371Y-121653090D01*
X188385895Y-121703952D01*
X188389521Y-121719204D01*
X188434676Y-121839654D01*
X188443211Y-121855244D01*
X188511255Y-121946035D01*
X188536102Y-122012542D01*
X188521049Y-122081924D01*
X188511255Y-122097165D01*
X188443211Y-122187956D01*
X188434676Y-122203546D01*
X188389522Y-122323994D01*
X188385895Y-122339249D01*
X188380369Y-122390114D01*
X188380000Y-122396928D01*
X188380000Y-122873485D01*
X176918177Y-122873485D01*
X176918177Y-122137695D01*
X176938179Y-122069574D01*
X176945706Y-122059086D01*
X176976303Y-122020759D01*
X177049341Y-121929266D01*
X177127504Y-121767577D01*
X177154306Y-121651486D01*
X177166703Y-121597788D01*
X177166703Y-121597785D01*
X177167903Y-121592589D01*
X177168177Y-121587837D01*
X177168176Y-120333485D01*
X188380000Y-120333485D01*
X188384475Y-120348724D01*
X188385865Y-120349929D01*
X188393548Y-120351600D01*
X189319885Y-120351600D01*
X189335124Y-120347125D01*
X189336329Y-120345735D01*
X189338000Y-120338052D01*
X189338000Y-119411716D01*
X189333525Y-119396477D01*
X189332135Y-119395272D01*
X189324452Y-119393601D01*
X188843331Y-119393601D01*
X188836510Y-119393971D01*
X188785648Y-119399495D01*
X188770396Y-119403121D01*
X188649946Y-119448276D01*
X188634351Y-119456814D01*
X188532276Y-119533315D01*
X188519715Y-119545876D01*
X188443214Y-119647951D01*
X188434676Y-119663546D01*
X188389522Y-119783994D01*
X188385895Y-119799249D01*
X188380369Y-119850114D01*
X188380000Y-119856928D01*
X188380000Y-120333485D01*
X177168176Y-120333485D01*
X177168176Y-119412164D01*
X177167903Y-119407411D01*
X177127504Y-119232423D01*
X177064733Y-119102574D01*
X177052408Y-119077078D01*
X177052407Y-119077077D01*
X177049341Y-119070734D01*
X176937297Y-118930380D01*
X176796943Y-118818336D01*
X176761622Y-118801261D01*
X176641596Y-118743239D01*
X176641597Y-118743239D01*
X176635254Y-118740173D01*
X176628395Y-118738589D01*
X176628385Y-118738586D01*
X176541116Y-118718438D01*
X176474947Y-118678995D01*
X176451589Y-118652501D01*
X176448249Y-118648712D01*
X176414938Y-118621350D01*
X176405819Y-118613081D01*
X173283693Y-115490955D01*
X186550205Y-115490955D01*
X186599898Y-115642988D01*
X186603895Y-115652497D01*
X186710011Y-115856344D01*
X186715505Y-115865069D01*
X186853493Y-116048852D01*
X186860336Y-116056559D01*
X187026491Y-116215339D01*
X187034501Y-116221826D01*
X187224347Y-116351330D01*
X187233321Y-116356429D01*
X187441773Y-116453188D01*
X187451450Y-116456749D01*
X187582541Y-116493104D01*
X187596644Y-116492891D01*
X187600000Y-116485240D01*
X187600000Y-116479291D01*
X188400000Y-116479291D01*
X188403973Y-116492822D01*
X188413053Y-116494127D01*
X188514771Y-116468578D01*
X188524519Y-116465259D01*
X188735289Y-116373615D01*
X188744364Y-116368749D01*
X188937327Y-116243915D01*
X188945498Y-116237622D01*
X189115480Y-116082950D01*
X189122506Y-116075417D01*
X189264945Y-115895056D01*
X189270650Y-115886469D01*
X189381714Y-115685278D01*
X189385944Y-115675866D01*
X189449257Y-115497076D01*
X189450029Y-115482996D01*
X189444318Y-115480000D01*
X188418115Y-115480000D01*
X188402876Y-115484475D01*
X188401671Y-115485865D01*
X188400000Y-115493548D01*
X188400000Y-116479291D01*
X187600000Y-116479291D01*
X187600000Y-115498115D01*
X187595525Y-115482876D01*
X187594135Y-115481671D01*
X187586452Y-115480000D01*
X186564740Y-115480000D01*
X186551209Y-115483973D01*
X186550205Y-115490955D01*
X173283693Y-115490955D01*
X170763297Y-112970559D01*
X170729271Y-112908247D01*
X170734336Y-112837432D01*
X170776883Y-112780596D01*
X170843403Y-112755785D01*
X170853061Y-112755466D01*
X171926531Y-112761171D01*
X186119072Y-112836598D01*
X186187085Y-112856962D01*
X186233292Y-112910864D01*
X186239367Y-112927335D01*
X186305910Y-113155635D01*
X186307870Y-113159888D01*
X186307871Y-113159889D01*
X186327614Y-113202715D01*
X186414993Y-113392254D01*
X186417553Y-113396159D01*
X186417556Y-113396164D01*
X186555286Y-113606238D01*
X186555290Y-113606243D01*
X186557852Y-113610151D01*
X186731350Y-113804538D01*
X186772748Y-113838968D01*
X186858592Y-113910364D01*
X186898176Y-113969301D01*
X186899612Y-114040283D01*
X186876905Y-114085330D01*
X186735055Y-114264944D01*
X186729350Y-114273531D01*
X186618286Y-114474722D01*
X186614056Y-114484134D01*
X186550743Y-114662924D01*
X186549971Y-114677004D01*
X186555682Y-114680000D01*
X189435260Y-114680000D01*
X189448791Y-114676027D01*
X189449795Y-114669045D01*
X189400102Y-114517012D01*
X189396105Y-114507503D01*
X189289989Y-114303656D01*
X189284495Y-114294931D01*
X189146507Y-114111148D01*
X189139664Y-114103441D01*
X189134390Y-114098401D01*
X189098960Y-114036877D01*
X189102417Y-113965965D01*
X189143436Y-113908357D01*
X189231456Y-113838968D01*
X189231461Y-113838963D01*
X189235130Y-113836071D01*
X189413657Y-113646292D01*
X189436306Y-113613643D01*
X189559509Y-113436047D01*
X189559512Y-113436042D01*
X189562171Y-113432209D01*
X189564234Y-113428027D01*
X189564238Y-113428019D01*
X189675345Y-113202715D01*
X189675346Y-113202712D01*
X189677410Y-113198527D01*
X189684813Y-113175402D01*
X189694227Y-113145991D01*
X189756844Y-112950377D01*
X189798726Y-112693212D01*
X189802136Y-112432682D01*
X189767000Y-112174509D01*
X189694090Y-111924365D01*
X189674317Y-111881473D01*
X189586964Y-111691992D01*
X189585007Y-111687746D01*
X189568501Y-111662570D01*
X189547878Y-111594637D01*
X189567257Y-111526337D01*
X189575402Y-111514877D01*
X189677267Y-111387274D01*
X189681664Y-111381766D01*
X189700848Y-111342083D01*
X189756761Y-111226419D01*
X189759827Y-111220077D01*
X189775973Y-111150141D01*
X189799026Y-111050288D01*
X189799026Y-111050285D01*
X189800226Y-111045089D01*
X189800500Y-111040337D01*
X189800499Y-108959664D01*
X189800226Y-108954911D01*
X189759827Y-108779923D01*
X189681664Y-108618234D01*
X189569620Y-108477880D01*
X189429266Y-108365836D01*
X189267577Y-108287673D01*
X189260716Y-108286089D01*
X189097788Y-108248474D01*
X189097785Y-108248474D01*
X189092589Y-108247274D01*
X189087837Y-108247000D01*
X189086013Y-108247000D01*
X187990677Y-108247001D01*
X186912164Y-108247001D01*
X186907411Y-108247274D01*
X186732423Y-108287673D01*
X186570734Y-108365836D01*
X186519995Y-108406341D01*
X186482975Y-108435894D01*
X186417258Y-108462761D01*
X186347448Y-108449834D01*
X186295709Y-108401217D01*
X186278385Y-108335211D01*
X186364630Y-103425259D01*
X186379992Y-102550706D01*
X186401188Y-102482947D01*
X186455652Y-102437404D01*
X186526092Y-102428536D01*
X186590145Y-102459158D01*
X186625738Y-102513774D01*
X186654898Y-102602988D01*
X186658895Y-102612497D01*
X186765011Y-102816344D01*
X186770505Y-102825069D01*
X186908493Y-103008852D01*
X186915336Y-103016559D01*
X187081491Y-103175339D01*
X187089501Y-103181826D01*
X187279347Y-103311330D01*
X187288321Y-103316429D01*
X187496773Y-103413188D01*
X187506450Y-103416749D01*
X187637541Y-103453104D01*
X187651644Y-103452891D01*
X187655000Y-103445240D01*
X187655000Y-103439291D01*
X188455000Y-103439291D01*
X188458973Y-103452822D01*
X188468053Y-103454127D01*
X188569771Y-103428578D01*
X188579519Y-103425259D01*
X188790289Y-103333615D01*
X188799364Y-103328749D01*
X188992327Y-103203915D01*
X189000498Y-103197622D01*
X189170480Y-103042950D01*
X189177506Y-103035417D01*
X189319945Y-102855056D01*
X189325650Y-102846469D01*
X189436714Y-102645278D01*
X189440944Y-102635866D01*
X189504257Y-102457076D01*
X189505029Y-102442996D01*
X189499318Y-102440000D01*
X188473115Y-102440000D01*
X188457876Y-102444475D01*
X188456671Y-102445865D01*
X188455000Y-102453548D01*
X188455000Y-103439291D01*
X187655000Y-103439291D01*
X187655000Y-101766000D01*
X187675002Y-101697879D01*
X187728658Y-101651386D01*
X187781000Y-101640000D01*
X189490260Y-101640000D01*
X189503791Y-101636027D01*
X189504795Y-101629045D01*
X189455102Y-101477012D01*
X189451105Y-101467502D01*
X189400823Y-101370912D01*
X189387110Y-101301253D01*
X189413235Y-101235237D01*
X189470903Y-101193826D01*
X189512181Y-101186733D01*
X196073099Y-101165794D01*
X196141282Y-101185578D01*
G37*
%TD.AperFunction*%
%TD*%
M02*
