%TF.GenerationSoftware,KiCad,Pcbnew,(6.0.8)*%
%TF.CreationDate,2022-10-21T20:47:53+05:30*%
%TF.ProjectId,Dual Rail Supply For Breadboard,4475616c-2052-4616-996c-20537570706c,rev?*%
%TF.SameCoordinates,Original*%
%TF.FileFunction,Profile,NP*%
%FSLAX46Y46*%
G04 Gerber Fmt 4.6, Leading zero omitted, Abs format (unit mm)*
G04 Created by KiCad (PCBNEW (6.0.8)) date 2022-10-21 20:47:53*
%MOMM*%
%LPD*%
G01*
G04 APERTURE LIST*
%TA.AperFunction,Profile*%
%ADD10C,0.100000*%
%TD*%
G04 APERTURE END LIST*
D10*
X134400000Y-44900000D02*
X197000000Y-44900000D01*
X197000000Y-44900000D02*
X197000000Y-137400000D01*
X197000000Y-137400000D02*
X134400000Y-137400000D01*
X134400000Y-137400000D02*
X134400000Y-44900000D01*
X152000000Y-92500000D02*
X147500000Y-92500000D01*
X147500000Y-92500000D02*
X147500000Y-84500000D01*
X147500000Y-84500000D02*
X152000000Y-84500000D01*
X152000000Y-84500000D02*
X152000000Y-92500000D01*
X193500000Y-76000000D02*
X189500000Y-76000000D01*
X189500000Y-76000000D02*
X189500000Y-68000000D01*
X189500000Y-68000000D02*
X193500000Y-68000000D01*
X193500000Y-68000000D02*
X193500000Y-76000000D01*
X152000000Y-76000000D02*
X147500000Y-76000000D01*
X147500000Y-76000000D02*
X147500000Y-68000000D01*
X147500000Y-68000000D02*
X152000000Y-68000000D01*
X152000000Y-68000000D02*
X152000000Y-76000000D01*
X193500000Y-92500000D02*
X189500000Y-92500000D01*
X189500000Y-92500000D02*
X189500000Y-84500000D01*
X189500000Y-84500000D02*
X193500000Y-84500000D01*
X193500000Y-84500000D02*
X193500000Y-92500000D01*
M02*
