M48
; DRILL file {KiCad (6.0.8)} date Fri Oct 21 20:48:13 2022
; FORMAT={-:-/ absolute / inch / decimal}
; #@! TF.CreationDate,2022-10-21T20:48:13+05:30
; #@! TF.GenerationSoftware,Kicad,Pcbnew,(6.0.8)
; #@! TF.FileFunction,Plated,1,2,PTH
FMAT,2
INCH
; #@! TA.AperFunction,Plated,PTH,ViaDrill
T1C0.0157
; #@! TA.AperFunction,Plated,PTH,ComponentDrill
T2C0.0177
; #@! TA.AperFunction,Plated,PTH,ComponentDrill
T3C0.0315
; #@! TA.AperFunction,Plated,PTH,ComponentDrill
T4C0.0394
; #@! TA.AperFunction,Plated,PTH,ComponentDrill
T5C0.0433
; #@! TA.AperFunction,Plated,PTH,ComponentDrill
T6C0.0472
; #@! TA.AperFunction,Plated,PTH,ComponentDrill
T7C0.0630
%
G90
G05
T1
X5.4094Y-4.9528
X5.4173Y-4.7559
X5.4173Y-4.8583
X5.4173Y-5.0551
X5.4724Y-4.0945
X5.4803Y-5.1417
X5.4882Y-4.6772
X5.5354Y-3.378
X5.5512Y-4.0157
X5.5512Y-4.1732
X5.6142Y-3.4567
X5.622Y-2.9291
X5.6299Y-2.7717
X5.6535Y-2.0276
X5.685Y-2.8583
X6.2441Y-1.9134
X6.2441Y-2.0945
X6.2992Y-1.9134
X6.2992Y-2.0945
X6.3465Y-2.0945
X6.3622Y-1.9134
X6.3622Y-4.3701
X6.3937Y-4.6142
X6.4409Y-4.3701
X6.4488Y-1.9606
X6.4488Y-2.0394
X6.4646Y-4.6142
X6.5276Y-4.3701
X6.5433Y-4.6142
X6.685Y-3.1654
X6.7165Y-5.0394
X6.7165Y-5.1024
X6.7559Y-3.1024
X6.7638Y-3.2283
X6.7874Y-5.0394
X6.7953Y-5.1024
X6.8346Y-3.1575
X7.0157Y-5.0315
X7.0236Y-5.0866
X7.0866Y-5.0315
X7.0945Y-5.0866
X7.4331Y-1.9685
X7.4331Y-2.0236
X7.5039Y-1.9055
X7.5039Y-2.1024
X7.5669Y-1.9055
X7.5748Y-2.1024
X7.6378Y-1.9055
X7.6457Y-2.1024
T3
X5.5217Y-2.8543
X5.6201Y-2.8543
X6.1521Y-3.8211
X6.1521Y-4.3211
X6.3766Y-3.914
X6.3766Y-4.014
X6.3766Y-4.114
X6.3766Y-4.214
X6.6766Y-3.914
X6.6766Y-4.014
X6.6766Y-4.114
X6.6766Y-4.214
X6.8701Y-3.8051
X6.8701Y-4.3051
T4
X5.4905Y-4.754
X5.4905Y-4.854
X5.4905Y-4.954
X5.4905Y-5.054
X5.5905Y-4.754
X5.5905Y-4.854
X5.5905Y-4.954
X5.5905Y-5.054
X6.0932Y-4.748
X6.2901Y-4.748
X6.7074Y-4.7441
X6.9042Y-4.7441
X7.47Y-4.754
X7.47Y-4.854
X7.47Y-4.954
X7.47Y-5.054
X7.57Y-4.754
X7.57Y-4.854
X7.57Y-4.954
X7.57Y-5.054
T5
X5.616Y-3.17
X5.616Y-3.27
X5.616Y-3.37
X7.4016Y-4.3307
X7.4016Y-4.4307
X7.4016Y-4.5307
X7.4037Y-3.8173
X7.4037Y-3.9173
X7.4037Y-4.0173
T6
X5.5512Y-4.0945
X5.748Y-4.0945
T7
X6.063Y-2.065
X6.063Y-2.565
T2
G00X5.564Y-1.874
M15
G01X5.564Y-1.8425
M16
G05
G00X5.8455Y-1.8425
M15
G01X5.8455Y-1.874
M16
G05
T4
G00X5.6063Y-2.2773
M15
G01X5.6063Y-2.356
M16
G05
G00X5.685Y-2.5017
M15
G01X5.7638Y-2.5017
M16
G05
G00X5.8425Y-2.2773
M15
G01X5.8425Y-2.356
M16
G05
T0
M30
