%TF.GenerationSoftware,KiCad,Pcbnew,(6.0.8)*%
%TF.CreationDate,2022-10-21T20:47:53+05:30*%
%TF.ProjectId,Dual Rail Supply For Breadboard,4475616c-2052-4616-996c-20537570706c,rev?*%
%TF.SameCoordinates,Original*%
%TF.FileFunction,Copper,L2,Bot*%
%TF.FilePolarity,Positive*%
%FSLAX46Y46*%
G04 Gerber Fmt 4.6, Leading zero omitted, Abs format (unit mm)*
G04 Created by KiCad (PCBNEW (6.0.8)) date 2022-10-21 20:47:53*
%MOMM*%
%LPD*%
G01*
G04 APERTURE LIST*
G04 Aperture macros list*
%AMRoundRect*
0 Rectangle with rounded corners*
0 $1 Rounding radius*
0 $2 $3 $4 $5 $6 $7 $8 $9 X,Y pos of 4 corners*
0 Add a 4 corners polygon primitive as box body*
4,1,4,$2,$3,$4,$5,$6,$7,$8,$9,$2,$3,0*
0 Add four circle primitives for the rounded corners*
1,1,$1+$1,$2,$3*
1,1,$1+$1,$4,$5*
1,1,$1+$1,$6,$7*
1,1,$1+$1,$8,$9*
0 Add four rect primitives between the rounded corners*
20,1,$1+$1,$2,$3,$4,$5,0*
20,1,$1+$1,$4,$5,$6,$7,0*
20,1,$1+$1,$6,$7,$8,$9,0*
20,1,$1+$1,$8,$9,$2,$3,0*%
G04 Aperture macros list end*
%TA.AperFunction,ComponentPad*%
%ADD10R,1.700000X1.700000*%
%TD*%
%TA.AperFunction,ComponentPad*%
%ADD11O,1.050000X1.900000*%
%TD*%
%TA.AperFunction,ComponentPad*%
%ADD12C,1.600000*%
%TD*%
%TA.AperFunction,ComponentPad*%
%ADD13R,2.000000X2.000000*%
%TD*%
%TA.AperFunction,ComponentPad*%
%ADD14C,2.000000*%
%TD*%
%TA.AperFunction,ComponentPad*%
%ADD15R,3.200000X3.200000*%
%TD*%
%TA.AperFunction,ComponentPad*%
%ADD16O,3.200000X3.200000*%
%TD*%
%TA.AperFunction,ComponentPad*%
%ADD17R,2.000000X1.905000*%
%TD*%
%TA.AperFunction,ComponentPad*%
%ADD18O,2.000000X1.905000*%
%TD*%
%TA.AperFunction,ComponentPad*%
%ADD19R,2.400000X2.400000*%
%TD*%
%TA.AperFunction,ComponentPad*%
%ADD20C,2.400000*%
%TD*%
%TA.AperFunction,ComponentPad*%
%ADD21R,2.400000X1.600000*%
%TD*%
%TA.AperFunction,ComponentPad*%
%ADD22O,2.400000X1.600000*%
%TD*%
%TA.AperFunction,ComponentPad*%
%ADD23O,1.600000X1.600000*%
%TD*%
%TA.AperFunction,ComponentPad*%
%ADD24R,3.500000X3.500000*%
%TD*%
%TA.AperFunction,ComponentPad*%
%ADD25RoundRect,0.750000X-0.750000X-1.000000X0.750000X-1.000000X0.750000X1.000000X-0.750000X1.000000X0*%
%TD*%
%TA.AperFunction,ComponentPad*%
%ADD26RoundRect,0.875000X-0.875000X-0.875000X0.875000X-0.875000X0.875000X0.875000X-0.875000X0.875000X0*%
%TD*%
%TA.AperFunction,ViaPad*%
%ADD27C,0.800000*%
%TD*%
G04 APERTURE END LIST*
D10*
%TO.P,J5,1,Pin_1*%
%TO.N,OUT-*%
X139458000Y-123291600D03*
%TO.P,J5,2,Pin_2*%
%TO.N,MID_GND*%
X141998000Y-123291600D03*
%TD*%
D11*
%TO.P,J10,6,Shield*%
%TO.N,unconnected-(J10-Pad6)*%
X141325000Y-47200000D03*
X148475000Y-47200000D03*
%TD*%
D10*
%TO.P,J8,1,Pin_1*%
%TO.N,MID_GND*%
X189738000Y-128371600D03*
%TO.P,J8,2,Pin_2*%
%TO.N,Input*%
X192278000Y-128371600D03*
%TD*%
%TO.P,J6,1,Pin_1*%
%TO.N,MID_GND*%
X189738000Y-125831600D03*
%TO.P,J6,2,Pin_2*%
%TO.N,Input*%
X192278000Y-125831600D03*
%TD*%
D12*
%TO.P,C1,1*%
%TO.N,Net-(C1-Pad1)*%
X140250000Y-72500000D03*
%TO.P,C1,2*%
%TO.N,OUT-*%
X142750000Y-72500000D03*
%TD*%
D13*
%TO.P,C3,1*%
%TO.N,Input*%
X175367677Y-120500000D03*
D14*
%TO.P,C3,2*%
%TO.N,MID_GND*%
X170367677Y-120500000D03*
%TD*%
D15*
%TO.P,D1,1,K*%
%TO.N,Net-(C2-Pad1)*%
X154000000Y-65150000D03*
D16*
%TO.P,D1,2,A*%
%TO.N,5V*%
X154000000Y-52450000D03*
%TD*%
D17*
%TO.P,Q2,1,B*%
%TO.N,Net-(Q2-Pad1)*%
X188055000Y-96960000D03*
D18*
%TO.P,Q2,2,C*%
%TO.N,Input*%
X188055000Y-99500000D03*
%TO.P,Q2,3,E*%
%TO.N,MID_GND*%
X188055000Y-102040000D03*
%TD*%
D19*
%TO.P,C2,1*%
%TO.N,Net-(C2-Pad1)*%
X146000000Y-104000000D03*
D20*
%TO.P,C2,2*%
%TO.N,OUT-*%
X141000000Y-104000000D03*
%TD*%
D10*
%TO.P,J2,1,Pin_1*%
%TO.N,MID_GND*%
X189738000Y-120751600D03*
%TO.P,J2,2,Pin_2*%
%TO.N,Input*%
X192278000Y-120751600D03*
%TD*%
%TO.P,J9,1,Pin_1*%
%TO.N,OUT-*%
X139458000Y-128371600D03*
%TO.P,J9,2,Pin_2*%
%TO.N,MID_GND*%
X141998000Y-128371600D03*
%TD*%
D21*
%TO.P,U3,1,NULL*%
%TO.N,unconnected-(U3-Pad1)*%
X161966600Y-99416000D03*
D22*
%TO.P,U3,2,-*%
%TO.N,MID_GND*%
X161966600Y-101956000D03*
%TO.P,U3,3,+*%
%TO.N,Net-(R1-Pad2)*%
X161966600Y-104496000D03*
%TO.P,U3,4,V-*%
%TO.N,OUT-*%
X161966600Y-107036000D03*
%TO.P,U3,5,NULL*%
%TO.N,unconnected-(U3-Pad5)*%
X169586600Y-107036000D03*
%TO.P,U3,6*%
%TO.N,Net-(Q2-Pad1)*%
X169586600Y-104496000D03*
%TO.P,U3,7,V+*%
%TO.N,Input*%
X169586600Y-101956000D03*
%TO.P,U3,8,NC*%
%TO.N,unconnected-(U3-Pad8)*%
X169586600Y-99416000D03*
%TD*%
D10*
%TO.P,J4,1,Pin_1*%
%TO.N,MID_GND*%
X189738000Y-123291600D03*
%TO.P,J4,2,Pin_2*%
%TO.N,Input*%
X192278000Y-123291600D03*
%TD*%
%TO.P,J3,1,Pin_1*%
%TO.N,OUT-*%
X139458000Y-120751600D03*
%TO.P,J3,2,Pin_2*%
%TO.N,MID_GND*%
X141998000Y-120751600D03*
%TD*%
D17*
%TO.P,Q3,1,B*%
%TO.N,Net-(Q2-Pad1)*%
X188000000Y-110000000D03*
D18*
%TO.P,Q3,2,C*%
%TO.N,OUT-*%
X188000000Y-112540000D03*
%TO.P,Q3,3,E*%
%TO.N,MID_GND*%
X188000000Y-115080000D03*
%TD*%
D13*
%TO.P,C4,1*%
%TO.N,MID_GND*%
X159767677Y-120600000D03*
D14*
%TO.P,C4,2*%
%TO.N,OUT-*%
X154767677Y-120600000D03*
%TD*%
D12*
%TO.P,R2,1*%
%TO.N,Net-(R1-Pad2)*%
X156262800Y-97056400D03*
D23*
%TO.P,R2,2*%
%TO.N,OUT-*%
X156262800Y-109756400D03*
%TD*%
D17*
%TO.P,Q1,1,G*%
%TO.N,OUT-*%
X142646400Y-85598000D03*
D18*
%TO.P,Q1,2,D*%
%TO.N,Net-(C1-Pad1)*%
X142646400Y-83058000D03*
%TO.P,Q1,3,S*%
%TO.N,Net-(C2-Pad1)*%
X142646400Y-80518000D03*
%TD*%
D12*
%TO.P,R1,1*%
%TO.N,Input*%
X174500000Y-96650000D03*
D23*
%TO.P,R1,2*%
%TO.N,Net-(R1-Pad2)*%
X174500000Y-109350000D03*
%TD*%
D10*
%TO.P,J7,1,Pin_1*%
%TO.N,OUT-*%
X139458000Y-125831600D03*
%TO.P,J7,2,Pin_2*%
%TO.N,MID_GND*%
X141998000Y-125831600D03*
%TD*%
D24*
%TO.P,J1,1*%
%TO.N,Net-(C1-Pad1)*%
X148400000Y-58842500D03*
D25*
%TO.P,J1,2*%
%TO.N,OUT-*%
X142400000Y-58842500D03*
D26*
%TO.P,J1,3*%
%TO.N,N/C*%
X145400000Y-63542500D03*
%TD*%
D27*
%TO.N,OUT-*%
X137600000Y-120800000D03*
X141000000Y-106000000D03*
X139200000Y-130600000D03*
X139000000Y-104000000D03*
X137600000Y-128400000D03*
X140600000Y-85800000D03*
X171600000Y-78800000D03*
X190600000Y-53400000D03*
X194000000Y-48400000D03*
X194200000Y-53400000D03*
X143600000Y-51500000D03*
X137600000Y-123400000D03*
X144400000Y-72600000D03*
X192400000Y-53400000D03*
X161200000Y-53200000D03*
X160000000Y-53200000D03*
X192200000Y-48400000D03*
X190600000Y-48400000D03*
X188800000Y-50000000D03*
X169800000Y-80400000D03*
X143000000Y-70400000D03*
X158600000Y-48600000D03*
X139400000Y-118800000D03*
X161600000Y-48600000D03*
X163800000Y-51800000D03*
X142800000Y-74400000D03*
X171800000Y-82000000D03*
X160000000Y-48600000D03*
X173600000Y-80200000D03*
X142600000Y-87800000D03*
X137400000Y-125800000D03*
X141000000Y-102000000D03*
X163800000Y-49800000D03*
X188800000Y-51400000D03*
X158600000Y-53200000D03*
%TO.N,MID_GND*%
X164200000Y-117200000D03*
X172400000Y-128000000D03*
X163600000Y-111000000D03*
X172600000Y-129600000D03*
X165800000Y-111000000D03*
X170600000Y-128000000D03*
X170600000Y-129600000D03*
X178400000Y-129200000D03*
X166200000Y-117200000D03*
X178200000Y-127800000D03*
X180200000Y-129200000D03*
X161600000Y-111000000D03*
X162400000Y-117200000D03*
X180000000Y-127800000D03*
%TD*%
%TA.AperFunction,Conductor*%
%TO.N,MID_GND*%
G36*
X188804487Y-118900321D02*
G01*
X188853871Y-118903853D01*
X189075650Y-118919715D01*
X189093433Y-118922272D01*
X189354658Y-118979098D01*
X189371900Y-118984160D01*
X189622393Y-119077589D01*
X189638740Y-119085055D01*
X189873375Y-119213176D01*
X189888498Y-119222895D01*
X189947150Y-119266801D01*
X189989697Y-119323636D01*
X189994761Y-119394452D01*
X189992000Y-119407144D01*
X189992000Y-119431457D01*
X189986967Y-119465537D01*
X189986619Y-119466421D01*
X189960735Y-119587156D01*
X189944359Y-119663546D01*
X189934897Y-119707680D01*
X189927500Y-119822068D01*
X189927500Y-121681132D01*
X189934897Y-121795520D01*
X189935864Y-121800032D01*
X189935865Y-121800037D01*
X189977703Y-121995188D01*
X189977703Y-122048011D01*
X189967165Y-122097165D01*
X189944359Y-122203546D01*
X189934897Y-122247680D01*
X189927500Y-122362068D01*
X189927500Y-124221132D01*
X189934897Y-124335520D01*
X189935864Y-124340032D01*
X189935865Y-124340037D01*
X189977703Y-124535188D01*
X189977703Y-124588011D01*
X189967165Y-124637165D01*
X189944359Y-124743546D01*
X189934897Y-124787680D01*
X189927500Y-124902068D01*
X189927500Y-126761132D01*
X189934897Y-126875520D01*
X189935864Y-126880032D01*
X189935865Y-126880037D01*
X189977703Y-127075188D01*
X189977703Y-127128011D01*
X189967165Y-127177165D01*
X189944359Y-127283546D01*
X189934897Y-127327680D01*
X189927500Y-127442068D01*
X189927500Y-129301132D01*
X189934897Y-129415520D01*
X189935864Y-129420032D01*
X189935865Y-129420037D01*
X189947702Y-129475249D01*
X189986619Y-129656779D01*
X189986967Y-129657663D01*
X189992000Y-129691743D01*
X189992000Y-129711484D01*
X189996475Y-129726723D01*
X189999959Y-129729742D01*
X190034680Y-129778788D01*
X190077049Y-129886350D01*
X190203761Y-130098069D01*
X190363350Y-130286250D01*
X190435115Y-130347111D01*
X190474130Y-130406423D01*
X190474885Y-130477416D01*
X190454486Y-130518714D01*
X190316897Y-130702510D01*
X190305124Y-130716096D01*
X190116096Y-130905124D01*
X190102510Y-130916897D01*
X189888498Y-131077105D01*
X189873375Y-131086824D01*
X189698145Y-131182507D01*
X189690240Y-131186824D01*
X189638740Y-131214945D01*
X189622393Y-131222411D01*
X189371900Y-131315840D01*
X189354658Y-131320902D01*
X189093433Y-131377728D01*
X189075650Y-131380285D01*
X188853871Y-131396147D01*
X188804487Y-131399679D01*
X188795499Y-131400000D01*
X159185632Y-131400000D01*
X158977607Y-131322411D01*
X158961260Y-131314945D01*
X158726625Y-131186824D01*
X158711502Y-131177105D01*
X158497490Y-131016897D01*
X158483904Y-131005124D01*
X158294876Y-130816096D01*
X158283103Y-130802510D01*
X158236260Y-130739935D01*
X158986996Y-129266269D01*
X188380001Y-129266269D01*
X188380371Y-129273090D01*
X188385895Y-129323952D01*
X188389521Y-129339204D01*
X188434676Y-129459654D01*
X188443214Y-129475249D01*
X188519715Y-129577324D01*
X188532276Y-129589885D01*
X188634351Y-129666386D01*
X188649946Y-129674924D01*
X188770394Y-129720078D01*
X188785649Y-129723705D01*
X188836514Y-129729231D01*
X188843328Y-129729600D01*
X189465885Y-129729600D01*
X189481124Y-129725125D01*
X189482329Y-129723735D01*
X189484000Y-129716052D01*
X189484000Y-128643715D01*
X189479525Y-128628476D01*
X189478135Y-128627271D01*
X189470452Y-128625600D01*
X188398116Y-128625600D01*
X188382877Y-128630075D01*
X188381672Y-128631465D01*
X188380001Y-128639148D01*
X188380001Y-129266269D01*
X158986996Y-129266269D01*
X159581395Y-128099485D01*
X188380000Y-128099485D01*
X188384475Y-128114724D01*
X188385865Y-128115929D01*
X188393548Y-128117600D01*
X189465885Y-128117600D01*
X189481124Y-128113125D01*
X189482329Y-128111735D01*
X189484000Y-128104052D01*
X189484000Y-126103715D01*
X189479525Y-126088476D01*
X189478135Y-126087271D01*
X189470452Y-126085600D01*
X188398116Y-126085600D01*
X188382877Y-126090075D01*
X188381672Y-126091465D01*
X188380001Y-126099148D01*
X188380001Y-126726269D01*
X188380371Y-126733090D01*
X188385895Y-126783952D01*
X188389521Y-126799204D01*
X188434676Y-126919654D01*
X188443211Y-126935244D01*
X188511255Y-127026035D01*
X188536102Y-127092542D01*
X188521049Y-127161924D01*
X188511255Y-127177165D01*
X188443211Y-127267956D01*
X188434676Y-127283546D01*
X188389522Y-127403994D01*
X188385895Y-127419249D01*
X188380369Y-127470114D01*
X188380000Y-127476928D01*
X188380000Y-128099485D01*
X159581395Y-128099485D01*
X160600000Y-126100000D01*
X184000000Y-126100000D01*
X184400000Y-125600000D01*
X184400000Y-125559485D01*
X188380000Y-125559485D01*
X188384475Y-125574724D01*
X188385865Y-125575929D01*
X188393548Y-125577600D01*
X189465885Y-125577600D01*
X189481124Y-125573125D01*
X189482329Y-125571735D01*
X189484000Y-125564052D01*
X189484000Y-123563715D01*
X189479525Y-123548476D01*
X189478135Y-123547271D01*
X189470452Y-123545600D01*
X188398116Y-123545600D01*
X188382877Y-123550075D01*
X188381672Y-123551465D01*
X188380001Y-123559148D01*
X188380001Y-124186269D01*
X188380371Y-124193090D01*
X188385895Y-124243952D01*
X188389521Y-124259204D01*
X188434676Y-124379654D01*
X188443211Y-124395244D01*
X188511255Y-124486035D01*
X188536102Y-124552542D01*
X188521049Y-124621924D01*
X188511255Y-124637165D01*
X188443211Y-124727956D01*
X188434676Y-124743546D01*
X188389522Y-124863994D01*
X188385895Y-124879249D01*
X188380369Y-124930114D01*
X188380000Y-124936928D01*
X188380000Y-125559485D01*
X184400000Y-125559485D01*
X184400000Y-123019485D01*
X188380000Y-123019485D01*
X188384475Y-123034724D01*
X188385865Y-123035929D01*
X188393548Y-123037600D01*
X189465885Y-123037600D01*
X189481124Y-123033125D01*
X189482329Y-123031735D01*
X189484000Y-123024052D01*
X189484000Y-121023715D01*
X189479525Y-121008476D01*
X189478135Y-121007271D01*
X189470452Y-121005600D01*
X188398116Y-121005600D01*
X188382877Y-121010075D01*
X188381672Y-121011465D01*
X188380001Y-121019148D01*
X188380001Y-121646269D01*
X188380371Y-121653090D01*
X188385895Y-121703952D01*
X188389521Y-121719204D01*
X188434676Y-121839654D01*
X188443211Y-121855244D01*
X188511255Y-121946035D01*
X188536102Y-122012542D01*
X188521049Y-122081924D01*
X188511255Y-122097165D01*
X188443211Y-122187956D01*
X188434676Y-122203546D01*
X188389522Y-122323994D01*
X188385895Y-122339249D01*
X188380369Y-122390114D01*
X188380000Y-122396928D01*
X188380000Y-123019485D01*
X184400000Y-123019485D01*
X184400000Y-120986665D01*
X184400350Y-120977281D01*
X184421484Y-120694289D01*
X184424271Y-120675730D01*
X184468903Y-120479485D01*
X188380000Y-120479485D01*
X188384475Y-120494724D01*
X188385865Y-120495929D01*
X188393548Y-120497600D01*
X189465885Y-120497600D01*
X189481124Y-120493125D01*
X189482329Y-120491735D01*
X189484000Y-120484052D01*
X189484000Y-119411715D01*
X189479525Y-119396476D01*
X189478135Y-119395271D01*
X189470452Y-119393600D01*
X188843331Y-119393601D01*
X188836510Y-119393971D01*
X188785648Y-119399495D01*
X188770396Y-119403121D01*
X188649946Y-119448276D01*
X188634351Y-119456814D01*
X188532276Y-119533315D01*
X188519715Y-119545876D01*
X188443214Y-119647951D01*
X188434676Y-119663546D01*
X188389522Y-119783994D01*
X188385895Y-119799249D01*
X188380369Y-119850114D01*
X188380000Y-119856928D01*
X188380000Y-120479485D01*
X184468903Y-120479485D01*
X184486161Y-120403601D01*
X184491675Y-120385662D01*
X184519176Y-120315323D01*
X184593297Y-120125748D01*
X184601407Y-120108841D01*
X184740513Y-119866894D01*
X184751052Y-119851368D01*
X184752047Y-119850114D01*
X184927480Y-119629078D01*
X184933567Y-119621970D01*
X184965702Y-119587156D01*
X185003120Y-119546621D01*
X185009211Y-119540462D01*
X185199649Y-119360690D01*
X185213031Y-119349695D01*
X185422790Y-119200252D01*
X185437552Y-119191195D01*
X185665825Y-119071926D01*
X185681691Y-119064980D01*
X185747257Y-119041498D01*
X185924160Y-118978143D01*
X185940819Y-118973440D01*
X186039794Y-118952723D01*
X186192908Y-118920673D01*
X186210063Y-118918298D01*
X186471336Y-118900298D01*
X186479996Y-118900000D01*
X188795499Y-118900000D01*
X188804487Y-118900321D01*
G37*
%TD.AperFunction*%
%TD*%
%TA.AperFunction,Conductor*%
%TO.N,MID_GND*%
G36*
X164904487Y-100900321D02*
G01*
X164953871Y-100903853D01*
X165175650Y-100919715D01*
X165193433Y-100922272D01*
X165454658Y-100979098D01*
X165471900Y-100984160D01*
X165722393Y-101077589D01*
X165738740Y-101085055D01*
X165973375Y-101213176D01*
X165988498Y-101222895D01*
X166202510Y-101383103D01*
X166216096Y-101394876D01*
X166405124Y-101583904D01*
X166416897Y-101597490D01*
X166577105Y-101811502D01*
X166586824Y-101826625D01*
X166714945Y-102061260D01*
X166722411Y-102077607D01*
X166778317Y-102227497D01*
X166815839Y-102328097D01*
X166820902Y-102345342D01*
X166877728Y-102606567D01*
X166880285Y-102624350D01*
X166896147Y-102846129D01*
X166899679Y-102895513D01*
X166900000Y-102904501D01*
X166900000Y-109000000D01*
X170795499Y-109000000D01*
X170804487Y-109000321D01*
X170853871Y-109003853D01*
X171075650Y-109019715D01*
X171093433Y-109022272D01*
X171354658Y-109079098D01*
X171371900Y-109084160D01*
X171622393Y-109177589D01*
X171638738Y-109185054D01*
X171666635Y-109200287D01*
X171873375Y-109313176D01*
X171888498Y-109322895D01*
X172102510Y-109483103D01*
X172116096Y-109494876D01*
X172305124Y-109683904D01*
X172316897Y-109697490D01*
X172477105Y-109911502D01*
X172486824Y-109926625D01*
X172614945Y-110161260D01*
X172622411Y-110177607D01*
X172702345Y-110391918D01*
X172715839Y-110428097D01*
X172720902Y-110445342D01*
X172777728Y-110706567D01*
X172780286Y-110724355D01*
X172799679Y-110995513D01*
X172800000Y-111004501D01*
X172800000Y-129495499D01*
X172799679Y-129504487D01*
X172780286Y-129775645D01*
X172777728Y-129793433D01*
X172720903Y-130054654D01*
X172715840Y-130071900D01*
X172622411Y-130322393D01*
X172614945Y-130338740D01*
X172486824Y-130573375D01*
X172477105Y-130588498D01*
X172316897Y-130802510D01*
X172305124Y-130816096D01*
X172116096Y-131005124D01*
X172102510Y-131016897D01*
X171888498Y-131177105D01*
X171873375Y-131186824D01*
X171638740Y-131314945D01*
X171622393Y-131322411D01*
X171371900Y-131415840D01*
X171354658Y-131420902D01*
X171093433Y-131477728D01*
X171075650Y-131480285D01*
X170853871Y-131496147D01*
X170804487Y-131499679D01*
X170795499Y-131500000D01*
X159804501Y-131500000D01*
X159795513Y-131499679D01*
X159746129Y-131496147D01*
X159524350Y-131480285D01*
X159506567Y-131477728D01*
X159245342Y-131420902D01*
X159228100Y-131415840D01*
X158977607Y-131322411D01*
X158961260Y-131314945D01*
X158726625Y-131186824D01*
X158711502Y-131177105D01*
X158497490Y-131016897D01*
X158483904Y-131005124D01*
X158294876Y-130816096D01*
X158283103Y-130802510D01*
X158122895Y-130588498D01*
X158113176Y-130573375D01*
X157985055Y-130338740D01*
X157977589Y-130322393D01*
X157884160Y-130071900D01*
X157879097Y-130054654D01*
X157822272Y-129793433D01*
X157819714Y-129775645D01*
X157800321Y-129504487D01*
X157800000Y-129495499D01*
X157800000Y-121644669D01*
X158259678Y-121644669D01*
X158260048Y-121651490D01*
X158265572Y-121702352D01*
X158269198Y-121717604D01*
X158314353Y-121838054D01*
X158322891Y-121853649D01*
X158399392Y-121955724D01*
X158411953Y-121968285D01*
X158514028Y-122044786D01*
X158529623Y-122053324D01*
X158650071Y-122098478D01*
X158665326Y-122102105D01*
X158716191Y-122107631D01*
X158723005Y-122108000D01*
X159495562Y-122108000D01*
X159510801Y-122103525D01*
X159512006Y-122102135D01*
X159513677Y-122094452D01*
X159513677Y-122089884D01*
X160021677Y-122089884D01*
X160026152Y-122105123D01*
X160027542Y-122106328D01*
X160035225Y-122107999D01*
X160812346Y-122107999D01*
X160819167Y-122107629D01*
X160870029Y-122102105D01*
X160885281Y-122098479D01*
X161005731Y-122053324D01*
X161021326Y-122044786D01*
X161123401Y-121968285D01*
X161135962Y-121955724D01*
X161212463Y-121853649D01*
X161221001Y-121838054D01*
X161260508Y-121732670D01*
X169499837Y-121732670D01*
X169505564Y-121740320D01*
X169676719Y-121845205D01*
X169685514Y-121849687D01*
X169895665Y-121936734D01*
X169905050Y-121939783D01*
X170126231Y-121992885D01*
X170135978Y-121994428D01*
X170362747Y-122012275D01*
X170372607Y-122012275D01*
X170599376Y-121994428D01*
X170609123Y-121992885D01*
X170830304Y-121939783D01*
X170839689Y-121936734D01*
X171049840Y-121849687D01*
X171058635Y-121845205D01*
X171226122Y-121742568D01*
X171235584Y-121732110D01*
X171231801Y-121723334D01*
X170380489Y-120872022D01*
X170366545Y-120864408D01*
X170364712Y-120864539D01*
X170358097Y-120868790D01*
X169506597Y-121720290D01*
X169499837Y-121732670D01*
X161260508Y-121732670D01*
X161266155Y-121717606D01*
X161269782Y-121702351D01*
X161275308Y-121651486D01*
X161275677Y-121644672D01*
X161275677Y-120872115D01*
X161271202Y-120856876D01*
X161269812Y-120855671D01*
X161262129Y-120854000D01*
X160039792Y-120854000D01*
X160024553Y-120858475D01*
X160023348Y-120859865D01*
X160021677Y-120867548D01*
X160021677Y-122089884D01*
X159513677Y-122089884D01*
X159513677Y-120872115D01*
X159509202Y-120856876D01*
X159507812Y-120855671D01*
X159500129Y-120854000D01*
X158277793Y-120854000D01*
X158262554Y-120858475D01*
X158261349Y-120859865D01*
X158259678Y-120867548D01*
X158259678Y-121644669D01*
X157800000Y-121644669D01*
X157800000Y-120504930D01*
X168855402Y-120504930D01*
X168873249Y-120731699D01*
X168874792Y-120741446D01*
X168927894Y-120962627D01*
X168930943Y-120972012D01*
X169017990Y-121182163D01*
X169022472Y-121190958D01*
X169125109Y-121358445D01*
X169135567Y-121367907D01*
X169144343Y-121364124D01*
X169995655Y-120512812D01*
X170002033Y-120501132D01*
X170732085Y-120501132D01*
X170732216Y-120502965D01*
X170736467Y-120509580D01*
X171587967Y-121361080D01*
X171600347Y-121367840D01*
X171607997Y-121362113D01*
X171712882Y-121190958D01*
X171717364Y-121182163D01*
X171804411Y-120972012D01*
X171807460Y-120962627D01*
X171860562Y-120741446D01*
X171862105Y-120731699D01*
X171879952Y-120504930D01*
X171879952Y-120495070D01*
X171862105Y-120268301D01*
X171860562Y-120258554D01*
X171807460Y-120037373D01*
X171804411Y-120027988D01*
X171717364Y-119817837D01*
X171712882Y-119809042D01*
X171610245Y-119641555D01*
X171599787Y-119632093D01*
X171591011Y-119635876D01*
X170739699Y-120487188D01*
X170732085Y-120501132D01*
X170002033Y-120501132D01*
X170003269Y-120498868D01*
X170003138Y-120497035D01*
X169998887Y-120490420D01*
X169147387Y-119638920D01*
X169135007Y-119632160D01*
X169127357Y-119637887D01*
X169022472Y-119809042D01*
X169017990Y-119817837D01*
X168930943Y-120027988D01*
X168927894Y-120037373D01*
X168874792Y-120258554D01*
X168873249Y-120268301D01*
X168855402Y-120495070D01*
X168855402Y-120504930D01*
X157800000Y-120504930D01*
X157800000Y-120327885D01*
X158259677Y-120327885D01*
X158264152Y-120343124D01*
X158265542Y-120344329D01*
X158273225Y-120346000D01*
X159495562Y-120346000D01*
X159510801Y-120341525D01*
X159512006Y-120340135D01*
X159513677Y-120332452D01*
X159513677Y-120327885D01*
X160021677Y-120327885D01*
X160026152Y-120343124D01*
X160027542Y-120344329D01*
X160035225Y-120346000D01*
X161257561Y-120346000D01*
X161272800Y-120341525D01*
X161274005Y-120340135D01*
X161275676Y-120332452D01*
X161275676Y-119555331D01*
X161275306Y-119548510D01*
X161269782Y-119497648D01*
X161266156Y-119482396D01*
X161221001Y-119361946D01*
X161212463Y-119346351D01*
X161153660Y-119267890D01*
X169499770Y-119267890D01*
X169503553Y-119276666D01*
X170354865Y-120127978D01*
X170368809Y-120135592D01*
X170370642Y-120135461D01*
X170377257Y-120131210D01*
X171228757Y-119279710D01*
X171235517Y-119267330D01*
X171229790Y-119259680D01*
X171058635Y-119154795D01*
X171049840Y-119150313D01*
X170839689Y-119063266D01*
X170830304Y-119060217D01*
X170609123Y-119007115D01*
X170599376Y-119005572D01*
X170372607Y-118987725D01*
X170362747Y-118987725D01*
X170135978Y-119005572D01*
X170126231Y-119007115D01*
X169905050Y-119060217D01*
X169895665Y-119063266D01*
X169685514Y-119150313D01*
X169676719Y-119154795D01*
X169509232Y-119257432D01*
X169499770Y-119267890D01*
X161153660Y-119267890D01*
X161135962Y-119244276D01*
X161123401Y-119231715D01*
X161021326Y-119155214D01*
X161005731Y-119146676D01*
X160885283Y-119101522D01*
X160870028Y-119097895D01*
X160819163Y-119092369D01*
X160812349Y-119092000D01*
X160039792Y-119092000D01*
X160024553Y-119096475D01*
X160023348Y-119097865D01*
X160021677Y-119105548D01*
X160021677Y-120327885D01*
X159513677Y-120327885D01*
X159513677Y-119110116D01*
X159509202Y-119094877D01*
X159507812Y-119093672D01*
X159500129Y-119092001D01*
X158723008Y-119092001D01*
X158716187Y-119092371D01*
X158665325Y-119097895D01*
X158650073Y-119101521D01*
X158529623Y-119146676D01*
X158514028Y-119155214D01*
X158411953Y-119231715D01*
X158399392Y-119244276D01*
X158322891Y-119346351D01*
X158314353Y-119361946D01*
X158269199Y-119482394D01*
X158265572Y-119497649D01*
X158260046Y-119548514D01*
X158259677Y-119555328D01*
X158259677Y-120327885D01*
X157800000Y-120327885D01*
X157800000Y-113957078D01*
X157800792Y-113942970D01*
X157819722Y-113774962D01*
X157826001Y-113747455D01*
X157879487Y-113594600D01*
X157891729Y-113569179D01*
X157977891Y-113432053D01*
X157995483Y-113409994D01*
X158109994Y-113295483D01*
X158132053Y-113277891D01*
X158269179Y-113191729D01*
X158294600Y-113179487D01*
X158447455Y-113126001D01*
X158474962Y-113119722D01*
X158599680Y-113105670D01*
X158642971Y-113100792D01*
X158657078Y-113100000D01*
X159500000Y-113100000D01*
X160200000Y-112700000D01*
X160200000Y-110645966D01*
X160200505Y-110634691D01*
X160220323Y-110414105D01*
X160224343Y-110391918D01*
X160281655Y-110183877D01*
X160289566Y-110162759D01*
X160290287Y-110161260D01*
X160383046Y-109968265D01*
X160394594Y-109948896D01*
X160521247Y-109774176D01*
X160536063Y-109757176D01*
X160598316Y-109697490D01*
X160692842Y-109606862D01*
X160708140Y-109594344D01*
X160895150Y-109464400D01*
X160909723Y-109455668D01*
X160924283Y-109448229D01*
X161113765Y-109351425D01*
X161129371Y-109344739D01*
X161345575Y-109268900D01*
X161361949Y-109264370D01*
X161474166Y-109241339D01*
X161586387Y-109218307D01*
X161603220Y-109216022D01*
X161836065Y-109200287D01*
X161844560Y-109200000D01*
X164200000Y-109200000D01*
X164227667Y-107567685D01*
X164268610Y-105152007D01*
X164300000Y-103300000D01*
X163712595Y-103300000D01*
X163620840Y-103197197D01*
X163415088Y-103026075D01*
X163385072Y-103007861D01*
X163337213Y-102955424D01*
X163325299Y-102885434D01*
X163353117Y-102820114D01*
X163361343Y-102811048D01*
X163368516Y-102803875D01*
X163375572Y-102795467D01*
X163500531Y-102617007D01*
X163506014Y-102607511D01*
X163598090Y-102410053D01*
X163601836Y-102399761D01*
X163647994Y-102227497D01*
X163647658Y-102213401D01*
X163639716Y-102210000D01*
X161838600Y-102210000D01*
X161770479Y-102189998D01*
X161723986Y-102136342D01*
X161712600Y-102084000D01*
X161712600Y-101828000D01*
X161732602Y-101759879D01*
X161786258Y-101713386D01*
X161838600Y-101702000D01*
X163634567Y-101702000D01*
X163648098Y-101698027D01*
X163649327Y-101689478D01*
X163601836Y-101512239D01*
X163598090Y-101501947D01*
X163505558Y-101303513D01*
X163494897Y-101233322D01*
X163523877Y-101168509D01*
X163561377Y-101138602D01*
X163720196Y-101055573D01*
X163739763Y-101039615D01*
X163876180Y-100928357D01*
X163941611Y-100900803D01*
X163955815Y-100900000D01*
X164895499Y-100900000D01*
X164904487Y-100900321D01*
G37*
%TD.AperFunction*%
%TD*%
%TA.AperFunction,Conductor*%
%TO.N,OUT-*%
G36*
X196229037Y-45428502D02*
G01*
X196236425Y-45433632D01*
X196302509Y-45483102D01*
X196316095Y-45494875D01*
X196454595Y-45633375D01*
X196488621Y-45695687D01*
X196491500Y-45722470D01*
X196491500Y-136677530D01*
X196471498Y-136745651D01*
X196454595Y-136766625D01*
X196366625Y-136854595D01*
X196304313Y-136888621D01*
X196277530Y-136891500D01*
X135122470Y-136891500D01*
X135054349Y-136871498D01*
X135033375Y-136854595D01*
X134945405Y-136766625D01*
X134911379Y-136704313D01*
X134908500Y-136677530D01*
X134908500Y-130711648D01*
X156731026Y-130711648D01*
X156746899Y-130959787D01*
X156803399Y-131201930D01*
X156805404Y-131206745D01*
X156894693Y-131421167D01*
X156898983Y-131431470D01*
X157031045Y-131642147D01*
X157077888Y-131704722D01*
X157145350Y-131788435D01*
X157146106Y-131789308D01*
X157146109Y-131789311D01*
X157156378Y-131801162D01*
X157156395Y-131801181D01*
X157157123Y-131802021D01*
X157230327Y-131880645D01*
X157419355Y-132069673D01*
X157497979Y-132142877D01*
X157498819Y-132143605D01*
X157498838Y-132143622D01*
X157508316Y-132151834D01*
X157511565Y-132154650D01*
X157512392Y-132155317D01*
X157512407Y-132155329D01*
X157586019Y-132214650D01*
X157595275Y-132222110D01*
X157809287Y-132382318D01*
X157897565Y-132443611D01*
X157898496Y-132444209D01*
X157898500Y-132444212D01*
X157911771Y-132452741D01*
X157911784Y-132452749D01*
X157912688Y-132453330D01*
X158005113Y-132508168D01*
X158006085Y-132508699D01*
X158006103Y-132508709D01*
X158112332Y-132566714D01*
X158239748Y-132636289D01*
X158240761Y-132636796D01*
X158240778Y-132636805D01*
X158334808Y-132683875D01*
X158335813Y-132684378D01*
X158336808Y-132684833D01*
X158336828Y-132684842D01*
X158342653Y-132687502D01*
X158352160Y-132691844D01*
X158451491Y-132732990D01*
X158452530Y-132733378D01*
X158452549Y-132733385D01*
X158659137Y-132810438D01*
X158659185Y-132810456D01*
X158659516Y-132810579D01*
X158659846Y-132810697D01*
X158659903Y-132810718D01*
X158684771Y-132819622D01*
X158696797Y-132823928D01*
X158699733Y-132824672D01*
X158699738Y-132824673D01*
X158925447Y-132881830D01*
X158937835Y-132884967D01*
X158943026Y-132885397D01*
X158943031Y-132885398D01*
X159183031Y-132905285D01*
X159183044Y-132905286D01*
X159185632Y-132905500D01*
X188795499Y-132905500D01*
X188849233Y-132904541D01*
X188849706Y-132904524D01*
X188849749Y-132904523D01*
X188853407Y-132904392D01*
X188858221Y-132904220D01*
X188858796Y-132904189D01*
X188858800Y-132904189D01*
X188911354Y-132901372D01*
X188911394Y-132901369D01*
X188911888Y-132901343D01*
X189158765Y-132883686D01*
X189181947Y-132882028D01*
X189181949Y-132882028D01*
X189183051Y-132881949D01*
X189266471Y-132872980D01*
X189288778Y-132870582D01*
X189288784Y-132870581D01*
X189289921Y-132870459D01*
X189296708Y-132869483D01*
X189306580Y-132868064D01*
X189306601Y-132868061D01*
X189307704Y-132867902D01*
X189413450Y-132848823D01*
X189674675Y-132791997D01*
X189696119Y-132786524D01*
X189777672Y-132765711D01*
X189777691Y-132765706D01*
X189778752Y-132765435D01*
X189795994Y-132760373D01*
X189898018Y-132726418D01*
X189899016Y-132726046D01*
X189899038Y-132726038D01*
X190147453Y-132633384D01*
X190147472Y-132633377D01*
X190148511Y-132632989D01*
X190247840Y-132591844D01*
X190257347Y-132587502D01*
X190263172Y-132584842D01*
X190263192Y-132584833D01*
X190264187Y-132584378D01*
X190265192Y-132583875D01*
X190359222Y-132536805D01*
X190359239Y-132536796D01*
X190360252Y-132536289D01*
X190511161Y-132453886D01*
X190593897Y-132408709D01*
X190593915Y-132408699D01*
X190594887Y-132408168D01*
X190687312Y-132353330D01*
X190688216Y-132352749D01*
X190688229Y-132352741D01*
X190701500Y-132344212D01*
X190701504Y-132344209D01*
X190702435Y-132343611D01*
X190790713Y-132282318D01*
X191004725Y-132122110D01*
X191013981Y-132114650D01*
X191087593Y-132055329D01*
X191087608Y-132055317D01*
X191088435Y-132054650D01*
X191091684Y-132051834D01*
X191101162Y-132043622D01*
X191101181Y-132043605D01*
X191102021Y-132042877D01*
X191180645Y-131969673D01*
X191369673Y-131780645D01*
X191442877Y-131702021D01*
X191443605Y-131701181D01*
X191443622Y-131701162D01*
X191453904Y-131689296D01*
X191453907Y-131689293D01*
X191454650Y-131688435D01*
X191490278Y-131644226D01*
X191521404Y-131605602D01*
X191521408Y-131605597D01*
X191522109Y-131604727D01*
X191522767Y-131603848D01*
X191522781Y-131603830D01*
X191648502Y-131435887D01*
X191659698Y-131420931D01*
X191676148Y-131398528D01*
X191804299Y-131185449D01*
X191805457Y-131183105D01*
X191823733Y-131146106D01*
X191823740Y-131146090D01*
X191824698Y-131144151D01*
X191903931Y-130951081D01*
X191962403Y-130709408D01*
X191980300Y-130461406D01*
X191979545Y-130390413D01*
X191974093Y-130277420D01*
X191932402Y-130032294D01*
X191885616Y-129897382D01*
X191882195Y-129826470D01*
X191917655Y-129764963D01*
X191980739Y-129732392D01*
X192004661Y-129730100D01*
X193176134Y-129730100D01*
X193238316Y-129723345D01*
X193374705Y-129672215D01*
X193491261Y-129584861D01*
X193578615Y-129468305D01*
X193629745Y-129331916D01*
X193636500Y-129269734D01*
X193636500Y-127473466D01*
X193629745Y-127411284D01*
X193578615Y-127274895D01*
X193505370Y-127177164D01*
X193480522Y-127110659D01*
X193495575Y-127041276D01*
X193505370Y-127026035D01*
X193573229Y-126935491D01*
X193578615Y-126928305D01*
X193629745Y-126791916D01*
X193636500Y-126729734D01*
X193636500Y-124933466D01*
X193629745Y-124871284D01*
X193578615Y-124734895D01*
X193505370Y-124637164D01*
X193480522Y-124570659D01*
X193495575Y-124501276D01*
X193505370Y-124486035D01*
X193573229Y-124395491D01*
X193578615Y-124388305D01*
X193629745Y-124251916D01*
X193636500Y-124189734D01*
X193636500Y-122393466D01*
X193629745Y-122331284D01*
X193578615Y-122194895D01*
X193505370Y-122097164D01*
X193480522Y-122030659D01*
X193495575Y-121961276D01*
X193505370Y-121946035D01*
X193573229Y-121855491D01*
X193578615Y-121848305D01*
X193629745Y-121711916D01*
X193636500Y-121649734D01*
X193636500Y-119853466D01*
X193629745Y-119791284D01*
X193578615Y-119654895D01*
X193491261Y-119538339D01*
X193374705Y-119450985D01*
X193238316Y-119399855D01*
X193176134Y-119393100D01*
X191621320Y-119393100D01*
X191553199Y-119373098D01*
X191506706Y-119319442D01*
X191495641Y-119276088D01*
X191491445Y-119217413D01*
X191491445Y-119217410D01*
X191491362Y-119216253D01*
X191482663Y-119136739D01*
X191479466Y-119107523D01*
X191479466Y-119107520D01*
X191479055Y-119103768D01*
X191435329Y-118916377D01*
X191423738Y-118866704D01*
X191423737Y-118866700D01*
X191422553Y-118861627D01*
X191326967Y-118632087D01*
X191324203Y-118627677D01*
X191324200Y-118627672D01*
X191196284Y-118423615D01*
X191194903Y-118421412D01*
X191152356Y-118364577D01*
X191068802Y-118265925D01*
X191038339Y-118229958D01*
X191038337Y-118229956D01*
X191035426Y-118226519D01*
X190849358Y-118061583D01*
X190790706Y-118017677D01*
X190702435Y-117956389D01*
X190701500Y-117955788D01*
X190688229Y-117947259D01*
X190688216Y-117947251D01*
X190687312Y-117946670D01*
X190594887Y-117891832D01*
X190593915Y-117891301D01*
X190593897Y-117891291D01*
X190487668Y-117833286D01*
X190360252Y-117763711D01*
X190359239Y-117763204D01*
X190359222Y-117763195D01*
X190265192Y-117716125D01*
X190265188Y-117716123D01*
X190264187Y-117715622D01*
X190263192Y-117715167D01*
X190263172Y-117715158D01*
X190257347Y-117712498D01*
X190247840Y-117708156D01*
X190210766Y-117692799D01*
X190149559Y-117667445D01*
X190149554Y-117667443D01*
X190148511Y-117667011D01*
X190147472Y-117666623D01*
X190147453Y-117666616D01*
X189899038Y-117573962D01*
X189899016Y-117573954D01*
X189898018Y-117573582D01*
X189795994Y-117539627D01*
X189778752Y-117534565D01*
X189777691Y-117534294D01*
X189777672Y-117534289D01*
X189675760Y-117508280D01*
X189674675Y-117508003D01*
X189636305Y-117499656D01*
X189414530Y-117451412D01*
X189413450Y-117451177D01*
X189307704Y-117432098D01*
X189306601Y-117431939D01*
X189306580Y-117431936D01*
X189296708Y-117430517D01*
X189289921Y-117429541D01*
X189288784Y-117429419D01*
X189288778Y-117429418D01*
X189265468Y-117426912D01*
X189183051Y-117418051D01*
X189181949Y-117417972D01*
X189181947Y-117417972D01*
X189142986Y-117415185D01*
X188911888Y-117398657D01*
X188911394Y-117398631D01*
X188911354Y-117398628D01*
X188858800Y-117395811D01*
X188858796Y-117395811D01*
X188858221Y-117395780D01*
X188853407Y-117395608D01*
X188849749Y-117395477D01*
X188849706Y-117395476D01*
X188849233Y-117395459D01*
X188795499Y-117394500D01*
X186479996Y-117394500D01*
X186428221Y-117395391D01*
X186426374Y-117395455D01*
X186420189Y-117395667D01*
X186420144Y-117395669D01*
X186419561Y-117395689D01*
X186418967Y-117395720D01*
X186418936Y-117395721D01*
X186368416Y-117398329D01*
X186368373Y-117398332D01*
X186367862Y-117398358D01*
X186106589Y-117416358D01*
X186003605Y-117427022D01*
X185994882Y-117428230D01*
X185987531Y-117429247D01*
X185987512Y-117429250D01*
X185986450Y-117429397D01*
X185985384Y-117429582D01*
X185985372Y-117429584D01*
X185958119Y-117434317D01*
X185884463Y-117447109D01*
X185883450Y-117447321D01*
X185883424Y-117447326D01*
X185633425Y-117499656D01*
X185632374Y-117499876D01*
X185531789Y-117524570D01*
X185530742Y-117524865D01*
X185530729Y-117524869D01*
X185516206Y-117528969D01*
X185516193Y-117528973D01*
X185515130Y-117529273D01*
X185514067Y-117529613D01*
X185417619Y-117560457D01*
X185417600Y-117560463D01*
X185416557Y-117560797D01*
X185174088Y-117647634D01*
X185077921Y-117685853D01*
X185076943Y-117686281D01*
X185076917Y-117686292D01*
X185063041Y-117692367D01*
X185063025Y-117692374D01*
X185062055Y-117692799D01*
X184968651Y-117737580D01*
X184967717Y-117738068D01*
X184967701Y-117738076D01*
X184917581Y-117764263D01*
X184740378Y-117856849D01*
X184739463Y-117857368D01*
X184739450Y-117857375D01*
X184712549Y-117872631D01*
X184650246Y-117907965D01*
X184635484Y-117917022D01*
X184604747Y-117937365D01*
X184550118Y-117973522D01*
X184550094Y-117973539D01*
X184549226Y-117974113D01*
X184548347Y-117974739D01*
X184548343Y-117974742D01*
X184340368Y-118122914D01*
X184339467Y-118123556D01*
X184338619Y-118124205D01*
X184338599Y-118124220D01*
X184300043Y-118153739D01*
X184257294Y-118186468D01*
X184243912Y-118197463D01*
X184243106Y-118198173D01*
X184243099Y-118198179D01*
X184210930Y-118226519D01*
X184166199Y-118265925D01*
X183975761Y-118445697D01*
X183975398Y-118446052D01*
X183939139Y-118481476D01*
X183939110Y-118481505D01*
X183938769Y-118481838D01*
X183932678Y-118487997D01*
X183896874Y-118525470D01*
X183827321Y-118600819D01*
X183790063Y-118642720D01*
X183789650Y-118643202D01*
X183789645Y-118643208D01*
X183784389Y-118649345D01*
X183784358Y-118649382D01*
X183783976Y-118649828D01*
X183748258Y-118693148D01*
X183571830Y-118915438D01*
X183571144Y-118916372D01*
X183571140Y-118916377D01*
X183515678Y-118991869D01*
X183505418Y-119005835D01*
X183494879Y-119021361D01*
X183494256Y-119022356D01*
X183494248Y-119022369D01*
X183442192Y-119105572D01*
X183435354Y-119116501D01*
X183296248Y-119358448D01*
X183243996Y-119457714D01*
X183235886Y-119474621D01*
X183191158Y-119577535D01*
X183089536Y-119837449D01*
X183052621Y-119943333D01*
X183047107Y-119961272D01*
X183018147Y-120069736D01*
X183017888Y-120070876D01*
X183017886Y-120070883D01*
X183000890Y-120145615D01*
X182980427Y-120235592D01*
X182956258Y-120341860D01*
X182935464Y-120452156D01*
X182932677Y-120470715D01*
X182920165Y-120582170D01*
X182920077Y-120583345D01*
X182920075Y-120583369D01*
X182901530Y-120831699D01*
X182899031Y-120865162D01*
X182895896Y-120921169D01*
X182895546Y-120930553D01*
X182894500Y-120986665D01*
X182894500Y-124468500D01*
X182874498Y-124536621D01*
X182820842Y-124583114D01*
X182768500Y-124594500D01*
X173931500Y-124594500D01*
X173863379Y-124574498D01*
X173816886Y-124520842D01*
X173805500Y-124468500D01*
X173805500Y-121966072D01*
X173825502Y-121897951D01*
X173879158Y-121851458D01*
X173949432Y-121841354D01*
X174007064Y-121865246D01*
X174120972Y-121950615D01*
X174257361Y-122001745D01*
X174319543Y-122008500D01*
X176415811Y-122008500D01*
X176477993Y-122001745D01*
X176614382Y-121950615D01*
X176730938Y-121863261D01*
X176818292Y-121746705D01*
X176869422Y-121610316D01*
X176876177Y-121548134D01*
X176876177Y-119451866D01*
X176869422Y-119389684D01*
X176818292Y-119253295D01*
X176730938Y-119136739D01*
X176614382Y-119049385D01*
X176477993Y-118998255D01*
X176415811Y-118991500D01*
X174319543Y-118991500D01*
X174257361Y-118998255D01*
X174120972Y-119049385D01*
X174030056Y-119117523D01*
X174007065Y-119134754D01*
X173940559Y-119159602D01*
X173871176Y-119144549D01*
X173820946Y-119094375D01*
X173805500Y-119033928D01*
X173805500Y-115182263D01*
X186490064Y-115182263D01*
X186526404Y-115419744D01*
X186563094Y-115531997D01*
X186599434Y-115643183D01*
X186599437Y-115643189D01*
X186601042Y-115648101D01*
X186711975Y-115861200D01*
X186856223Y-116053320D01*
X187029912Y-116219301D01*
X187228378Y-116354686D01*
X187233061Y-116356860D01*
X187233065Y-116356862D01*
X187441595Y-116453658D01*
X187441599Y-116453659D01*
X187446290Y-116455837D01*
X187677798Y-116520040D01*
X187682935Y-116520589D01*
X187870593Y-116540644D01*
X187870601Y-116540644D01*
X187873928Y-116541000D01*
X188108402Y-116541000D01*
X188110975Y-116540788D01*
X188110986Y-116540788D01*
X188211946Y-116532487D01*
X188286937Y-116526322D01*
X188519944Y-116467794D01*
X188648771Y-116411779D01*
X188735526Y-116374057D01*
X188735529Y-116374055D01*
X188740263Y-116371997D01*
X188941977Y-116241502D01*
X189119670Y-116079814D01*
X189180347Y-116002983D01*
X189265367Y-115895330D01*
X189265370Y-115895325D01*
X189268568Y-115891276D01*
X189282885Y-115865342D01*
X189382177Y-115685474D01*
X189382179Y-115685470D01*
X189384674Y-115680950D01*
X189464870Y-115454485D01*
X189470183Y-115424659D01*
X189506095Y-115223052D01*
X189506096Y-115223046D01*
X189507001Y-115217963D01*
X189509936Y-114977737D01*
X189473596Y-114740256D01*
X189436906Y-114628003D01*
X189400566Y-114516817D01*
X189400563Y-114516811D01*
X189398958Y-114511899D01*
X189288025Y-114298800D01*
X189143777Y-114106680D01*
X188970088Y-113940699D01*
X188932649Y-113915160D01*
X188887648Y-113860249D01*
X188879477Y-113789725D01*
X188910731Y-113725978D01*
X188935210Y-113705284D01*
X188937326Y-113703915D01*
X188945498Y-113697622D01*
X189115480Y-113542950D01*
X189122506Y-113535417D01*
X189264945Y-113355056D01*
X189270650Y-113346469D01*
X189381714Y-113145278D01*
X189385944Y-113135866D01*
X189462659Y-112919232D01*
X189465293Y-112909261D01*
X189482647Y-112811837D01*
X189481187Y-112798540D01*
X189466630Y-112794000D01*
X186531904Y-112794000D01*
X186518560Y-112797918D01*
X186516573Y-112812194D01*
X186526110Y-112874515D01*
X186528499Y-112884543D01*
X186599898Y-113102988D01*
X186603895Y-113112497D01*
X186710011Y-113316344D01*
X186715505Y-113325069D01*
X186853493Y-113508852D01*
X186860336Y-113516559D01*
X187026491Y-113675339D01*
X187034498Y-113681823D01*
X187067356Y-113704237D01*
X187112359Y-113759148D01*
X187120532Y-113829672D01*
X187089278Y-113893420D01*
X187064796Y-113914116D01*
X187063181Y-113915161D01*
X187058023Y-113918498D01*
X186880330Y-114080186D01*
X186856141Y-114110815D01*
X186734633Y-114264670D01*
X186734630Y-114264675D01*
X186731432Y-114268724D01*
X186728939Y-114273240D01*
X186728937Y-114273243D01*
X186617823Y-114474526D01*
X186615326Y-114479050D01*
X186535130Y-114705515D01*
X186534223Y-114710608D01*
X186534222Y-114710611D01*
X186528942Y-114740256D01*
X186492999Y-114942037D01*
X186490064Y-115182263D01*
X173805500Y-115182263D01*
X173805500Y-111004501D01*
X173805431Y-111000634D01*
X186491500Y-111000634D01*
X186498255Y-111062816D01*
X186549385Y-111199205D01*
X186636739Y-111315761D01*
X186753295Y-111403115D01*
X186772368Y-111410265D01*
X186773683Y-111410758D01*
X186830447Y-111453401D01*
X186855146Y-111519962D01*
X186839938Y-111589311D01*
X186828334Y-111606832D01*
X186735055Y-111724944D01*
X186729350Y-111733531D01*
X186618286Y-111934722D01*
X186614056Y-111944134D01*
X186537341Y-112160768D01*
X186534707Y-112170739D01*
X186517353Y-112268163D01*
X186518813Y-112281460D01*
X186533370Y-112286000D01*
X189468096Y-112286000D01*
X189481440Y-112282082D01*
X189483427Y-112267806D01*
X189473890Y-112205485D01*
X189471501Y-112195457D01*
X189400102Y-111977012D01*
X189396105Y-111967503D01*
X189289989Y-111763656D01*
X189284500Y-111754939D01*
X189171098Y-111603901D01*
X189146193Y-111537416D01*
X189161186Y-111468020D01*
X189211316Y-111417747D01*
X189227625Y-111410268D01*
X189246705Y-111403115D01*
X189363261Y-111315761D01*
X189450615Y-111199205D01*
X189501745Y-111062816D01*
X189508500Y-111000634D01*
X189508500Y-108999366D01*
X189501745Y-108937184D01*
X189450615Y-108800795D01*
X189363261Y-108684239D01*
X189246705Y-108596885D01*
X189110316Y-108545755D01*
X189048134Y-108539000D01*
X186951866Y-108539000D01*
X186889684Y-108545755D01*
X186753295Y-108596885D01*
X186636739Y-108684239D01*
X186549385Y-108800795D01*
X186498255Y-108937184D01*
X186491500Y-108999366D01*
X186491500Y-111000634D01*
X173805431Y-111000634D01*
X173804859Y-110968613D01*
X173804538Y-110959625D01*
X173802617Y-110923784D01*
X173800617Y-110895814D01*
X173784225Y-110666617D01*
X173799317Y-110597243D01*
X173849519Y-110547041D01*
X173918893Y-110531950D01*
X173963152Y-110543434D01*
X174050757Y-110584284D01*
X174056065Y-110585706D01*
X174056067Y-110585707D01*
X174266598Y-110642119D01*
X174266600Y-110642119D01*
X174271913Y-110643543D01*
X174500000Y-110663498D01*
X174728087Y-110643543D01*
X174733400Y-110642119D01*
X174733402Y-110642119D01*
X174943933Y-110585707D01*
X174943935Y-110585706D01*
X174949243Y-110584284D01*
X174993935Y-110563444D01*
X175151762Y-110489849D01*
X175151767Y-110489846D01*
X175156749Y-110487523D01*
X175270446Y-110407911D01*
X175339789Y-110359357D01*
X175339792Y-110359355D01*
X175344300Y-110356198D01*
X175506198Y-110194300D01*
X175637523Y-110006749D01*
X175639846Y-110001767D01*
X175639849Y-110001762D01*
X175731961Y-109804225D01*
X175731961Y-109804224D01*
X175734284Y-109799243D01*
X175753241Y-109728497D01*
X175792119Y-109583402D01*
X175792119Y-109583400D01*
X175793543Y-109578087D01*
X175813498Y-109350000D01*
X175793543Y-109121913D01*
X175791015Y-109112479D01*
X175735707Y-108906067D01*
X175735706Y-108906065D01*
X175734284Y-108900757D01*
X175691592Y-108809203D01*
X175639849Y-108698238D01*
X175639846Y-108698233D01*
X175637523Y-108693251D01*
X175533648Y-108544902D01*
X175509357Y-108510211D01*
X175509355Y-108510208D01*
X175506198Y-108505700D01*
X175344300Y-108343802D01*
X175339792Y-108340645D01*
X175339789Y-108340643D01*
X175229523Y-108263434D01*
X175156749Y-108212477D01*
X175151767Y-108210154D01*
X175151762Y-108210151D01*
X174954225Y-108118039D01*
X174954224Y-108118039D01*
X174949243Y-108115716D01*
X174943935Y-108114294D01*
X174943933Y-108114293D01*
X174733402Y-108057881D01*
X174733400Y-108057881D01*
X174728087Y-108056457D01*
X174500000Y-108036502D01*
X174271913Y-108056457D01*
X174266600Y-108057881D01*
X174266598Y-108057881D01*
X174056067Y-108114293D01*
X174056065Y-108114294D01*
X174050757Y-108115716D01*
X174045776Y-108118039D01*
X174045775Y-108118039D01*
X173848238Y-108210151D01*
X173848233Y-108210154D01*
X173843251Y-108212477D01*
X173770477Y-108263434D01*
X173660211Y-108340643D01*
X173660208Y-108340645D01*
X173655700Y-108343802D01*
X173493802Y-108505700D01*
X173490645Y-108510208D01*
X173490643Y-108510211D01*
X173466352Y-108544902D01*
X173362477Y-108693251D01*
X173360154Y-108698233D01*
X173360151Y-108698238D01*
X173308408Y-108809203D01*
X173265716Y-108900757D01*
X173264294Y-108906064D01*
X173264290Y-108906075D01*
X173253810Y-108945187D01*
X173216859Y-109005809D01*
X173152998Y-109036831D01*
X173082503Y-109028402D01*
X173039890Y-108998438D01*
X173016120Y-108972908D01*
X172827092Y-108783880D01*
X172774580Y-108734988D01*
X172773740Y-108734260D01*
X172773721Y-108734243D01*
X172761870Y-108723974D01*
X172761867Y-108723971D01*
X172760994Y-108723215D01*
X172705085Y-108678160D01*
X172491073Y-108517952D01*
X172432114Y-108477016D01*
X172429509Y-108475342D01*
X172417908Y-108467886D01*
X172417895Y-108467878D01*
X172416991Y-108467297D01*
X172355261Y-108430671D01*
X172354289Y-108430140D01*
X172354271Y-108430130D01*
X172248033Y-108372120D01*
X172120624Y-108302549D01*
X172119611Y-108302042D01*
X172119594Y-108302033D01*
X172057459Y-108270929D01*
X172057455Y-108270927D01*
X172056460Y-108270429D01*
X172040115Y-108262964D01*
X172039082Y-108262536D01*
X172039068Y-108262530D01*
X171974839Y-108235925D01*
X171974835Y-108235924D01*
X171973779Y-108235486D01*
X171861064Y-108193445D01*
X171724306Y-108142437D01*
X171724284Y-108142429D01*
X171723286Y-108142057D01*
X171655146Y-108119379D01*
X171637904Y-108114317D01*
X171589448Y-108101951D01*
X171569478Y-108096854D01*
X171569470Y-108096852D01*
X171568392Y-108096577D01*
X171567303Y-108096340D01*
X171308244Y-108039985D01*
X171308229Y-108039982D01*
X171307167Y-108039751D01*
X171306095Y-108039558D01*
X171306077Y-108039554D01*
X171237661Y-108027210D01*
X171237657Y-108027209D01*
X171236541Y-108027008D01*
X171218758Y-108024451D01*
X171217621Y-108024329D01*
X171217615Y-108024328D01*
X171202993Y-108022756D01*
X171147382Y-108016777D01*
X171146286Y-108016699D01*
X171146268Y-108016697D01*
X171136294Y-108015984D01*
X171130894Y-108015598D01*
X171064374Y-107990789D01*
X171021826Y-107933954D01*
X171016760Y-107863139D01*
X171036668Y-107817648D01*
X171120966Y-107697258D01*
X171120967Y-107697256D01*
X171124123Y-107692749D01*
X171126446Y-107687767D01*
X171126449Y-107687762D01*
X171218561Y-107490225D01*
X171218561Y-107490224D01*
X171220884Y-107485243D01*
X171276251Y-107278614D01*
X171278719Y-107269402D01*
X171278719Y-107269400D01*
X171280143Y-107264087D01*
X171300098Y-107036000D01*
X171280143Y-106807913D01*
X171220884Y-106586757D01*
X171126566Y-106384489D01*
X171126449Y-106384238D01*
X171126446Y-106384233D01*
X171124123Y-106379251D01*
X171038487Y-106256950D01*
X170995957Y-106196211D01*
X170995955Y-106196208D01*
X170992798Y-106191700D01*
X170830900Y-106029802D01*
X170826392Y-106026645D01*
X170826389Y-106026643D01*
X170748211Y-105971902D01*
X170643349Y-105898477D01*
X170638367Y-105896154D01*
X170638362Y-105896151D01*
X170604143Y-105880195D01*
X170550858Y-105833278D01*
X170531397Y-105765001D01*
X170551939Y-105697041D01*
X170604143Y-105651805D01*
X170638362Y-105635849D01*
X170638367Y-105635846D01*
X170643349Y-105633523D01*
X170753947Y-105556081D01*
X170826389Y-105505357D01*
X170826392Y-105505355D01*
X170830900Y-105502198D01*
X170992798Y-105340300D01*
X171008613Y-105317715D01*
X171054955Y-105251531D01*
X171124123Y-105152749D01*
X171126446Y-105147767D01*
X171126449Y-105147762D01*
X171218561Y-104950225D01*
X171218561Y-104950224D01*
X171220884Y-104945243D01*
X171280143Y-104724087D01*
X171300098Y-104496000D01*
X171280143Y-104267913D01*
X171220884Y-104046757D01*
X171198553Y-103998868D01*
X171126449Y-103844238D01*
X171126446Y-103844233D01*
X171124123Y-103839251D01*
X171025247Y-103698042D01*
X170995957Y-103656211D01*
X170995955Y-103656208D01*
X170992798Y-103651700D01*
X170830900Y-103489802D01*
X170826392Y-103486645D01*
X170826389Y-103486643D01*
X170722155Y-103413658D01*
X170643349Y-103358477D01*
X170638367Y-103356154D01*
X170638362Y-103356151D01*
X170604143Y-103340195D01*
X170550858Y-103293278D01*
X170531397Y-103225001D01*
X170551939Y-103157041D01*
X170604143Y-103111805D01*
X170638362Y-103095849D01*
X170638367Y-103095846D01*
X170643349Y-103093523D01*
X170763796Y-103009185D01*
X170826389Y-102965357D01*
X170826392Y-102965355D01*
X170830900Y-102962198D01*
X170992798Y-102800300D01*
X171024320Y-102755283D01*
X171062676Y-102700504D01*
X171124123Y-102612749D01*
X171126446Y-102607767D01*
X171126449Y-102607762D01*
X171218561Y-102410225D01*
X171218561Y-102410224D01*
X171220884Y-102405243D01*
X171227717Y-102379744D01*
X171278719Y-102189402D01*
X171278719Y-102189400D01*
X171280143Y-102184087D01*
X171283802Y-102142263D01*
X186545064Y-102142263D01*
X186581404Y-102379744D01*
X186608766Y-102463459D01*
X186654434Y-102603183D01*
X186654437Y-102603189D01*
X186656042Y-102608101D01*
X186658429Y-102612687D01*
X186658431Y-102612691D01*
X186753747Y-102795789D01*
X186766975Y-102821200D01*
X186770085Y-102825342D01*
X186902562Y-103001784D01*
X186911223Y-103013320D01*
X187084912Y-103179301D01*
X187283378Y-103314686D01*
X187288061Y-103316860D01*
X187288065Y-103316862D01*
X187496595Y-103413658D01*
X187496599Y-103413659D01*
X187501290Y-103415837D01*
X187732798Y-103480040D01*
X187737935Y-103480589D01*
X187925593Y-103500644D01*
X187925601Y-103500644D01*
X187928928Y-103501000D01*
X188163402Y-103501000D01*
X188165975Y-103500788D01*
X188165986Y-103500788D01*
X188266946Y-103492487D01*
X188341937Y-103486322D01*
X188574944Y-103427794D01*
X188734363Y-103358477D01*
X188790526Y-103334057D01*
X188790529Y-103334055D01*
X188795263Y-103331997D01*
X188996977Y-103201502D01*
X189174670Y-103039814D01*
X189281534Y-102904501D01*
X189320367Y-102855330D01*
X189320370Y-102855325D01*
X189323568Y-102851276D01*
X189337885Y-102825342D01*
X189437177Y-102645474D01*
X189437179Y-102645470D01*
X189439674Y-102640950D01*
X189444752Y-102626612D01*
X189518144Y-102419360D01*
X189518145Y-102419356D01*
X189519870Y-102414485D01*
X189520778Y-102409389D01*
X189561095Y-102183052D01*
X189561096Y-102183046D01*
X189562001Y-102177963D01*
X189564936Y-101937737D01*
X189528596Y-101700256D01*
X189467087Y-101512067D01*
X189455566Y-101476817D01*
X189455563Y-101476811D01*
X189453958Y-101471899D01*
X189355628Y-101283009D01*
X189345416Y-101263393D01*
X189343025Y-101258800D01*
X189198777Y-101066680D01*
X189025088Y-100900699D01*
X188988097Y-100875465D01*
X188943096Y-100820556D01*
X188934925Y-100750032D01*
X188966179Y-100686284D01*
X188990660Y-100665589D01*
X188992635Y-100664311D01*
X188996977Y-100661502D01*
X189174670Y-100499814D01*
X189271650Y-100377016D01*
X189320367Y-100315330D01*
X189320370Y-100315325D01*
X189323568Y-100311276D01*
X189337885Y-100285342D01*
X189437177Y-100105474D01*
X189437179Y-100105470D01*
X189439674Y-100100950D01*
X189448065Y-100077257D01*
X189518144Y-99879360D01*
X189518145Y-99879356D01*
X189519870Y-99874485D01*
X189520778Y-99869389D01*
X189561095Y-99643052D01*
X189561096Y-99643046D01*
X189562001Y-99637963D01*
X189564936Y-99397737D01*
X189528596Y-99160256D01*
X189467087Y-98972067D01*
X189455566Y-98936817D01*
X189455563Y-98936811D01*
X189453958Y-98931899D01*
X189343025Y-98718800D01*
X189226585Y-98563717D01*
X189201680Y-98497235D01*
X189216672Y-98427839D01*
X189266802Y-98377565D01*
X189283115Y-98370085D01*
X189293293Y-98366269D01*
X189293296Y-98366267D01*
X189301705Y-98363115D01*
X189418261Y-98275761D01*
X189505615Y-98159205D01*
X189556745Y-98022816D01*
X189563500Y-97960634D01*
X189563500Y-95959366D01*
X189556745Y-95897184D01*
X189505615Y-95760795D01*
X189418261Y-95644239D01*
X189301705Y-95556885D01*
X189165316Y-95505755D01*
X189103134Y-95499000D01*
X187006866Y-95499000D01*
X186944684Y-95505755D01*
X186808295Y-95556885D01*
X186691739Y-95644239D01*
X186604385Y-95760795D01*
X186553255Y-95897184D01*
X186546500Y-95959366D01*
X186546500Y-97960634D01*
X186553255Y-98022816D01*
X186604385Y-98159205D01*
X186691739Y-98275761D01*
X186808295Y-98363115D01*
X186828189Y-98370573D01*
X186884953Y-98413213D01*
X186909654Y-98479774D01*
X186894447Y-98549123D01*
X186882842Y-98566647D01*
X186789633Y-98684670D01*
X186789630Y-98684675D01*
X186786432Y-98688724D01*
X186783939Y-98693240D01*
X186783937Y-98693243D01*
X186747499Y-98759251D01*
X186670326Y-98899050D01*
X186668602Y-98903919D01*
X186668600Y-98903923D01*
X186644469Y-98972067D01*
X186590130Y-99125515D01*
X186589223Y-99130608D01*
X186589222Y-99130611D01*
X186583942Y-99160256D01*
X186547999Y-99362037D01*
X186545064Y-99602263D01*
X186581404Y-99839744D01*
X186609926Y-99927008D01*
X186654434Y-100063183D01*
X186654437Y-100063189D01*
X186656042Y-100068101D01*
X186658429Y-100072687D01*
X186658431Y-100072691D01*
X186753747Y-100255789D01*
X186766975Y-100281200D01*
X186770085Y-100285342D01*
X186870149Y-100418614D01*
X186911223Y-100473320D01*
X186914961Y-100476892D01*
X187014282Y-100571805D01*
X187084912Y-100639301D01*
X187121903Y-100664535D01*
X187166904Y-100719444D01*
X187175075Y-100789968D01*
X187143821Y-100853716D01*
X187119340Y-100874411D01*
X187117707Y-100875468D01*
X187113023Y-100878498D01*
X186935330Y-101040186D01*
X186911141Y-101070815D01*
X186789633Y-101224670D01*
X186789630Y-101224675D01*
X186786432Y-101228724D01*
X186783939Y-101233240D01*
X186783937Y-101233243D01*
X186672823Y-101434526D01*
X186670326Y-101439050D01*
X186668602Y-101443919D01*
X186668600Y-101443923D01*
X186620270Y-101580403D01*
X186590130Y-101665515D01*
X186589223Y-101670608D01*
X186589222Y-101670611D01*
X186567062Y-101795020D01*
X186547999Y-101902037D01*
X186547936Y-101907201D01*
X186546044Y-102062090D01*
X186545064Y-102142263D01*
X171283802Y-102142263D01*
X171300098Y-101956000D01*
X171280143Y-101727913D01*
X171264789Y-101670611D01*
X171222307Y-101512067D01*
X171222306Y-101512065D01*
X171220884Y-101506757D01*
X171189312Y-101439050D01*
X171126449Y-101304238D01*
X171126446Y-101304233D01*
X171124123Y-101299251D01*
X170992798Y-101111700D01*
X170830900Y-100949802D01*
X170826392Y-100946645D01*
X170826389Y-100946643D01*
X170725056Y-100875689D01*
X170643349Y-100818477D01*
X170638367Y-100816154D01*
X170638362Y-100816151D01*
X170604143Y-100800195D01*
X170550858Y-100753278D01*
X170531397Y-100685001D01*
X170551939Y-100617041D01*
X170604143Y-100571805D01*
X170638362Y-100555849D01*
X170638367Y-100555846D01*
X170643349Y-100553523D01*
X170785058Y-100454297D01*
X170826389Y-100425357D01*
X170826392Y-100425355D01*
X170830900Y-100422198D01*
X170992798Y-100260300D01*
X171033597Y-100202034D01*
X171080194Y-100135486D01*
X171124123Y-100072749D01*
X171126446Y-100067767D01*
X171126449Y-100067762D01*
X171218561Y-99870225D01*
X171218561Y-99870224D01*
X171220884Y-99865243D01*
X171227717Y-99839744D01*
X171278719Y-99649402D01*
X171278719Y-99649400D01*
X171280143Y-99644087D01*
X171300098Y-99416000D01*
X171280143Y-99187913D01*
X171264789Y-99130611D01*
X171222307Y-98972067D01*
X171222306Y-98972065D01*
X171220884Y-98966757D01*
X171189312Y-98899050D01*
X171126449Y-98764238D01*
X171126446Y-98764233D01*
X171124123Y-98759251D01*
X170992798Y-98571700D01*
X170830900Y-98409802D01*
X170826392Y-98406645D01*
X170826389Y-98406643D01*
X170743379Y-98348519D01*
X170643349Y-98278477D01*
X170638367Y-98276154D01*
X170638362Y-98276151D01*
X170440825Y-98184039D01*
X170440824Y-98184039D01*
X170435843Y-98181716D01*
X170430535Y-98180294D01*
X170430533Y-98180293D01*
X170220002Y-98123881D01*
X170220000Y-98123881D01*
X170214687Y-98122457D01*
X170115120Y-98113746D01*
X170046451Y-98107738D01*
X170046444Y-98107738D01*
X170043727Y-98107500D01*
X169129473Y-98107500D01*
X169126756Y-98107738D01*
X169126749Y-98107738D01*
X169058080Y-98113746D01*
X168958513Y-98122457D01*
X168953200Y-98123881D01*
X168953198Y-98123881D01*
X168742667Y-98180293D01*
X168742665Y-98180294D01*
X168737357Y-98181716D01*
X168732376Y-98184039D01*
X168732375Y-98184039D01*
X168534838Y-98276151D01*
X168534833Y-98276154D01*
X168529851Y-98278477D01*
X168429821Y-98348519D01*
X168346811Y-98406643D01*
X168346808Y-98406645D01*
X168342300Y-98409802D01*
X168180402Y-98571700D01*
X168049077Y-98759251D01*
X168046754Y-98764233D01*
X168046751Y-98764238D01*
X167983888Y-98899050D01*
X167952316Y-98966757D01*
X167950894Y-98972065D01*
X167950893Y-98972067D01*
X167908411Y-99130611D01*
X167893057Y-99187913D01*
X167873102Y-99416000D01*
X167893057Y-99644087D01*
X167894481Y-99649400D01*
X167894481Y-99649402D01*
X167945484Y-99839744D01*
X167952316Y-99865243D01*
X167954639Y-99870224D01*
X167954639Y-99870225D01*
X168046751Y-100067762D01*
X168046754Y-100067767D01*
X168049077Y-100072749D01*
X168093006Y-100135486D01*
X168139604Y-100202034D01*
X168180402Y-100260300D01*
X168342300Y-100422198D01*
X168346808Y-100425355D01*
X168346811Y-100425357D01*
X168388142Y-100454297D01*
X168529851Y-100553523D01*
X168534833Y-100555846D01*
X168534838Y-100555849D01*
X168569057Y-100571805D01*
X168622342Y-100618722D01*
X168641803Y-100686999D01*
X168621261Y-100754959D01*
X168569057Y-100800195D01*
X168534838Y-100816151D01*
X168534833Y-100816154D01*
X168529851Y-100818477D01*
X168448144Y-100875689D01*
X168346811Y-100946643D01*
X168346808Y-100946645D01*
X168342300Y-100949802D01*
X168180402Y-101111700D01*
X168049077Y-101299251D01*
X168046754Y-101304233D01*
X168046751Y-101304238D01*
X167983888Y-101439050D01*
X167952316Y-101506757D01*
X167911557Y-101658873D01*
X167899632Y-101703376D01*
X167862680Y-101763999D01*
X167798820Y-101795020D01*
X167728325Y-101786592D01*
X167673578Y-101741389D01*
X167661517Y-101718985D01*
X167650222Y-101691719D01*
X167637034Y-101659881D01*
X167629568Y-101643534D01*
X167629078Y-101642555D01*
X167629065Y-101642528D01*
X167597966Y-101580403D01*
X167597957Y-101580386D01*
X167597450Y-101579373D01*
X167469329Y-101344738D01*
X167432703Y-101283009D01*
X167422984Y-101267886D01*
X167382048Y-101208927D01*
X167221840Y-100994915D01*
X167176785Y-100939006D01*
X167174605Y-100936490D01*
X167165757Y-100926279D01*
X167165740Y-100926260D01*
X167165012Y-100925420D01*
X167121325Y-100878498D01*
X167116908Y-100873754D01*
X167116899Y-100873745D01*
X167116120Y-100872908D01*
X166927092Y-100683880D01*
X166874580Y-100634988D01*
X166873740Y-100634260D01*
X166873721Y-100634243D01*
X166861870Y-100623974D01*
X166861867Y-100623971D01*
X166860994Y-100623215D01*
X166805085Y-100578160D01*
X166591073Y-100417952D01*
X166532114Y-100377016D01*
X166516991Y-100367297D01*
X166455262Y-100330671D01*
X166220627Y-100202550D01*
X166219614Y-100202043D01*
X166219597Y-100202034D01*
X166157472Y-100170935D01*
X166157445Y-100170922D01*
X166156466Y-100170432D01*
X166155471Y-100169977D01*
X166155451Y-100169968D01*
X166149626Y-100167308D01*
X166140119Y-100162966D01*
X166073779Y-100135486D01*
X166072740Y-100135098D01*
X166072721Y-100135091D01*
X165824306Y-100042437D01*
X165824284Y-100042429D01*
X165823286Y-100042057D01*
X165755146Y-100019379D01*
X165737904Y-100014317D01*
X165689448Y-100001951D01*
X165669478Y-99996854D01*
X165669470Y-99996852D01*
X165668392Y-99996577D01*
X165667303Y-99996340D01*
X165408244Y-99939985D01*
X165408229Y-99939982D01*
X165407167Y-99939751D01*
X165406095Y-99939558D01*
X165406077Y-99939554D01*
X165337661Y-99927210D01*
X165337657Y-99927209D01*
X165336541Y-99927008D01*
X165318758Y-99924451D01*
X165317621Y-99924329D01*
X165317615Y-99924328D01*
X165302993Y-99922756D01*
X165247382Y-99916777D01*
X165246280Y-99916698D01*
X165246278Y-99916698D01*
X164976798Y-99897424D01*
X164976753Y-99897421D01*
X164976219Y-99897383D01*
X164975658Y-99897353D01*
X164975611Y-99897350D01*
X164947362Y-99895836D01*
X164940375Y-99895462D01*
X164931387Y-99895141D01*
X164930901Y-99895132D01*
X164930853Y-99895131D01*
X164904172Y-99894655D01*
X164895499Y-99894500D01*
X163955815Y-99894500D01*
X163915877Y-99895628D01*
X163899906Y-99896079D01*
X163899897Y-99896079D01*
X163899061Y-99896103D01*
X163898233Y-99896150D01*
X163898205Y-99896151D01*
X163887061Y-99896781D01*
X163887050Y-99896782D01*
X163884857Y-99896906D01*
X163816956Y-99905520D01*
X163746861Y-99894250D01*
X163693985Y-99846873D01*
X163675100Y-99780522D01*
X163675100Y-98567866D01*
X163668345Y-98505684D01*
X163617215Y-98369295D01*
X163529861Y-98252739D01*
X163413305Y-98165385D01*
X163276916Y-98114255D01*
X163214734Y-98107500D01*
X160718466Y-98107500D01*
X160656284Y-98114255D01*
X160519895Y-98165385D01*
X160403339Y-98252739D01*
X160315985Y-98369295D01*
X160264855Y-98505684D01*
X160258100Y-98567866D01*
X160258100Y-100264134D01*
X160264855Y-100326316D01*
X160315985Y-100462705D01*
X160403339Y-100579261D01*
X160519895Y-100666615D01*
X160656284Y-100717745D01*
X160667074Y-100718917D01*
X160669206Y-100719803D01*
X160671822Y-100720425D01*
X160671721Y-100720848D01*
X160732635Y-100746155D01*
X160773063Y-100804517D01*
X160775522Y-100875471D01*
X160739229Y-100936490D01*
X160730569Y-100943489D01*
X160726807Y-100946646D01*
X160722300Y-100949802D01*
X160560402Y-101111700D01*
X160429077Y-101299251D01*
X160426754Y-101304233D01*
X160426751Y-101304238D01*
X160363888Y-101439050D01*
X160332316Y-101506757D01*
X160330894Y-101512065D01*
X160330893Y-101512067D01*
X160288411Y-101670611D01*
X160273057Y-101727913D01*
X160253102Y-101956000D01*
X160273057Y-102184087D01*
X160274481Y-102189400D01*
X160274481Y-102189402D01*
X160325484Y-102379744D01*
X160332316Y-102405243D01*
X160334639Y-102410224D01*
X160334639Y-102410225D01*
X160426751Y-102607762D01*
X160426754Y-102607767D01*
X160429077Y-102612749D01*
X160490524Y-102700504D01*
X160528881Y-102755283D01*
X160560402Y-102800300D01*
X160722300Y-102962198D01*
X160726808Y-102965355D01*
X160726811Y-102965357D01*
X160789404Y-103009185D01*
X160909851Y-103093523D01*
X160914833Y-103095846D01*
X160914838Y-103095849D01*
X160949057Y-103111805D01*
X161002342Y-103158722D01*
X161021803Y-103226999D01*
X161001261Y-103294959D01*
X160949057Y-103340195D01*
X160914838Y-103356151D01*
X160914833Y-103356154D01*
X160909851Y-103358477D01*
X160831045Y-103413658D01*
X160726811Y-103486643D01*
X160726808Y-103486645D01*
X160722300Y-103489802D01*
X160560402Y-103651700D01*
X160557245Y-103656208D01*
X160557243Y-103656211D01*
X160527953Y-103698042D01*
X160429077Y-103839251D01*
X160426754Y-103844233D01*
X160426751Y-103844238D01*
X160354647Y-103998868D01*
X160332316Y-104046757D01*
X160273057Y-104267913D01*
X160253102Y-104496000D01*
X160273057Y-104724087D01*
X160332316Y-104945243D01*
X160334639Y-104950224D01*
X160334639Y-104950225D01*
X160426751Y-105147762D01*
X160426754Y-105147767D01*
X160429077Y-105152749D01*
X160498245Y-105251531D01*
X160544588Y-105317715D01*
X160560402Y-105340300D01*
X160722300Y-105502198D01*
X160726808Y-105505355D01*
X160726811Y-105505357D01*
X160799253Y-105556081D01*
X160909851Y-105633523D01*
X160914833Y-105635846D01*
X160914838Y-105635849D01*
X160949649Y-105652081D01*
X161002934Y-105698998D01*
X161022395Y-105767275D01*
X161001853Y-105835235D01*
X160949649Y-105880471D01*
X160915089Y-105896586D01*
X160905593Y-105902069D01*
X160727133Y-106027028D01*
X160718725Y-106034084D01*
X160564684Y-106188125D01*
X160557628Y-106196533D01*
X160432669Y-106374993D01*
X160427186Y-106384489D01*
X160335110Y-106581947D01*
X160331364Y-106592239D01*
X160285206Y-106764503D01*
X160285542Y-106778599D01*
X160293484Y-106782000D01*
X162094600Y-106782000D01*
X162162721Y-106802002D01*
X162209214Y-106855658D01*
X162220600Y-106908000D01*
X162220600Y-107164000D01*
X162200598Y-107232121D01*
X162146942Y-107278614D01*
X162094600Y-107290000D01*
X160298633Y-107290000D01*
X160285102Y-107293973D01*
X160283873Y-107302522D01*
X160331364Y-107479761D01*
X160335110Y-107490053D01*
X160427186Y-107687511D01*
X160432669Y-107697007D01*
X160557628Y-107875467D01*
X160564684Y-107883875D01*
X160718725Y-108037916D01*
X160727133Y-108044972D01*
X160883090Y-108154174D01*
X160927418Y-108209631D01*
X160934727Y-108280250D01*
X160902696Y-108343611D01*
X160852529Y-108376282D01*
X160796548Y-108395919D01*
X160795572Y-108396299D01*
X160795547Y-108396308D01*
X160734407Y-108420098D01*
X160733400Y-108420490D01*
X160732419Y-108420910D01*
X160732405Y-108420916D01*
X160718766Y-108426759D01*
X160718738Y-108426771D01*
X160717794Y-108427176D01*
X160656308Y-108456013D01*
X160602929Y-108483284D01*
X160453224Y-108559766D01*
X160453198Y-108559780D01*
X160452266Y-108560256D01*
X160392911Y-108593151D01*
X160392007Y-108593693D01*
X160391996Y-108593699D01*
X160387389Y-108596460D01*
X160378338Y-108601883D01*
X160321391Y-108638670D01*
X160320528Y-108639269D01*
X160320523Y-108639273D01*
X160264559Y-108678160D01*
X160134381Y-108768614D01*
X160071375Y-108816166D01*
X160070443Y-108816929D01*
X160070426Y-108816942D01*
X160061520Y-108824230D01*
X160056077Y-108828684D01*
X160055149Y-108829506D01*
X160055127Y-108829525D01*
X159997909Y-108880225D01*
X159996968Y-108881059D01*
X159970876Y-108906075D01*
X159843288Y-109028402D01*
X159840189Y-109031373D01*
X159839224Y-109032385D01*
X159839213Y-109032396D01*
X159779003Y-109095536D01*
X159778045Y-109096541D01*
X159770340Y-109105382D01*
X159764154Y-109112479D01*
X159764142Y-109112493D01*
X159763229Y-109113541D01*
X159707142Y-109184038D01*
X159706328Y-109185161D01*
X159706312Y-109185182D01*
X159581309Y-109357626D01*
X159581297Y-109357643D01*
X159580489Y-109358758D01*
X159530944Y-109433979D01*
X159530240Y-109435160D01*
X159530238Y-109435163D01*
X159520102Y-109452163D01*
X159520093Y-109452180D01*
X159519396Y-109453348D01*
X159518740Y-109454570D01*
X159495188Y-109498427D01*
X159476788Y-109532689D01*
X159383308Y-109727183D01*
X159382754Y-109728481D01*
X159382747Y-109728497D01*
X159350441Y-109804225D01*
X159347966Y-109810027D01*
X159340055Y-109831145D01*
X159312267Y-109916826D01*
X159311897Y-109918168D01*
X159311891Y-109918189D01*
X159281498Y-110028515D01*
X159254955Y-110124867D01*
X159254649Y-110126212D01*
X159254645Y-110126226D01*
X159235265Y-110211277D01*
X159235260Y-110211300D01*
X159234952Y-110212653D01*
X159230932Y-110234840D01*
X159218857Y-110324131D01*
X159199039Y-110544717D01*
X159196012Y-110589700D01*
X159195507Y-110600975D01*
X159194500Y-110645966D01*
X159194500Y-111968500D01*
X159174498Y-112036621D01*
X159120842Y-112083114D01*
X159068500Y-112094500D01*
X158657078Y-112094500D01*
X158633019Y-112095175D01*
X158601592Y-112096056D01*
X158601562Y-112096057D01*
X158600716Y-112096081D01*
X158586609Y-112096873D01*
X158530391Y-112101614D01*
X158362382Y-112120544D01*
X158360671Y-112120835D01*
X158360669Y-112120835D01*
X158252910Y-112139145D01*
X158252901Y-112139147D01*
X158251193Y-112139437D01*
X158249488Y-112139826D01*
X158249484Y-112139827D01*
X158225415Y-112145321D01*
X158225404Y-112145324D01*
X158223686Y-112145716D01*
X158115361Y-112176926D01*
X158113691Y-112177510D01*
X158113689Y-112177511D01*
X158033744Y-112205485D01*
X157962506Y-112230412D01*
X157858333Y-112273561D01*
X157832912Y-112285803D01*
X157734221Y-112340348D01*
X157597095Y-112426510D01*
X157595655Y-112427532D01*
X157506573Y-112490739D01*
X157506563Y-112490747D01*
X157505122Y-112491769D01*
X157483063Y-112509361D01*
X157398998Y-112584487D01*
X157284487Y-112698998D01*
X157209361Y-112783063D01*
X157191769Y-112805122D01*
X157126510Y-112897095D01*
X157125575Y-112898583D01*
X157125571Y-112898589D01*
X157112600Y-112919232D01*
X157040348Y-113034221D01*
X157039491Y-113035772D01*
X157039489Y-113035775D01*
X156997086Y-113112497D01*
X156985803Y-113132912D01*
X156973561Y-113158333D01*
X156930412Y-113262506D01*
X156929824Y-113264186D01*
X156929823Y-113264189D01*
X156877511Y-113413689D01*
X156876926Y-113415361D01*
X156845716Y-113523686D01*
X156839437Y-113551193D01*
X156820544Y-113662381D01*
X156820346Y-113664141D01*
X156820345Y-113664146D01*
X156816573Y-113697622D01*
X156801614Y-113830389D01*
X156796873Y-113886612D01*
X156796826Y-113887446D01*
X156796824Y-113887477D01*
X156796129Y-113899856D01*
X156796128Y-113899891D01*
X156796081Y-113900720D01*
X156794500Y-113957078D01*
X156794500Y-129495499D01*
X156795141Y-129531387D01*
X156795462Y-129540375D01*
X156797383Y-129576216D01*
X156797419Y-129576716D01*
X156797420Y-129576736D01*
X156798386Y-129590242D01*
X156816776Y-129847374D01*
X156824452Y-129918768D01*
X156827010Y-129936556D01*
X156839751Y-130007167D01*
X156839984Y-130008240D01*
X156839987Y-130008253D01*
X156856617Y-130084702D01*
X156849037Y-130161746D01*
X156821768Y-130224432D01*
X156820578Y-130228788D01*
X156820577Y-130228789D01*
X156776401Y-130390413D01*
X156756211Y-130464281D01*
X156731026Y-130711648D01*
X134908500Y-130711648D01*
X134908500Y-129266269D01*
X138100001Y-129266269D01*
X138100371Y-129273090D01*
X138105895Y-129323952D01*
X138109521Y-129339204D01*
X138154676Y-129459654D01*
X138163214Y-129475249D01*
X138239715Y-129577324D01*
X138252276Y-129589885D01*
X138354351Y-129666386D01*
X138369946Y-129674924D01*
X138490394Y-129720078D01*
X138505649Y-129723705D01*
X138556514Y-129729231D01*
X138563328Y-129729600D01*
X139185885Y-129729600D01*
X139201124Y-129725125D01*
X139202329Y-129723735D01*
X139204000Y-129716052D01*
X139204000Y-129711484D01*
X139712000Y-129711484D01*
X139716475Y-129726723D01*
X139717865Y-129727928D01*
X139725548Y-129729599D01*
X140352669Y-129729599D01*
X140359490Y-129729229D01*
X140410352Y-129723705D01*
X140425604Y-129720079D01*
X140546054Y-129674924D01*
X140561649Y-129666386D01*
X140652018Y-129598658D01*
X140718525Y-129573810D01*
X140787907Y-129588863D01*
X140803148Y-129598658D01*
X140901295Y-129672215D01*
X141037684Y-129723345D01*
X141099866Y-129730100D01*
X142896134Y-129730100D01*
X142958316Y-129723345D01*
X143094705Y-129672215D01*
X143211261Y-129584861D01*
X143298615Y-129468305D01*
X143349745Y-129331916D01*
X143356500Y-129269734D01*
X143356500Y-127473466D01*
X143349745Y-127411284D01*
X143298615Y-127274895D01*
X143225370Y-127177164D01*
X143200522Y-127110659D01*
X143215575Y-127041276D01*
X143225370Y-127026035D01*
X143293229Y-126935491D01*
X143298615Y-126928305D01*
X143349745Y-126791916D01*
X143356500Y-126729734D01*
X143356500Y-124933466D01*
X143349745Y-124871284D01*
X143298615Y-124734895D01*
X143225370Y-124637164D01*
X143200522Y-124570659D01*
X143215575Y-124501276D01*
X143225370Y-124486035D01*
X143293229Y-124395491D01*
X143298615Y-124388305D01*
X143349745Y-124251916D01*
X143356500Y-124189734D01*
X143356500Y-122393466D01*
X143349745Y-122331284D01*
X143298615Y-122194895D01*
X143225370Y-122097164D01*
X143200522Y-122030659D01*
X143215575Y-121961276D01*
X143225370Y-121946035D01*
X143293229Y-121855491D01*
X143298615Y-121848305D01*
X143304476Y-121832670D01*
X153899837Y-121832670D01*
X153905564Y-121840320D01*
X154076719Y-121945205D01*
X154085514Y-121949687D01*
X154295665Y-122036734D01*
X154305050Y-122039783D01*
X154526231Y-122092885D01*
X154535978Y-122094428D01*
X154762747Y-122112275D01*
X154772607Y-122112275D01*
X154999376Y-122094428D01*
X155009123Y-122092885D01*
X155230304Y-122039783D01*
X155239689Y-122036734D01*
X155449840Y-121949687D01*
X155458635Y-121945205D01*
X155626122Y-121842568D01*
X155635584Y-121832110D01*
X155631801Y-121823334D01*
X154780489Y-120972022D01*
X154766545Y-120964408D01*
X154764712Y-120964539D01*
X154758097Y-120968790D01*
X153906597Y-121820290D01*
X153899837Y-121832670D01*
X143304476Y-121832670D01*
X143349745Y-121711916D01*
X143356500Y-121649734D01*
X143356500Y-120604930D01*
X153255402Y-120604930D01*
X153273249Y-120831699D01*
X153274792Y-120841446D01*
X153327894Y-121062627D01*
X153330943Y-121072012D01*
X153417990Y-121282163D01*
X153422472Y-121290958D01*
X153525109Y-121458445D01*
X153535567Y-121467907D01*
X153544343Y-121464124D01*
X154395655Y-120612812D01*
X154402033Y-120601132D01*
X155132085Y-120601132D01*
X155132216Y-120602965D01*
X155136467Y-120609580D01*
X155987967Y-121461080D01*
X156000347Y-121467840D01*
X156007997Y-121462113D01*
X156112882Y-121290958D01*
X156117364Y-121282163D01*
X156204411Y-121072012D01*
X156207460Y-121062627D01*
X156260562Y-120841446D01*
X156262105Y-120831699D01*
X156279952Y-120604930D01*
X156279952Y-120595070D01*
X156262105Y-120368301D01*
X156260562Y-120358554D01*
X156207460Y-120137373D01*
X156204411Y-120127988D01*
X156117364Y-119917837D01*
X156112882Y-119909042D01*
X156010245Y-119741555D01*
X155999787Y-119732093D01*
X155991011Y-119735876D01*
X155139699Y-120587188D01*
X155132085Y-120601132D01*
X154402033Y-120601132D01*
X154403269Y-120598868D01*
X154403138Y-120597035D01*
X154398887Y-120590420D01*
X153547387Y-119738920D01*
X153535007Y-119732160D01*
X153527357Y-119737887D01*
X153422472Y-119909042D01*
X153417990Y-119917837D01*
X153330943Y-120127988D01*
X153327894Y-120137373D01*
X153274792Y-120358554D01*
X153273249Y-120368301D01*
X153255402Y-120595070D01*
X153255402Y-120604930D01*
X143356500Y-120604930D01*
X143356500Y-119853466D01*
X143349745Y-119791284D01*
X143298615Y-119654895D01*
X143211261Y-119538339D01*
X143094705Y-119450985D01*
X142958316Y-119399855D01*
X142896134Y-119393100D01*
X141099866Y-119393100D01*
X141037684Y-119399855D01*
X140901295Y-119450985D01*
X140869758Y-119474621D01*
X140803148Y-119524542D01*
X140736642Y-119549390D01*
X140667259Y-119534337D01*
X140652018Y-119524542D01*
X140561649Y-119456814D01*
X140546054Y-119448276D01*
X140425606Y-119403122D01*
X140410351Y-119399495D01*
X140359486Y-119393969D01*
X140352672Y-119393600D01*
X139730115Y-119393600D01*
X139714876Y-119398075D01*
X139713671Y-119399465D01*
X139712000Y-119407148D01*
X139712000Y-129711484D01*
X139204000Y-129711484D01*
X139204000Y-128643715D01*
X139199525Y-128628476D01*
X139198135Y-128627271D01*
X139190452Y-128625600D01*
X138118116Y-128625600D01*
X138102877Y-128630075D01*
X138101672Y-128631465D01*
X138100001Y-128639148D01*
X138100001Y-129266269D01*
X134908500Y-129266269D01*
X134908500Y-128099485D01*
X138100000Y-128099485D01*
X138104475Y-128114724D01*
X138105865Y-128115929D01*
X138113548Y-128117600D01*
X139185885Y-128117600D01*
X139201124Y-128113125D01*
X139202329Y-128111735D01*
X139204000Y-128104052D01*
X139204000Y-126103715D01*
X139199525Y-126088476D01*
X139198135Y-126087271D01*
X139190452Y-126085600D01*
X138118116Y-126085600D01*
X138102877Y-126090075D01*
X138101672Y-126091465D01*
X138100001Y-126099148D01*
X138100001Y-126726269D01*
X138100371Y-126733090D01*
X138105895Y-126783952D01*
X138109521Y-126799204D01*
X138154676Y-126919654D01*
X138163211Y-126935244D01*
X138231255Y-127026035D01*
X138256102Y-127092542D01*
X138241049Y-127161924D01*
X138231255Y-127177165D01*
X138163211Y-127267956D01*
X138154676Y-127283546D01*
X138109522Y-127403994D01*
X138105895Y-127419249D01*
X138100369Y-127470114D01*
X138100000Y-127476928D01*
X138100000Y-128099485D01*
X134908500Y-128099485D01*
X134908500Y-125559485D01*
X138100000Y-125559485D01*
X138104475Y-125574724D01*
X138105865Y-125575929D01*
X138113548Y-125577600D01*
X139185885Y-125577600D01*
X139201124Y-125573125D01*
X139202329Y-125571735D01*
X139204000Y-125564052D01*
X139204000Y-123563715D01*
X139199525Y-123548476D01*
X139198135Y-123547271D01*
X139190452Y-123545600D01*
X138118116Y-123545600D01*
X138102877Y-123550075D01*
X138101672Y-123551465D01*
X138100001Y-123559148D01*
X138100001Y-124186269D01*
X138100371Y-124193090D01*
X138105895Y-124243952D01*
X138109521Y-124259204D01*
X138154676Y-124379654D01*
X138163211Y-124395244D01*
X138231255Y-124486035D01*
X138256102Y-124552542D01*
X138241049Y-124621924D01*
X138231255Y-124637165D01*
X138163211Y-124727956D01*
X138154676Y-124743546D01*
X138109522Y-124863994D01*
X138105895Y-124879249D01*
X138100369Y-124930114D01*
X138100000Y-124936928D01*
X138100000Y-125559485D01*
X134908500Y-125559485D01*
X134908500Y-123019485D01*
X138100000Y-123019485D01*
X138104475Y-123034724D01*
X138105865Y-123035929D01*
X138113548Y-123037600D01*
X139185885Y-123037600D01*
X139201124Y-123033125D01*
X139202329Y-123031735D01*
X139204000Y-123024052D01*
X139204000Y-121023715D01*
X139199525Y-121008476D01*
X139198135Y-121007271D01*
X139190452Y-121005600D01*
X138118116Y-121005600D01*
X138102877Y-121010075D01*
X138101672Y-121011465D01*
X138100001Y-121019148D01*
X138100001Y-121646269D01*
X138100371Y-121653090D01*
X138105895Y-121703952D01*
X138109521Y-121719204D01*
X138154676Y-121839654D01*
X138163211Y-121855244D01*
X138231255Y-121946035D01*
X138256102Y-122012542D01*
X138241049Y-122081924D01*
X138231255Y-122097165D01*
X138163211Y-122187956D01*
X138154676Y-122203546D01*
X138109522Y-122323994D01*
X138105895Y-122339249D01*
X138100369Y-122390114D01*
X138100000Y-122396928D01*
X138100000Y-123019485D01*
X134908500Y-123019485D01*
X134908500Y-120479485D01*
X138100000Y-120479485D01*
X138104475Y-120494724D01*
X138105865Y-120495929D01*
X138113548Y-120497600D01*
X139185885Y-120497600D01*
X139201124Y-120493125D01*
X139202329Y-120491735D01*
X139204000Y-120484052D01*
X139204000Y-119411716D01*
X139199525Y-119396477D01*
X139198135Y-119395272D01*
X139190452Y-119393601D01*
X138563331Y-119393601D01*
X138556510Y-119393971D01*
X138505648Y-119399495D01*
X138490396Y-119403121D01*
X138369946Y-119448276D01*
X138354351Y-119456814D01*
X138252276Y-119533315D01*
X138239715Y-119545876D01*
X138163214Y-119647951D01*
X138154676Y-119663546D01*
X138109522Y-119783994D01*
X138105895Y-119799249D01*
X138100369Y-119850114D01*
X138100000Y-119856928D01*
X138100000Y-120479485D01*
X134908500Y-120479485D01*
X134908500Y-119367890D01*
X153899770Y-119367890D01*
X153903553Y-119376666D01*
X154754865Y-120227978D01*
X154768809Y-120235592D01*
X154770642Y-120235461D01*
X154777257Y-120231210D01*
X155628757Y-119379710D01*
X155635517Y-119367330D01*
X155629790Y-119359680D01*
X155458635Y-119254795D01*
X155449840Y-119250313D01*
X155239689Y-119163266D01*
X155230304Y-119160217D01*
X155009123Y-119107115D01*
X154999376Y-119105572D01*
X154772607Y-119087725D01*
X154762747Y-119087725D01*
X154535978Y-119105572D01*
X154526231Y-119107115D01*
X154305050Y-119160217D01*
X154295665Y-119163266D01*
X154085514Y-119250313D01*
X154076719Y-119254795D01*
X153909232Y-119357432D01*
X153899770Y-119367890D01*
X134908500Y-119367890D01*
X134908500Y-110022922D01*
X154980073Y-110022922D01*
X155027564Y-110200161D01*
X155031310Y-110210453D01*
X155123386Y-110407911D01*
X155128869Y-110417407D01*
X155253828Y-110595867D01*
X155260884Y-110604275D01*
X155414925Y-110758316D01*
X155423333Y-110765372D01*
X155601793Y-110890331D01*
X155611289Y-110895814D01*
X155808747Y-110987890D01*
X155819039Y-110991636D01*
X155991303Y-111037794D01*
X156005399Y-111037458D01*
X156008800Y-111029516D01*
X156008800Y-111024367D01*
X156516800Y-111024367D01*
X156520773Y-111037898D01*
X156529322Y-111039127D01*
X156706561Y-110991636D01*
X156716853Y-110987890D01*
X156914311Y-110895814D01*
X156923807Y-110890331D01*
X157102267Y-110765372D01*
X157110675Y-110758316D01*
X157264716Y-110604275D01*
X157271772Y-110595867D01*
X157396731Y-110417407D01*
X157402214Y-110407911D01*
X157494290Y-110210453D01*
X157498036Y-110200161D01*
X157544194Y-110027897D01*
X157543858Y-110013801D01*
X157535916Y-110010400D01*
X156534915Y-110010400D01*
X156519676Y-110014875D01*
X156518471Y-110016265D01*
X156516800Y-110023948D01*
X156516800Y-111024367D01*
X156008800Y-111024367D01*
X156008800Y-110028515D01*
X156004325Y-110013276D01*
X156002935Y-110012071D01*
X155995252Y-110010400D01*
X154994833Y-110010400D01*
X154981302Y-110014373D01*
X154980073Y-110022922D01*
X134908500Y-110022922D01*
X134908500Y-109484903D01*
X154981406Y-109484903D01*
X154981742Y-109498999D01*
X154989684Y-109502400D01*
X155990685Y-109502400D01*
X156005924Y-109497925D01*
X156007129Y-109496535D01*
X156008800Y-109488852D01*
X156008800Y-109484285D01*
X156516800Y-109484285D01*
X156521275Y-109499524D01*
X156522665Y-109500729D01*
X156530348Y-109502400D01*
X157530767Y-109502400D01*
X157544298Y-109498427D01*
X157545527Y-109489878D01*
X157498036Y-109312639D01*
X157494290Y-109302347D01*
X157402214Y-109104889D01*
X157396731Y-109095393D01*
X157271772Y-108916933D01*
X157264716Y-108908525D01*
X157110675Y-108754484D01*
X157102267Y-108747428D01*
X156923807Y-108622469D01*
X156914311Y-108616986D01*
X156716853Y-108524910D01*
X156706561Y-108521164D01*
X156534297Y-108475006D01*
X156520201Y-108475342D01*
X156516800Y-108483284D01*
X156516800Y-109484285D01*
X156008800Y-109484285D01*
X156008800Y-108488433D01*
X156004827Y-108474902D01*
X155996278Y-108473673D01*
X155819039Y-108521164D01*
X155808747Y-108524910D01*
X155611289Y-108616986D01*
X155601793Y-108622469D01*
X155423333Y-108747428D01*
X155414925Y-108754484D01*
X155260884Y-108908525D01*
X155253828Y-108916933D01*
X155128869Y-109095393D01*
X155123386Y-109104889D01*
X155031310Y-109302347D01*
X155027564Y-109312639D01*
X154981406Y-109484903D01*
X134908500Y-109484903D01*
X134908500Y-105373359D01*
X139991386Y-105373359D01*
X140000099Y-105384879D01*
X140088586Y-105449760D01*
X140096505Y-105454708D01*
X140312877Y-105568547D01*
X140321451Y-105572275D01*
X140552282Y-105652885D01*
X140561291Y-105655299D01*
X140801518Y-105700908D01*
X140810775Y-105701962D01*
X141055107Y-105711563D01*
X141064420Y-105711237D01*
X141307478Y-105684618D01*
X141316655Y-105682917D01*
X141553107Y-105620665D01*
X141561926Y-105617628D01*
X141786584Y-105521107D01*
X141794856Y-105516800D01*
X142002777Y-105388135D01*
X142004620Y-105386796D01*
X142012038Y-105375541D01*
X142005974Y-105365184D01*
X141888924Y-105248134D01*
X144291500Y-105248134D01*
X144291869Y-105251531D01*
X144292185Y-105254440D01*
X144298255Y-105310316D01*
X144349385Y-105446705D01*
X144436739Y-105563261D01*
X144553295Y-105650615D01*
X144689684Y-105701745D01*
X144751866Y-105708500D01*
X147248134Y-105708500D01*
X147310316Y-105701745D01*
X147446705Y-105650615D01*
X147563261Y-105563261D01*
X147650615Y-105446705D01*
X147701745Y-105310316D01*
X147707815Y-105254440D01*
X147708131Y-105251531D01*
X147708500Y-105248134D01*
X147708500Y-102751866D01*
X147701745Y-102689684D01*
X147650615Y-102553295D01*
X147563261Y-102436739D01*
X147446705Y-102349385D01*
X147310316Y-102298255D01*
X147248134Y-102291500D01*
X144751866Y-102291500D01*
X144689684Y-102298255D01*
X144553295Y-102349385D01*
X144436739Y-102436739D01*
X144349385Y-102553295D01*
X144298255Y-102689684D01*
X144291500Y-102751866D01*
X144291500Y-105248134D01*
X141888924Y-105248134D01*
X141012812Y-104372022D01*
X140998868Y-104364408D01*
X140997035Y-104364539D01*
X140990420Y-104368790D01*
X139998044Y-105361166D01*
X139991386Y-105373359D01*
X134908500Y-105373359D01*
X134908500Y-103959835D01*
X139288022Y-103959835D01*
X139299754Y-104204064D01*
X139300891Y-104213324D01*
X139348593Y-104453143D01*
X139351082Y-104462118D01*
X139433708Y-104692250D01*
X139437505Y-104700778D01*
X139553234Y-104916160D01*
X139558245Y-104924027D01*
X139615173Y-105000263D01*
X139626431Y-105008712D01*
X139638850Y-105001940D01*
X140627978Y-104012812D01*
X140634356Y-104001132D01*
X141364408Y-104001132D01*
X141364539Y-104002965D01*
X141368790Y-104009580D01*
X142363732Y-105004522D01*
X142376112Y-105011282D01*
X142384453Y-105005038D01*
X142502700Y-104821202D01*
X142507147Y-104813011D01*
X142607572Y-104590076D01*
X142610767Y-104581298D01*
X142677135Y-104345973D01*
X142678993Y-104336844D01*
X142710044Y-104092770D01*
X142710525Y-104086483D01*
X142712706Y-104003160D01*
X142712555Y-103996851D01*
X142694321Y-103751486D01*
X142692944Y-103742280D01*
X142638979Y-103503786D01*
X142636255Y-103494875D01*
X142547633Y-103266983D01*
X142543619Y-103258567D01*
X142422284Y-103046276D01*
X142417074Y-103038553D01*
X142385787Y-102998865D01*
X142373863Y-102990395D01*
X142362328Y-102996882D01*
X141372022Y-103987188D01*
X141364408Y-104001132D01*
X140634356Y-104001132D01*
X140635592Y-103998868D01*
X140635461Y-103997035D01*
X140631210Y-103990420D01*
X139636828Y-102996038D01*
X139623520Y-102988771D01*
X139613481Y-102995893D01*
X139608581Y-103001784D01*
X139603168Y-103009373D01*
X139476322Y-103218409D01*
X139472084Y-103226726D01*
X139377529Y-103452214D01*
X139374572Y-103461052D01*
X139314384Y-103698042D01*
X139312763Y-103707232D01*
X139288267Y-103950510D01*
X139288022Y-103959835D01*
X134908500Y-103959835D01*
X134908500Y-102624917D01*
X139989330Y-102624917D01*
X139993903Y-102634693D01*
X140987188Y-103627978D01*
X141001132Y-103635592D01*
X141002965Y-103635461D01*
X141009580Y-103631210D01*
X142002488Y-102638302D01*
X142008872Y-102626612D01*
X141999460Y-102614502D01*
X141873144Y-102526873D01*
X141865116Y-102522145D01*
X141645810Y-102413995D01*
X141637177Y-102410507D01*
X141404288Y-102335958D01*
X141395238Y-102333785D01*
X141153891Y-102294480D01*
X141144602Y-102293668D01*
X140900114Y-102290467D01*
X140890803Y-102291037D01*
X140648522Y-102324010D01*
X140639403Y-102325948D01*
X140404668Y-102394367D01*
X140395915Y-102397639D01*
X140173869Y-102500004D01*
X140165714Y-102504524D01*
X139998468Y-102614175D01*
X139989330Y-102624917D01*
X134908500Y-102624917D01*
X134908500Y-97056400D01*
X154949302Y-97056400D01*
X154969257Y-97284487D01*
X154970681Y-97289800D01*
X154970681Y-97289802D01*
X155025477Y-97494300D01*
X155028516Y-97505643D01*
X155030839Y-97510624D01*
X155030839Y-97510625D01*
X155122951Y-97708162D01*
X155122954Y-97708167D01*
X155125277Y-97713149D01*
X155178983Y-97789849D01*
X155246104Y-97885707D01*
X155256602Y-97900700D01*
X155418500Y-98062598D01*
X155423008Y-98065755D01*
X155423011Y-98065757D01*
X155491055Y-98113402D01*
X155606051Y-98193923D01*
X155611033Y-98196246D01*
X155611038Y-98196249D01*
X155793094Y-98281142D01*
X155813557Y-98290684D01*
X155818865Y-98292106D01*
X155818867Y-98292107D01*
X156029398Y-98348519D01*
X156029400Y-98348519D01*
X156034713Y-98349943D01*
X156262800Y-98369898D01*
X156490887Y-98349943D01*
X156496200Y-98348519D01*
X156496202Y-98348519D01*
X156706733Y-98292107D01*
X156706735Y-98292106D01*
X156712043Y-98290684D01*
X156732506Y-98281142D01*
X156914562Y-98196249D01*
X156914567Y-98196246D01*
X156919549Y-98193923D01*
X157034545Y-98113402D01*
X157102589Y-98065757D01*
X157102592Y-98065755D01*
X157107100Y-98062598D01*
X157268998Y-97900700D01*
X157279497Y-97885707D01*
X157346617Y-97789849D01*
X157400323Y-97713149D01*
X157402646Y-97708167D01*
X157402649Y-97708162D01*
X157494761Y-97510625D01*
X157494761Y-97510624D01*
X157497084Y-97505643D01*
X157500124Y-97494300D01*
X157554919Y-97289802D01*
X157554919Y-97289800D01*
X157556343Y-97284487D01*
X157576298Y-97056400D01*
X157556343Y-96828313D01*
X157508564Y-96650000D01*
X173186502Y-96650000D01*
X173206457Y-96878087D01*
X173265716Y-97099243D01*
X173268039Y-97104224D01*
X173268039Y-97104225D01*
X173360151Y-97301762D01*
X173360154Y-97301767D01*
X173362477Y-97306749D01*
X173493802Y-97494300D01*
X173655700Y-97656198D01*
X173660208Y-97659355D01*
X173660211Y-97659357D01*
X173729912Y-97708162D01*
X173843251Y-97787523D01*
X173848233Y-97789846D01*
X173848238Y-97789849D01*
X174045775Y-97881961D01*
X174050757Y-97884284D01*
X174056065Y-97885706D01*
X174056067Y-97885707D01*
X174266598Y-97942119D01*
X174266600Y-97942119D01*
X174271913Y-97943543D01*
X174500000Y-97963498D01*
X174728087Y-97943543D01*
X174733400Y-97942119D01*
X174733402Y-97942119D01*
X174943933Y-97885707D01*
X174943935Y-97885706D01*
X174949243Y-97884284D01*
X174954225Y-97881961D01*
X175151762Y-97789849D01*
X175151767Y-97789846D01*
X175156749Y-97787523D01*
X175270088Y-97708162D01*
X175339789Y-97659357D01*
X175339792Y-97659355D01*
X175344300Y-97656198D01*
X175506198Y-97494300D01*
X175637523Y-97306749D01*
X175639846Y-97301767D01*
X175639849Y-97301762D01*
X175731961Y-97104225D01*
X175731961Y-97104224D01*
X175734284Y-97099243D01*
X175793543Y-96878087D01*
X175813498Y-96650000D01*
X175793543Y-96421913D01*
X175738532Y-96216611D01*
X175735707Y-96206067D01*
X175735706Y-96206065D01*
X175734284Y-96200757D01*
X175664080Y-96050202D01*
X175639849Y-95998238D01*
X175639846Y-95998233D01*
X175637523Y-95993251D01*
X175564098Y-95888389D01*
X175509357Y-95810211D01*
X175509355Y-95810208D01*
X175506198Y-95805700D01*
X175344300Y-95643802D01*
X175339792Y-95640645D01*
X175339789Y-95640643D01*
X175220170Y-95556885D01*
X175156749Y-95512477D01*
X175151767Y-95510154D01*
X175151762Y-95510151D01*
X174954225Y-95418039D01*
X174954224Y-95418039D01*
X174949243Y-95415716D01*
X174943935Y-95414294D01*
X174943933Y-95414293D01*
X174733402Y-95357881D01*
X174733400Y-95357881D01*
X174728087Y-95356457D01*
X174500000Y-95336502D01*
X174271913Y-95356457D01*
X174266600Y-95357881D01*
X174266598Y-95357881D01*
X174056067Y-95414293D01*
X174056065Y-95414294D01*
X174050757Y-95415716D01*
X174045776Y-95418039D01*
X174045775Y-95418039D01*
X173848238Y-95510151D01*
X173848233Y-95510154D01*
X173843251Y-95512477D01*
X173779830Y-95556885D01*
X173660211Y-95640643D01*
X173660208Y-95640645D01*
X173655700Y-95643802D01*
X173493802Y-95805700D01*
X173490645Y-95810208D01*
X173490643Y-95810211D01*
X173435902Y-95888389D01*
X173362477Y-95993251D01*
X173360154Y-95998233D01*
X173360151Y-95998238D01*
X173335920Y-96050202D01*
X173265716Y-96200757D01*
X173264294Y-96206065D01*
X173264293Y-96206067D01*
X173261468Y-96216611D01*
X173206457Y-96421913D01*
X173186502Y-96650000D01*
X157508564Y-96650000D01*
X157497084Y-96607157D01*
X157494761Y-96602175D01*
X157402649Y-96404638D01*
X157402646Y-96404633D01*
X157400323Y-96399651D01*
X157268998Y-96212100D01*
X157107100Y-96050202D01*
X157102592Y-96047045D01*
X157102589Y-96047043D01*
X156977373Y-95959366D01*
X156919549Y-95918877D01*
X156914567Y-95916554D01*
X156914562Y-95916551D01*
X156717025Y-95824439D01*
X156717024Y-95824439D01*
X156712043Y-95822116D01*
X156706735Y-95820694D01*
X156706733Y-95820693D01*
X156496202Y-95764281D01*
X156496200Y-95764281D01*
X156490887Y-95762857D01*
X156262800Y-95742902D01*
X156034713Y-95762857D01*
X156029400Y-95764281D01*
X156029398Y-95764281D01*
X155818867Y-95820693D01*
X155818865Y-95820694D01*
X155813557Y-95822116D01*
X155808576Y-95824439D01*
X155808575Y-95824439D01*
X155611038Y-95916551D01*
X155611033Y-95916554D01*
X155606051Y-95918877D01*
X155548227Y-95959366D01*
X155423011Y-96047043D01*
X155423008Y-96047045D01*
X155418500Y-96050202D01*
X155256602Y-96212100D01*
X155125277Y-96399651D01*
X155122954Y-96404633D01*
X155122951Y-96404638D01*
X155030839Y-96602175D01*
X155028516Y-96607157D01*
X154969257Y-96828313D01*
X154949302Y-97056400D01*
X134908500Y-97056400D01*
X134908500Y-92569721D01*
X146991024Y-92569721D01*
X146993491Y-92578352D01*
X146999150Y-92598153D01*
X147002728Y-92614915D01*
X147006920Y-92644187D01*
X147010634Y-92652355D01*
X147010634Y-92652356D01*
X147017548Y-92667562D01*
X147023996Y-92685086D01*
X147031051Y-92709771D01*
X147035843Y-92717365D01*
X147035844Y-92717368D01*
X147046830Y-92734780D01*
X147054969Y-92749863D01*
X147067208Y-92776782D01*
X147073069Y-92783584D01*
X147083970Y-92796235D01*
X147095073Y-92811239D01*
X147108776Y-92832958D01*
X147115501Y-92838897D01*
X147115504Y-92838901D01*
X147130938Y-92852532D01*
X147142982Y-92864724D01*
X147156427Y-92880327D01*
X147156430Y-92880329D01*
X147162287Y-92887127D01*
X147169816Y-92892007D01*
X147169817Y-92892008D01*
X147183835Y-92901094D01*
X147198709Y-92912385D01*
X147211217Y-92923431D01*
X147217951Y-92929378D01*
X147244711Y-92941942D01*
X147259691Y-92950263D01*
X147276983Y-92961471D01*
X147276988Y-92961473D01*
X147284515Y-92966352D01*
X147293108Y-92968922D01*
X147293113Y-92968924D01*
X147309120Y-92973711D01*
X147326564Y-92980372D01*
X147341676Y-92987467D01*
X147341678Y-92987468D01*
X147349800Y-92991281D01*
X147358667Y-92992662D01*
X147358668Y-92992662D01*
X147361353Y-92993080D01*
X147379017Y-92995830D01*
X147395732Y-92999613D01*
X147415466Y-93005515D01*
X147415472Y-93005516D01*
X147424066Y-93008086D01*
X147433037Y-93008141D01*
X147433038Y-93008141D01*
X147443097Y-93008202D01*
X147458506Y-93008296D01*
X147459289Y-93008329D01*
X147460386Y-93008500D01*
X147491377Y-93008500D01*
X147492147Y-93008502D01*
X147565785Y-93008952D01*
X147565786Y-93008952D01*
X147569721Y-93008976D01*
X147571065Y-93008592D01*
X147572410Y-93008500D01*
X151991377Y-93008500D01*
X151992148Y-93008502D01*
X152069721Y-93008976D01*
X152098152Y-93000850D01*
X152114915Y-92997272D01*
X152115753Y-92997152D01*
X152144187Y-92993080D01*
X152167564Y-92982451D01*
X152185087Y-92976004D01*
X152209771Y-92968949D01*
X152217365Y-92964157D01*
X152217368Y-92964156D01*
X152234780Y-92953170D01*
X152249865Y-92945030D01*
X152276782Y-92932792D01*
X152296235Y-92916030D01*
X152311239Y-92904927D01*
X152332958Y-92891224D01*
X152338897Y-92884499D01*
X152338901Y-92884496D01*
X152352532Y-92869062D01*
X152364724Y-92857018D01*
X152380327Y-92843573D01*
X152380329Y-92843570D01*
X152387127Y-92837713D01*
X152401094Y-92816165D01*
X152412385Y-92801291D01*
X152423431Y-92788783D01*
X152423432Y-92788782D01*
X152429378Y-92782049D01*
X152441943Y-92755287D01*
X152450263Y-92740309D01*
X152461471Y-92723017D01*
X152461473Y-92723012D01*
X152466352Y-92715485D01*
X152468922Y-92706892D01*
X152468924Y-92706887D01*
X152473711Y-92690880D01*
X152480372Y-92673436D01*
X152487467Y-92658324D01*
X152487468Y-92658322D01*
X152491281Y-92650200D01*
X152495830Y-92620983D01*
X152499613Y-92604268D01*
X152505515Y-92584534D01*
X152505516Y-92584528D01*
X152508086Y-92575934D01*
X152508124Y-92569721D01*
X188991024Y-92569721D01*
X188993491Y-92578352D01*
X188999150Y-92598153D01*
X189002728Y-92614915D01*
X189006920Y-92644187D01*
X189010634Y-92652355D01*
X189010634Y-92652356D01*
X189017548Y-92667562D01*
X189023996Y-92685086D01*
X189031051Y-92709771D01*
X189035843Y-92717365D01*
X189035844Y-92717368D01*
X189046830Y-92734780D01*
X189054969Y-92749863D01*
X189067208Y-92776782D01*
X189073069Y-92783584D01*
X189083970Y-92796235D01*
X189095073Y-92811239D01*
X189108776Y-92832958D01*
X189115501Y-92838897D01*
X189115504Y-92838901D01*
X189130938Y-92852532D01*
X189142982Y-92864724D01*
X189156427Y-92880327D01*
X189156430Y-92880329D01*
X189162287Y-92887127D01*
X189169816Y-92892007D01*
X189169817Y-92892008D01*
X189183835Y-92901094D01*
X189198709Y-92912385D01*
X189211217Y-92923431D01*
X189217951Y-92929378D01*
X189244711Y-92941942D01*
X189259691Y-92950263D01*
X189276983Y-92961471D01*
X189276988Y-92961473D01*
X189284515Y-92966352D01*
X189293108Y-92968922D01*
X189293113Y-92968924D01*
X189309120Y-92973711D01*
X189326564Y-92980372D01*
X189341676Y-92987467D01*
X189341678Y-92987468D01*
X189349800Y-92991281D01*
X189358667Y-92992662D01*
X189358668Y-92992662D01*
X189361353Y-92993080D01*
X189379017Y-92995830D01*
X189395732Y-92999613D01*
X189415466Y-93005515D01*
X189415472Y-93005516D01*
X189424066Y-93008086D01*
X189433037Y-93008141D01*
X189433038Y-93008141D01*
X189443097Y-93008202D01*
X189458506Y-93008296D01*
X189459289Y-93008329D01*
X189460386Y-93008500D01*
X189491377Y-93008500D01*
X189492147Y-93008502D01*
X189565785Y-93008952D01*
X189565786Y-93008952D01*
X189569721Y-93008976D01*
X189571065Y-93008592D01*
X189572410Y-93008500D01*
X193491377Y-93008500D01*
X193492148Y-93008502D01*
X193569721Y-93008976D01*
X193598152Y-93000850D01*
X193614915Y-92997272D01*
X193615753Y-92997152D01*
X193644187Y-92993080D01*
X193667564Y-92982451D01*
X193685087Y-92976004D01*
X193709771Y-92968949D01*
X193717365Y-92964157D01*
X193717368Y-92964156D01*
X193734780Y-92953170D01*
X193749865Y-92945030D01*
X193776782Y-92932792D01*
X193796235Y-92916030D01*
X193811239Y-92904927D01*
X193832958Y-92891224D01*
X193838897Y-92884499D01*
X193838901Y-92884496D01*
X193852532Y-92869062D01*
X193864724Y-92857018D01*
X193880327Y-92843573D01*
X193880329Y-92843570D01*
X193887127Y-92837713D01*
X193901094Y-92816165D01*
X193912385Y-92801291D01*
X193923431Y-92788783D01*
X193923432Y-92788782D01*
X193929378Y-92782049D01*
X193941943Y-92755287D01*
X193950263Y-92740309D01*
X193961471Y-92723017D01*
X193961473Y-92723012D01*
X193966352Y-92715485D01*
X193968922Y-92706892D01*
X193968924Y-92706887D01*
X193973711Y-92690880D01*
X193980372Y-92673436D01*
X193987467Y-92658324D01*
X193987468Y-92658322D01*
X193991281Y-92650200D01*
X193995830Y-92620983D01*
X193999613Y-92604268D01*
X194005515Y-92584534D01*
X194005516Y-92584528D01*
X194008086Y-92575934D01*
X194008296Y-92541494D01*
X194008329Y-92540711D01*
X194008500Y-92539614D01*
X194008500Y-92508623D01*
X194008502Y-92507853D01*
X194008952Y-92434215D01*
X194008952Y-92434214D01*
X194008976Y-92430279D01*
X194008592Y-92428935D01*
X194008500Y-92427590D01*
X194008500Y-84508623D01*
X194008502Y-84507853D01*
X194008800Y-84459102D01*
X194008976Y-84430279D01*
X194000850Y-84401847D01*
X193997272Y-84385085D01*
X193994352Y-84364698D01*
X193993080Y-84355813D01*
X193982451Y-84332436D01*
X193976004Y-84314913D01*
X193971416Y-84298862D01*
X193968949Y-84290229D01*
X193960738Y-84277215D01*
X193953170Y-84265220D01*
X193945030Y-84250135D01*
X193942564Y-84244711D01*
X193932792Y-84223218D01*
X193916030Y-84203765D01*
X193904927Y-84188761D01*
X193891224Y-84167042D01*
X193884499Y-84161103D01*
X193884496Y-84161099D01*
X193869062Y-84147468D01*
X193857018Y-84135276D01*
X193843573Y-84119673D01*
X193843570Y-84119671D01*
X193837713Y-84112873D01*
X193824009Y-84103990D01*
X193816165Y-84098906D01*
X193801291Y-84087615D01*
X193788783Y-84076569D01*
X193788782Y-84076568D01*
X193782049Y-84070622D01*
X193755287Y-84058057D01*
X193740309Y-84049737D01*
X193723017Y-84038529D01*
X193723012Y-84038527D01*
X193715485Y-84033648D01*
X193706892Y-84031078D01*
X193706887Y-84031076D01*
X193690880Y-84026289D01*
X193673436Y-84019628D01*
X193658324Y-84012533D01*
X193658322Y-84012532D01*
X193650200Y-84008719D01*
X193641333Y-84007338D01*
X193641332Y-84007338D01*
X193630478Y-84005648D01*
X193620983Y-84004170D01*
X193604268Y-84000387D01*
X193584534Y-83994485D01*
X193584528Y-83994484D01*
X193575934Y-83991914D01*
X193566963Y-83991859D01*
X193566962Y-83991859D01*
X193556903Y-83991798D01*
X193541494Y-83991704D01*
X193540711Y-83991671D01*
X193539614Y-83991500D01*
X193508623Y-83991500D01*
X193507853Y-83991498D01*
X193434215Y-83991048D01*
X193434214Y-83991048D01*
X193430279Y-83991024D01*
X193428935Y-83991408D01*
X193427590Y-83991500D01*
X189508623Y-83991500D01*
X189507853Y-83991498D01*
X189507037Y-83991493D01*
X189430279Y-83991024D01*
X189407918Y-83997415D01*
X189401847Y-83999150D01*
X189385085Y-84002728D01*
X189355813Y-84006920D01*
X189347645Y-84010634D01*
X189347644Y-84010634D01*
X189332438Y-84017548D01*
X189314914Y-84023996D01*
X189290229Y-84031051D01*
X189282635Y-84035843D01*
X189282632Y-84035844D01*
X189265220Y-84046830D01*
X189250137Y-84054969D01*
X189223218Y-84067208D01*
X189216416Y-84073069D01*
X189203765Y-84083970D01*
X189188761Y-84095073D01*
X189167042Y-84108776D01*
X189161103Y-84115501D01*
X189161099Y-84115504D01*
X189147468Y-84130938D01*
X189135276Y-84142982D01*
X189119673Y-84156427D01*
X189119671Y-84156430D01*
X189112873Y-84162287D01*
X189107993Y-84169816D01*
X189107992Y-84169817D01*
X189098906Y-84183835D01*
X189087615Y-84198709D01*
X189076569Y-84211217D01*
X189070622Y-84217951D01*
X189064312Y-84231391D01*
X189058058Y-84244711D01*
X189049737Y-84259691D01*
X189038529Y-84276983D01*
X189038527Y-84276988D01*
X189033648Y-84284515D01*
X189031078Y-84293108D01*
X189031076Y-84293113D01*
X189026289Y-84309120D01*
X189019628Y-84326564D01*
X189016754Y-84332686D01*
X189008719Y-84349800D01*
X189007338Y-84358667D01*
X189007338Y-84358668D01*
X189004170Y-84379015D01*
X189000387Y-84395732D01*
X188994485Y-84415466D01*
X188994484Y-84415472D01*
X188991914Y-84424066D01*
X188991859Y-84433037D01*
X188991859Y-84433038D01*
X188991704Y-84458497D01*
X188991671Y-84459289D01*
X188991500Y-84460386D01*
X188991500Y-84491377D01*
X188991498Y-84492147D01*
X188991024Y-84569721D01*
X188991408Y-84571065D01*
X188991500Y-84572410D01*
X188991500Y-92491377D01*
X188991498Y-92492147D01*
X188991024Y-92569721D01*
X152508124Y-92569721D01*
X152508296Y-92541494D01*
X152508329Y-92540711D01*
X152508500Y-92539614D01*
X152508500Y-92508623D01*
X152508502Y-92507853D01*
X152508952Y-92434215D01*
X152508952Y-92434214D01*
X152508976Y-92430279D01*
X152508592Y-92428935D01*
X152508500Y-92427590D01*
X152508500Y-84508623D01*
X152508502Y-84507853D01*
X152508800Y-84459102D01*
X152508976Y-84430279D01*
X152500850Y-84401847D01*
X152497272Y-84385085D01*
X152494352Y-84364698D01*
X152493080Y-84355813D01*
X152482451Y-84332436D01*
X152476004Y-84314913D01*
X152471416Y-84298862D01*
X152468949Y-84290229D01*
X152460738Y-84277215D01*
X152453170Y-84265220D01*
X152445030Y-84250135D01*
X152442564Y-84244711D01*
X152432792Y-84223218D01*
X152416030Y-84203765D01*
X152404927Y-84188761D01*
X152391224Y-84167042D01*
X152384499Y-84161103D01*
X152384496Y-84161099D01*
X152369062Y-84147468D01*
X152357018Y-84135276D01*
X152343573Y-84119673D01*
X152343570Y-84119671D01*
X152337713Y-84112873D01*
X152324009Y-84103990D01*
X152316165Y-84098906D01*
X152301291Y-84087615D01*
X152288783Y-84076569D01*
X152288782Y-84076568D01*
X152282049Y-84070622D01*
X152255287Y-84058057D01*
X152240309Y-84049737D01*
X152223017Y-84038529D01*
X152223012Y-84038527D01*
X152215485Y-84033648D01*
X152206892Y-84031078D01*
X152206887Y-84031076D01*
X152190880Y-84026289D01*
X152173436Y-84019628D01*
X152158324Y-84012533D01*
X152158322Y-84012532D01*
X152150200Y-84008719D01*
X152141333Y-84007338D01*
X152141332Y-84007338D01*
X152130478Y-84005648D01*
X152120983Y-84004170D01*
X152104268Y-84000387D01*
X152084534Y-83994485D01*
X152084528Y-83994484D01*
X152075934Y-83991914D01*
X152066963Y-83991859D01*
X152066962Y-83991859D01*
X152056903Y-83991798D01*
X152041494Y-83991704D01*
X152040711Y-83991671D01*
X152039614Y-83991500D01*
X152008623Y-83991500D01*
X152007853Y-83991498D01*
X151934215Y-83991048D01*
X151934214Y-83991048D01*
X151930279Y-83991024D01*
X151928935Y-83991408D01*
X151927590Y-83991500D01*
X147508623Y-83991500D01*
X147507853Y-83991498D01*
X147507037Y-83991493D01*
X147430279Y-83991024D01*
X147407918Y-83997415D01*
X147401847Y-83999150D01*
X147385085Y-84002728D01*
X147355813Y-84006920D01*
X147347645Y-84010634D01*
X147347644Y-84010634D01*
X147332438Y-84017548D01*
X147314914Y-84023996D01*
X147290229Y-84031051D01*
X147282635Y-84035843D01*
X147282632Y-84035844D01*
X147265220Y-84046830D01*
X147250137Y-84054969D01*
X147223218Y-84067208D01*
X147216416Y-84073069D01*
X147203765Y-84083970D01*
X147188761Y-84095073D01*
X147167042Y-84108776D01*
X147161103Y-84115501D01*
X147161099Y-84115504D01*
X147147468Y-84130938D01*
X147135276Y-84142982D01*
X147119673Y-84156427D01*
X147119671Y-84156430D01*
X147112873Y-84162287D01*
X147107993Y-84169816D01*
X147107992Y-84169817D01*
X147098906Y-84183835D01*
X147087615Y-84198709D01*
X147076569Y-84211217D01*
X147070622Y-84217951D01*
X147064312Y-84231391D01*
X147058058Y-84244711D01*
X147049737Y-84259691D01*
X147038529Y-84276983D01*
X147038527Y-84276988D01*
X147033648Y-84284515D01*
X147031078Y-84293108D01*
X147031076Y-84293113D01*
X147026289Y-84309120D01*
X147019628Y-84326564D01*
X147016754Y-84332686D01*
X147008719Y-84349800D01*
X147007338Y-84358667D01*
X147007338Y-84358668D01*
X147004170Y-84379015D01*
X147000387Y-84395732D01*
X146994485Y-84415466D01*
X146994484Y-84415472D01*
X146991914Y-84424066D01*
X146991859Y-84433037D01*
X146991859Y-84433038D01*
X146991704Y-84458497D01*
X146991671Y-84459289D01*
X146991500Y-84460386D01*
X146991500Y-84491377D01*
X146991498Y-84492147D01*
X146991024Y-84569721D01*
X146991408Y-84571065D01*
X146991500Y-84572410D01*
X146991500Y-92491377D01*
X146991498Y-92492147D01*
X146991024Y-92569721D01*
X134908500Y-92569721D01*
X134908500Y-86595169D01*
X141138401Y-86595169D01*
X141138771Y-86601990D01*
X141144295Y-86652852D01*
X141147921Y-86668104D01*
X141193076Y-86788554D01*
X141201614Y-86804149D01*
X141278115Y-86906224D01*
X141290676Y-86918785D01*
X141392751Y-86995286D01*
X141408346Y-87003824D01*
X141528794Y-87048978D01*
X141544049Y-87052605D01*
X141594914Y-87058131D01*
X141601728Y-87058500D01*
X142374285Y-87058500D01*
X142389524Y-87054025D01*
X142390729Y-87052635D01*
X142392400Y-87044952D01*
X142392400Y-87040384D01*
X142900400Y-87040384D01*
X142904875Y-87055623D01*
X142906265Y-87056828D01*
X142913948Y-87058499D01*
X143691069Y-87058499D01*
X143697890Y-87058129D01*
X143748752Y-87052605D01*
X143764004Y-87048979D01*
X143884454Y-87003824D01*
X143900049Y-86995286D01*
X144002124Y-86918785D01*
X144014685Y-86906224D01*
X144091186Y-86804149D01*
X144099724Y-86788554D01*
X144144878Y-86668106D01*
X144148505Y-86652851D01*
X144154031Y-86601986D01*
X144154400Y-86595172D01*
X144154400Y-85870115D01*
X144149925Y-85854876D01*
X144148535Y-85853671D01*
X144140852Y-85852000D01*
X142918515Y-85852000D01*
X142903276Y-85856475D01*
X142902071Y-85857865D01*
X142900400Y-85865548D01*
X142900400Y-87040384D01*
X142392400Y-87040384D01*
X142392400Y-85870115D01*
X142387925Y-85854876D01*
X142386535Y-85853671D01*
X142378852Y-85852000D01*
X141156516Y-85852000D01*
X141141277Y-85856475D01*
X141140072Y-85857865D01*
X141138401Y-85865548D01*
X141138401Y-86595169D01*
X134908500Y-86595169D01*
X134908500Y-83160263D01*
X141136464Y-83160263D01*
X141172804Y-83397744D01*
X141209494Y-83509997D01*
X141245834Y-83621183D01*
X141245837Y-83621189D01*
X141247442Y-83626101D01*
X141358375Y-83839200D01*
X141475128Y-83994700D01*
X141500033Y-84061182D01*
X141485041Y-84130578D01*
X141434911Y-84180852D01*
X141418597Y-84188333D01*
X141408346Y-84192176D01*
X141392751Y-84200714D01*
X141290676Y-84277215D01*
X141278115Y-84289776D01*
X141201614Y-84391851D01*
X141193076Y-84407446D01*
X141147922Y-84527894D01*
X141144295Y-84543149D01*
X141138769Y-84594014D01*
X141138400Y-84600828D01*
X141138400Y-85325885D01*
X141142875Y-85341124D01*
X141144265Y-85342329D01*
X141151948Y-85344000D01*
X144136284Y-85344000D01*
X144151523Y-85339525D01*
X144152728Y-85338135D01*
X144154399Y-85330452D01*
X144154399Y-84600831D01*
X144154029Y-84594010D01*
X144148505Y-84543148D01*
X144144879Y-84527896D01*
X144099724Y-84407446D01*
X144091186Y-84391851D01*
X144014685Y-84289776D01*
X144002124Y-84277215D01*
X143900049Y-84200714D01*
X143884455Y-84192176D01*
X143872887Y-84187840D01*
X143816121Y-84145199D01*
X143791420Y-84078638D01*
X143806626Y-84009289D01*
X143818232Y-83991765D01*
X143818284Y-83991700D01*
X143843320Y-83959999D01*
X143911767Y-83873330D01*
X143911770Y-83873325D01*
X143914968Y-83869276D01*
X143929285Y-83843342D01*
X144028577Y-83663474D01*
X144028579Y-83663470D01*
X144031074Y-83658950D01*
X144111270Y-83432485D01*
X144116583Y-83402659D01*
X144152495Y-83201052D01*
X144152496Y-83201046D01*
X144153401Y-83195963D01*
X144156336Y-82955737D01*
X144119996Y-82718256D01*
X144083306Y-82606003D01*
X144046966Y-82494817D01*
X144046963Y-82494811D01*
X144045358Y-82489899D01*
X143934425Y-82276800D01*
X143790177Y-82084680D01*
X143616488Y-81918699D01*
X143579497Y-81893465D01*
X143534496Y-81838556D01*
X143526325Y-81768032D01*
X143557579Y-81704284D01*
X143582060Y-81683589D01*
X143584035Y-81682311D01*
X143588377Y-81679502D01*
X143766070Y-81517814D01*
X143826747Y-81440983D01*
X143911767Y-81333330D01*
X143911770Y-81333325D01*
X143914968Y-81329276D01*
X143929285Y-81303342D01*
X144028577Y-81123474D01*
X144028579Y-81123470D01*
X144031074Y-81118950D01*
X144111270Y-80892485D01*
X144116583Y-80862659D01*
X144152495Y-80661052D01*
X144152496Y-80661046D01*
X144153401Y-80655963D01*
X144156336Y-80415737D01*
X144119996Y-80178256D01*
X144083306Y-80066003D01*
X144046966Y-79954817D01*
X144046963Y-79954811D01*
X144045358Y-79949899D01*
X143934425Y-79736800D01*
X143790177Y-79544680D01*
X143616488Y-79378699D01*
X143418022Y-79243314D01*
X143413339Y-79241140D01*
X143413335Y-79241138D01*
X143204805Y-79144342D01*
X143204801Y-79144341D01*
X143200110Y-79142163D01*
X142968602Y-79077960D01*
X142963465Y-79077411D01*
X142775807Y-79057356D01*
X142775799Y-79057356D01*
X142772472Y-79057000D01*
X142537998Y-79057000D01*
X142535425Y-79057212D01*
X142535414Y-79057212D01*
X142434454Y-79065513D01*
X142359463Y-79071678D01*
X142126456Y-79130206D01*
X141997629Y-79186221D01*
X141910874Y-79223943D01*
X141910871Y-79223945D01*
X141906137Y-79226003D01*
X141704423Y-79356498D01*
X141526730Y-79518186D01*
X141502541Y-79548815D01*
X141381033Y-79702670D01*
X141381030Y-79702675D01*
X141377832Y-79706724D01*
X141375339Y-79711240D01*
X141375337Y-79711243D01*
X141264223Y-79912526D01*
X141261726Y-79917050D01*
X141181530Y-80143515D01*
X141180623Y-80148608D01*
X141180622Y-80148611D01*
X141175342Y-80178256D01*
X141139399Y-80380037D01*
X141136464Y-80620263D01*
X141172804Y-80857744D01*
X141209494Y-80969997D01*
X141245834Y-81081183D01*
X141245837Y-81081189D01*
X141247442Y-81086101D01*
X141358375Y-81299200D01*
X141502623Y-81491320D01*
X141676312Y-81657301D01*
X141713303Y-81682535D01*
X141758304Y-81737444D01*
X141766475Y-81807968D01*
X141735221Y-81871716D01*
X141710740Y-81892411D01*
X141709107Y-81893468D01*
X141704423Y-81896498D01*
X141526730Y-82058186D01*
X141502541Y-82088815D01*
X141381033Y-82242670D01*
X141381030Y-82242675D01*
X141377832Y-82246724D01*
X141375339Y-82251240D01*
X141375337Y-82251243D01*
X141264223Y-82452526D01*
X141261726Y-82457050D01*
X141181530Y-82683515D01*
X141180623Y-82688608D01*
X141180622Y-82688611D01*
X141175342Y-82718256D01*
X141139399Y-82920037D01*
X141136464Y-83160263D01*
X134908500Y-83160263D01*
X134908500Y-76069721D01*
X146991024Y-76069721D01*
X146993491Y-76078352D01*
X146999150Y-76098153D01*
X147002728Y-76114915D01*
X147006920Y-76144187D01*
X147010634Y-76152355D01*
X147010634Y-76152356D01*
X147017548Y-76167562D01*
X147023996Y-76185086D01*
X147031051Y-76209771D01*
X147035843Y-76217365D01*
X147035844Y-76217368D01*
X147046830Y-76234780D01*
X147054969Y-76249863D01*
X147067208Y-76276782D01*
X147073069Y-76283584D01*
X147083970Y-76296235D01*
X147095073Y-76311239D01*
X147108776Y-76332958D01*
X147115501Y-76338897D01*
X147115504Y-76338901D01*
X147130938Y-76352532D01*
X147142982Y-76364724D01*
X147156427Y-76380327D01*
X147156430Y-76380329D01*
X147162287Y-76387127D01*
X147169816Y-76392007D01*
X147169817Y-76392008D01*
X147183835Y-76401094D01*
X147198709Y-76412385D01*
X147211217Y-76423431D01*
X147217951Y-76429378D01*
X147244711Y-76441942D01*
X147259691Y-76450263D01*
X147276983Y-76461471D01*
X147276988Y-76461473D01*
X147284515Y-76466352D01*
X147293108Y-76468922D01*
X147293113Y-76468924D01*
X147309120Y-76473711D01*
X147326564Y-76480372D01*
X147341676Y-76487467D01*
X147341678Y-76487468D01*
X147349800Y-76491281D01*
X147358667Y-76492662D01*
X147358668Y-76492662D01*
X147361353Y-76493080D01*
X147379017Y-76495830D01*
X147395732Y-76499613D01*
X147415466Y-76505515D01*
X147415472Y-76505516D01*
X147424066Y-76508086D01*
X147433037Y-76508141D01*
X147433038Y-76508141D01*
X147443097Y-76508202D01*
X147458506Y-76508296D01*
X147459289Y-76508329D01*
X147460386Y-76508500D01*
X147491377Y-76508500D01*
X147492147Y-76508502D01*
X147565785Y-76508952D01*
X147565786Y-76508952D01*
X147569721Y-76508976D01*
X147571065Y-76508592D01*
X147572410Y-76508500D01*
X151991377Y-76508500D01*
X151992148Y-76508502D01*
X152069721Y-76508976D01*
X152098152Y-76500850D01*
X152114915Y-76497272D01*
X152115753Y-76497152D01*
X152144187Y-76493080D01*
X152167564Y-76482451D01*
X152185087Y-76476004D01*
X152209771Y-76468949D01*
X152217365Y-76464157D01*
X152217368Y-76464156D01*
X152234780Y-76453170D01*
X152249865Y-76445030D01*
X152276782Y-76432792D01*
X152296235Y-76416030D01*
X152311239Y-76404927D01*
X152332958Y-76391224D01*
X152338897Y-76384499D01*
X152338901Y-76384496D01*
X152352532Y-76369062D01*
X152364724Y-76357018D01*
X152380327Y-76343573D01*
X152380329Y-76343570D01*
X152387127Y-76337713D01*
X152401094Y-76316165D01*
X152412385Y-76301291D01*
X152423431Y-76288783D01*
X152423432Y-76288782D01*
X152429378Y-76282049D01*
X152441943Y-76255287D01*
X152450263Y-76240309D01*
X152461471Y-76223017D01*
X152461473Y-76223012D01*
X152466352Y-76215485D01*
X152468922Y-76206892D01*
X152468924Y-76206887D01*
X152473711Y-76190880D01*
X152480372Y-76173436D01*
X152487467Y-76158324D01*
X152487468Y-76158322D01*
X152491281Y-76150200D01*
X152495830Y-76120983D01*
X152499613Y-76104268D01*
X152505515Y-76084534D01*
X152505516Y-76084528D01*
X152508086Y-76075934D01*
X152508124Y-76069721D01*
X188991024Y-76069721D01*
X188993491Y-76078352D01*
X188999150Y-76098153D01*
X189002728Y-76114915D01*
X189006920Y-76144187D01*
X189010634Y-76152355D01*
X189010634Y-76152356D01*
X189017548Y-76167562D01*
X189023996Y-76185086D01*
X189031051Y-76209771D01*
X189035843Y-76217365D01*
X189035844Y-76217368D01*
X189046830Y-76234780D01*
X189054969Y-76249863D01*
X189067208Y-76276782D01*
X189073069Y-76283584D01*
X189083970Y-76296235D01*
X189095073Y-76311239D01*
X189108776Y-76332958D01*
X189115501Y-76338897D01*
X189115504Y-76338901D01*
X189130938Y-76352532D01*
X189142982Y-76364724D01*
X189156427Y-76380327D01*
X189156430Y-76380329D01*
X189162287Y-76387127D01*
X189169816Y-76392007D01*
X189169817Y-76392008D01*
X189183835Y-76401094D01*
X189198709Y-76412385D01*
X189211217Y-76423431D01*
X189217951Y-76429378D01*
X189244711Y-76441942D01*
X189259691Y-76450263D01*
X189276983Y-76461471D01*
X189276988Y-76461473D01*
X189284515Y-76466352D01*
X189293108Y-76468922D01*
X189293113Y-76468924D01*
X189309120Y-76473711D01*
X189326564Y-76480372D01*
X189341676Y-76487467D01*
X189341678Y-76487468D01*
X189349800Y-76491281D01*
X189358667Y-76492662D01*
X189358668Y-76492662D01*
X189361353Y-76493080D01*
X189379017Y-76495830D01*
X189395732Y-76499613D01*
X189415466Y-76505515D01*
X189415472Y-76505516D01*
X189424066Y-76508086D01*
X189433037Y-76508141D01*
X189433038Y-76508141D01*
X189443097Y-76508202D01*
X189458506Y-76508296D01*
X189459289Y-76508329D01*
X189460386Y-76508500D01*
X189491377Y-76508500D01*
X189492147Y-76508502D01*
X189565785Y-76508952D01*
X189565786Y-76508952D01*
X189569721Y-76508976D01*
X189571065Y-76508592D01*
X189572410Y-76508500D01*
X193491377Y-76508500D01*
X193492148Y-76508502D01*
X193569721Y-76508976D01*
X193598152Y-76500850D01*
X193614915Y-76497272D01*
X193615753Y-76497152D01*
X193644187Y-76493080D01*
X193667564Y-76482451D01*
X193685087Y-76476004D01*
X193709771Y-76468949D01*
X193717365Y-76464157D01*
X193717368Y-76464156D01*
X193734780Y-76453170D01*
X193749865Y-76445030D01*
X193776782Y-76432792D01*
X193796235Y-76416030D01*
X193811239Y-76404927D01*
X193832958Y-76391224D01*
X193838897Y-76384499D01*
X193838901Y-76384496D01*
X193852532Y-76369062D01*
X193864724Y-76357018D01*
X193880327Y-76343573D01*
X193880329Y-76343570D01*
X193887127Y-76337713D01*
X193901094Y-76316165D01*
X193912385Y-76301291D01*
X193923431Y-76288783D01*
X193923432Y-76288782D01*
X193929378Y-76282049D01*
X193941943Y-76255287D01*
X193950263Y-76240309D01*
X193961471Y-76223017D01*
X193961473Y-76223012D01*
X193966352Y-76215485D01*
X193968922Y-76206892D01*
X193968924Y-76206887D01*
X193973711Y-76190880D01*
X193980372Y-76173436D01*
X193987467Y-76158324D01*
X193987468Y-76158322D01*
X193991281Y-76150200D01*
X193995830Y-76120983D01*
X193999613Y-76104268D01*
X194005515Y-76084534D01*
X194005516Y-76084528D01*
X194008086Y-76075934D01*
X194008296Y-76041494D01*
X194008329Y-76040711D01*
X194008500Y-76039614D01*
X194008500Y-76008623D01*
X194008502Y-76007853D01*
X194008952Y-75934215D01*
X194008952Y-75934214D01*
X194008976Y-75930279D01*
X194008592Y-75928935D01*
X194008500Y-75927590D01*
X194008500Y-68008623D01*
X194008502Y-68007853D01*
X194008800Y-67959102D01*
X194008976Y-67930279D01*
X194000850Y-67901847D01*
X193997272Y-67885085D01*
X193994352Y-67864698D01*
X193993080Y-67855813D01*
X193982451Y-67832436D01*
X193976004Y-67814913D01*
X193971416Y-67798862D01*
X193968949Y-67790229D01*
X193964156Y-67782632D01*
X193953170Y-67765220D01*
X193945030Y-67750135D01*
X193942564Y-67744711D01*
X193932792Y-67723218D01*
X193916030Y-67703765D01*
X193904927Y-67688761D01*
X193891224Y-67667042D01*
X193884499Y-67661103D01*
X193884496Y-67661099D01*
X193869062Y-67647468D01*
X193857018Y-67635276D01*
X193843573Y-67619673D01*
X193843570Y-67619671D01*
X193837713Y-67612873D01*
X193824009Y-67603990D01*
X193816165Y-67598906D01*
X193801291Y-67587615D01*
X193788783Y-67576569D01*
X193788782Y-67576568D01*
X193782049Y-67570622D01*
X193755287Y-67558057D01*
X193740309Y-67549737D01*
X193723017Y-67538529D01*
X193723012Y-67538527D01*
X193715485Y-67533648D01*
X193706892Y-67531078D01*
X193706887Y-67531076D01*
X193690880Y-67526289D01*
X193673436Y-67519628D01*
X193658324Y-67512533D01*
X193658322Y-67512532D01*
X193650200Y-67508719D01*
X193641333Y-67507338D01*
X193641332Y-67507338D01*
X193630478Y-67505648D01*
X193620983Y-67504170D01*
X193604268Y-67500387D01*
X193584534Y-67494485D01*
X193584528Y-67494484D01*
X193575934Y-67491914D01*
X193566963Y-67491859D01*
X193566962Y-67491859D01*
X193556903Y-67491798D01*
X193541494Y-67491704D01*
X193540711Y-67491671D01*
X193539614Y-67491500D01*
X193508623Y-67491500D01*
X193507853Y-67491498D01*
X193434215Y-67491048D01*
X193434214Y-67491048D01*
X193430279Y-67491024D01*
X193428935Y-67491408D01*
X193427590Y-67491500D01*
X189508623Y-67491500D01*
X189507853Y-67491498D01*
X189507037Y-67491493D01*
X189430279Y-67491024D01*
X189407918Y-67497415D01*
X189401847Y-67499150D01*
X189385085Y-67502728D01*
X189355813Y-67506920D01*
X189347645Y-67510634D01*
X189347644Y-67510634D01*
X189332438Y-67517548D01*
X189314914Y-67523996D01*
X189290229Y-67531051D01*
X189282635Y-67535843D01*
X189282632Y-67535844D01*
X189265220Y-67546830D01*
X189250137Y-67554969D01*
X189223218Y-67567208D01*
X189216416Y-67573069D01*
X189203765Y-67583970D01*
X189188761Y-67595073D01*
X189167042Y-67608776D01*
X189161103Y-67615501D01*
X189161099Y-67615504D01*
X189147468Y-67630938D01*
X189135276Y-67642982D01*
X189119673Y-67656427D01*
X189119671Y-67656430D01*
X189112873Y-67662287D01*
X189107993Y-67669816D01*
X189107992Y-67669817D01*
X189098906Y-67683835D01*
X189087615Y-67698709D01*
X189076569Y-67711217D01*
X189070622Y-67717951D01*
X189064312Y-67731391D01*
X189058058Y-67744711D01*
X189049737Y-67759691D01*
X189038529Y-67776983D01*
X189038527Y-67776988D01*
X189033648Y-67784515D01*
X189031078Y-67793108D01*
X189031076Y-67793113D01*
X189026289Y-67809120D01*
X189019628Y-67826564D01*
X189012533Y-67841676D01*
X189008719Y-67849800D01*
X189007338Y-67858667D01*
X189007338Y-67858668D01*
X189004170Y-67879015D01*
X189000387Y-67895732D01*
X188994485Y-67915466D01*
X188994484Y-67915472D01*
X188991914Y-67924066D01*
X188991859Y-67933037D01*
X188991859Y-67933038D01*
X188991704Y-67958497D01*
X188991671Y-67959289D01*
X188991500Y-67960386D01*
X188991500Y-67991377D01*
X188991498Y-67992147D01*
X188991024Y-68069721D01*
X188991408Y-68071065D01*
X188991500Y-68072410D01*
X188991500Y-75991377D01*
X188991498Y-75992147D01*
X188991024Y-76069721D01*
X152508124Y-76069721D01*
X152508296Y-76041494D01*
X152508329Y-76040711D01*
X152508500Y-76039614D01*
X152508500Y-76008623D01*
X152508502Y-76007853D01*
X152508952Y-75934215D01*
X152508952Y-75934214D01*
X152508976Y-75930279D01*
X152508592Y-75928935D01*
X152508500Y-75927590D01*
X152508500Y-68008623D01*
X152508502Y-68007853D01*
X152508800Y-67959102D01*
X152508976Y-67930279D01*
X152500850Y-67901847D01*
X152497272Y-67885085D01*
X152494352Y-67864698D01*
X152493080Y-67855813D01*
X152482451Y-67832436D01*
X152476004Y-67814913D01*
X152471416Y-67798862D01*
X152468949Y-67790229D01*
X152464156Y-67782632D01*
X152453170Y-67765220D01*
X152445030Y-67750135D01*
X152442564Y-67744711D01*
X152432792Y-67723218D01*
X152416030Y-67703765D01*
X152404927Y-67688761D01*
X152391224Y-67667042D01*
X152384499Y-67661103D01*
X152384496Y-67661099D01*
X152369062Y-67647468D01*
X152357018Y-67635276D01*
X152343573Y-67619673D01*
X152343570Y-67619671D01*
X152337713Y-67612873D01*
X152324009Y-67603990D01*
X152316165Y-67598906D01*
X152301291Y-67587615D01*
X152288783Y-67576569D01*
X152288782Y-67576568D01*
X152282049Y-67570622D01*
X152255287Y-67558057D01*
X152240309Y-67549737D01*
X152223017Y-67538529D01*
X152223012Y-67538527D01*
X152215485Y-67533648D01*
X152206892Y-67531078D01*
X152206887Y-67531076D01*
X152190880Y-67526289D01*
X152173436Y-67519628D01*
X152158324Y-67512533D01*
X152158322Y-67512532D01*
X152150200Y-67508719D01*
X152141333Y-67507338D01*
X152141332Y-67507338D01*
X152130478Y-67505648D01*
X152120983Y-67504170D01*
X152104268Y-67500387D01*
X152084534Y-67494485D01*
X152084528Y-67494484D01*
X152075934Y-67491914D01*
X152066963Y-67491859D01*
X152066962Y-67491859D01*
X152056903Y-67491798D01*
X152041494Y-67491704D01*
X152040711Y-67491671D01*
X152039614Y-67491500D01*
X152008623Y-67491500D01*
X152007853Y-67491498D01*
X151934215Y-67491048D01*
X151934214Y-67491048D01*
X151930279Y-67491024D01*
X151928935Y-67491408D01*
X151927590Y-67491500D01*
X147508623Y-67491500D01*
X147507853Y-67491498D01*
X147507037Y-67491493D01*
X147430279Y-67491024D01*
X147407918Y-67497415D01*
X147401847Y-67499150D01*
X147385085Y-67502728D01*
X147355813Y-67506920D01*
X147347645Y-67510634D01*
X147347644Y-67510634D01*
X147332438Y-67517548D01*
X147314914Y-67523996D01*
X147290229Y-67531051D01*
X147282635Y-67535843D01*
X147282632Y-67535844D01*
X147265220Y-67546830D01*
X147250137Y-67554969D01*
X147223218Y-67567208D01*
X147216416Y-67573069D01*
X147203765Y-67583970D01*
X147188761Y-67595073D01*
X147167042Y-67608776D01*
X147161103Y-67615501D01*
X147161099Y-67615504D01*
X147147468Y-67630938D01*
X147135276Y-67642982D01*
X147119673Y-67656427D01*
X147119671Y-67656430D01*
X147112873Y-67662287D01*
X147107993Y-67669816D01*
X147107992Y-67669817D01*
X147098906Y-67683835D01*
X147087615Y-67698709D01*
X147076569Y-67711217D01*
X147070622Y-67717951D01*
X147064312Y-67731391D01*
X147058058Y-67744711D01*
X147049737Y-67759691D01*
X147038529Y-67776983D01*
X147038527Y-67776988D01*
X147033648Y-67784515D01*
X147031078Y-67793108D01*
X147031076Y-67793113D01*
X147026289Y-67809120D01*
X147019628Y-67826564D01*
X147012533Y-67841676D01*
X147008719Y-67849800D01*
X147007338Y-67858667D01*
X147007338Y-67858668D01*
X147004170Y-67879015D01*
X147000387Y-67895732D01*
X146994485Y-67915466D01*
X146994484Y-67915472D01*
X146991914Y-67924066D01*
X146991859Y-67933037D01*
X146991859Y-67933038D01*
X146991704Y-67958497D01*
X146991671Y-67959289D01*
X146991500Y-67960386D01*
X146991500Y-67991377D01*
X146991498Y-67992147D01*
X146991024Y-68069721D01*
X146991408Y-68071065D01*
X146991500Y-68072410D01*
X146991500Y-75991377D01*
X146991498Y-75992147D01*
X146991024Y-76069721D01*
X134908500Y-76069721D01*
X134908500Y-72500000D01*
X138936502Y-72500000D01*
X138956457Y-72728087D01*
X138957881Y-72733400D01*
X138957881Y-72733402D01*
X138995025Y-72872022D01*
X139015716Y-72949243D01*
X139018039Y-72954224D01*
X139018039Y-72954225D01*
X139110151Y-73151762D01*
X139110154Y-73151767D01*
X139112477Y-73156749D01*
X139243802Y-73344300D01*
X139405700Y-73506198D01*
X139410208Y-73509355D01*
X139410211Y-73509357D01*
X139488389Y-73564098D01*
X139593251Y-73637523D01*
X139598233Y-73639846D01*
X139598238Y-73639849D01*
X139794765Y-73731490D01*
X139800757Y-73734284D01*
X139806065Y-73735706D01*
X139806067Y-73735707D01*
X140016598Y-73792119D01*
X140016600Y-73792119D01*
X140021913Y-73793543D01*
X140250000Y-73813498D01*
X140478087Y-73793543D01*
X140483400Y-73792119D01*
X140483402Y-73792119D01*
X140693933Y-73735707D01*
X140693935Y-73735706D01*
X140699243Y-73734284D01*
X140705235Y-73731490D01*
X140901762Y-73639849D01*
X140901767Y-73639846D01*
X140906749Y-73637523D01*
X140980243Y-73586062D01*
X142028493Y-73586062D01*
X142037789Y-73598077D01*
X142088994Y-73633931D01*
X142098489Y-73639414D01*
X142295947Y-73731490D01*
X142306239Y-73735236D01*
X142516688Y-73791625D01*
X142527481Y-73793528D01*
X142744525Y-73812517D01*
X142755475Y-73812517D01*
X142972519Y-73793528D01*
X142983312Y-73791625D01*
X143193761Y-73735236D01*
X143204053Y-73731490D01*
X143401511Y-73639414D01*
X143411006Y-73633931D01*
X143463048Y-73597491D01*
X143471424Y-73587012D01*
X143464356Y-73573566D01*
X142762812Y-72872022D01*
X142748868Y-72864408D01*
X142747035Y-72864539D01*
X142740420Y-72868790D01*
X142034923Y-73574287D01*
X142028493Y-73586062D01*
X140980243Y-73586062D01*
X141011611Y-73564098D01*
X141089789Y-73509357D01*
X141089792Y-73509355D01*
X141094300Y-73506198D01*
X141256198Y-73344300D01*
X141387523Y-73156749D01*
X141389847Y-73151765D01*
X141391171Y-73149472D01*
X141442553Y-73100479D01*
X141512267Y-73087043D01*
X141578178Y-73113429D01*
X141609409Y-73149472D01*
X141616066Y-73161002D01*
X141652509Y-73213048D01*
X141662988Y-73221424D01*
X141676434Y-73214356D01*
X142377978Y-72512812D01*
X142384356Y-72501132D01*
X143114408Y-72501132D01*
X143114539Y-72502965D01*
X143118790Y-72509580D01*
X143824287Y-73215077D01*
X143836062Y-73221507D01*
X143848077Y-73212211D01*
X143883931Y-73161006D01*
X143889414Y-73151511D01*
X143981490Y-72954053D01*
X143985236Y-72943761D01*
X144041625Y-72733312D01*
X144043528Y-72722519D01*
X144062517Y-72505475D01*
X144062517Y-72494525D01*
X144043528Y-72277481D01*
X144041625Y-72266688D01*
X143985236Y-72056239D01*
X143981490Y-72045947D01*
X143889414Y-71848489D01*
X143883931Y-71838994D01*
X143847491Y-71786952D01*
X143837012Y-71778576D01*
X143823566Y-71785644D01*
X143122022Y-72487188D01*
X143114408Y-72501132D01*
X142384356Y-72501132D01*
X142385592Y-72498868D01*
X142385461Y-72497035D01*
X142381210Y-72490420D01*
X141675713Y-71784923D01*
X141663938Y-71778493D01*
X141651923Y-71787789D01*
X141616066Y-71838998D01*
X141609409Y-71850528D01*
X141558027Y-71899521D01*
X141488313Y-71912958D01*
X141422402Y-71886571D01*
X141391171Y-71850528D01*
X141389847Y-71848235D01*
X141387523Y-71843251D01*
X141256198Y-71655700D01*
X141094300Y-71493802D01*
X141089792Y-71490645D01*
X141089789Y-71490643D01*
X140978886Y-71412988D01*
X142028576Y-71412988D01*
X142035644Y-71426434D01*
X142737188Y-72127978D01*
X142751132Y-72135592D01*
X142752965Y-72135461D01*
X142759580Y-72131210D01*
X143465077Y-71425713D01*
X143471507Y-71413938D01*
X143462211Y-71401923D01*
X143411006Y-71366069D01*
X143401511Y-71360586D01*
X143204053Y-71268510D01*
X143193761Y-71264764D01*
X142983312Y-71208375D01*
X142972519Y-71206472D01*
X142755475Y-71187483D01*
X142744525Y-71187483D01*
X142527481Y-71206472D01*
X142516688Y-71208375D01*
X142306239Y-71264764D01*
X142295947Y-71268510D01*
X142098489Y-71360586D01*
X142088994Y-71366069D01*
X142036952Y-71402509D01*
X142028576Y-71412988D01*
X140978886Y-71412988D01*
X140963920Y-71402509D01*
X140906749Y-71362477D01*
X140901767Y-71360154D01*
X140901762Y-71360151D01*
X140704225Y-71268039D01*
X140704224Y-71268039D01*
X140699243Y-71265716D01*
X140693935Y-71264294D01*
X140693933Y-71264293D01*
X140483402Y-71207881D01*
X140483400Y-71207881D01*
X140478087Y-71206457D01*
X140250000Y-71186502D01*
X140021913Y-71206457D01*
X140016600Y-71207881D01*
X140016598Y-71207881D01*
X139806067Y-71264293D01*
X139806065Y-71264294D01*
X139800757Y-71265716D01*
X139795776Y-71268039D01*
X139795775Y-71268039D01*
X139598238Y-71360151D01*
X139598233Y-71360154D01*
X139593251Y-71362477D01*
X139536080Y-71402509D01*
X139410211Y-71490643D01*
X139410208Y-71490645D01*
X139405700Y-71493802D01*
X139243802Y-71655700D01*
X139112477Y-71843251D01*
X139110154Y-71848233D01*
X139110151Y-71848238D01*
X139086238Y-71899521D01*
X139015716Y-72050757D01*
X139014294Y-72056065D01*
X139014293Y-72056067D01*
X138993019Y-72135461D01*
X138956457Y-72271913D01*
X138936502Y-72500000D01*
X134908500Y-72500000D01*
X134908500Y-66798134D01*
X151891500Y-66798134D01*
X151898255Y-66860316D01*
X151949385Y-66996705D01*
X152036739Y-67113261D01*
X152153295Y-67200615D01*
X152289684Y-67251745D01*
X152351866Y-67258500D01*
X155648134Y-67258500D01*
X155710316Y-67251745D01*
X155846705Y-67200615D01*
X155963261Y-67113261D01*
X156050615Y-66996705D01*
X156101745Y-66860316D01*
X156108500Y-66798134D01*
X156108500Y-63501866D01*
X156101745Y-63439684D01*
X156050615Y-63303295D01*
X155963261Y-63186739D01*
X155846705Y-63099385D01*
X155710316Y-63048255D01*
X155648134Y-63041500D01*
X152351866Y-63041500D01*
X152289684Y-63048255D01*
X152153295Y-63099385D01*
X152036739Y-63186739D01*
X151949385Y-63303295D01*
X151898255Y-63439684D01*
X151891500Y-63501866D01*
X151891500Y-66798134D01*
X134908500Y-66798134D01*
X134908500Y-64509864D01*
X143141500Y-64509864D01*
X143144619Y-64567457D01*
X143189620Y-64797893D01*
X143272804Y-65017452D01*
X143391791Y-65219856D01*
X143543181Y-65399319D01*
X143722644Y-65550709D01*
X143925048Y-65669696D01*
X144144607Y-65752880D01*
X144375043Y-65797881D01*
X144379401Y-65798117D01*
X144430948Y-65800909D01*
X144430963Y-65800909D01*
X144432636Y-65801000D01*
X146367364Y-65801000D01*
X146369037Y-65800909D01*
X146369052Y-65800909D01*
X146420599Y-65798117D01*
X146424957Y-65797881D01*
X146655393Y-65752880D01*
X146874952Y-65669696D01*
X147077356Y-65550709D01*
X147256819Y-65399319D01*
X147408209Y-65219856D01*
X147527196Y-65017452D01*
X147610380Y-64797893D01*
X147655381Y-64567457D01*
X147658500Y-64509864D01*
X147658500Y-62575136D01*
X147655381Y-62517543D01*
X147610380Y-62287107D01*
X147527196Y-62067548D01*
X147408209Y-61865144D01*
X147256819Y-61685681D01*
X147077356Y-61534291D01*
X146874952Y-61415304D01*
X146688932Y-61344827D01*
X146632317Y-61301988D01*
X146607849Y-61235340D01*
X146623298Y-61166045D01*
X146673759Y-61116102D01*
X146733573Y-61101000D01*
X150198134Y-61101000D01*
X150260316Y-61094245D01*
X150396705Y-61043115D01*
X150513261Y-60955761D01*
X150600615Y-60839205D01*
X150651745Y-60702816D01*
X150658500Y-60640634D01*
X150658500Y-57044366D01*
X150651745Y-56982184D01*
X150600615Y-56845795D01*
X150513261Y-56729239D01*
X150396705Y-56641885D01*
X150260316Y-56590755D01*
X150198134Y-56584000D01*
X146601866Y-56584000D01*
X146539684Y-56590755D01*
X146403295Y-56641885D01*
X146286739Y-56729239D01*
X146199385Y-56845795D01*
X146148255Y-56982184D01*
X146141500Y-57044366D01*
X146141500Y-60640634D01*
X146148255Y-60702816D01*
X146199385Y-60839205D01*
X146286739Y-60955761D01*
X146403295Y-61043115D01*
X146411696Y-61046264D01*
X146413918Y-61047481D01*
X146464064Y-61097740D01*
X146479077Y-61167131D01*
X146454191Y-61233623D01*
X146397307Y-61276105D01*
X146353408Y-61284000D01*
X144432636Y-61284000D01*
X144430963Y-61284091D01*
X144430948Y-61284091D01*
X144380773Y-61286809D01*
X144375043Y-61287119D01*
X144370757Y-61287956D01*
X144298904Y-61301988D01*
X144144607Y-61332120D01*
X143925048Y-61415304D01*
X143722644Y-61534291D01*
X143543181Y-61685681D01*
X143391791Y-61865144D01*
X143272804Y-62067548D01*
X143189620Y-62287107D01*
X143144619Y-62517543D01*
X143141500Y-62575136D01*
X143141500Y-64509864D01*
X134908500Y-64509864D01*
X134908500Y-59902461D01*
X140392001Y-59902461D01*
X140392209Y-59907571D01*
X140403082Y-60041267D01*
X140404852Y-60051820D01*
X140457967Y-60258685D01*
X140461701Y-60269231D01*
X140550510Y-60463205D01*
X140556046Y-60472912D01*
X140677803Y-60648097D01*
X140684976Y-60656676D01*
X140835824Y-60807524D01*
X140844403Y-60814697D01*
X141019588Y-60936454D01*
X141029295Y-60941990D01*
X141223269Y-61030799D01*
X141233815Y-61034533D01*
X141440679Y-61087647D01*
X141451234Y-61089418D01*
X141584930Y-61100293D01*
X141590036Y-61100500D01*
X142127885Y-61100500D01*
X142143124Y-61096025D01*
X142144329Y-61094635D01*
X142146000Y-61086952D01*
X142146000Y-61082384D01*
X142654000Y-61082384D01*
X142658475Y-61097623D01*
X142659865Y-61098828D01*
X142667548Y-61100499D01*
X143209961Y-61100499D01*
X143215071Y-61100291D01*
X143348767Y-61089418D01*
X143359320Y-61087648D01*
X143566185Y-61034533D01*
X143576731Y-61030799D01*
X143770705Y-60941990D01*
X143780412Y-60936454D01*
X143955597Y-60814697D01*
X143964176Y-60807524D01*
X144115024Y-60656676D01*
X144122197Y-60648097D01*
X144243954Y-60472912D01*
X144249490Y-60463205D01*
X144338299Y-60269231D01*
X144342033Y-60258685D01*
X144395147Y-60051821D01*
X144396918Y-60041266D01*
X144407793Y-59907570D01*
X144408000Y-59902464D01*
X144408000Y-59114615D01*
X144403525Y-59099376D01*
X144402135Y-59098171D01*
X144394452Y-59096500D01*
X142672115Y-59096500D01*
X142656876Y-59100975D01*
X142655671Y-59102365D01*
X142654000Y-59110048D01*
X142654000Y-61082384D01*
X142146000Y-61082384D01*
X142146000Y-59114615D01*
X142141525Y-59099376D01*
X142140135Y-59098171D01*
X142132452Y-59096500D01*
X140410116Y-59096500D01*
X140394877Y-59100975D01*
X140393672Y-59102365D01*
X140392001Y-59110048D01*
X140392001Y-59902461D01*
X134908500Y-59902461D01*
X134908500Y-58570385D01*
X140392000Y-58570385D01*
X140396475Y-58585624D01*
X140397865Y-58586829D01*
X140405548Y-58588500D01*
X142127885Y-58588500D01*
X142143124Y-58584025D01*
X142144329Y-58582635D01*
X142146000Y-58574952D01*
X142146000Y-58570385D01*
X142654000Y-58570385D01*
X142658475Y-58585624D01*
X142659865Y-58586829D01*
X142667548Y-58588500D01*
X144389884Y-58588500D01*
X144405123Y-58584025D01*
X144406328Y-58582635D01*
X144407999Y-58574952D01*
X144407999Y-57782539D01*
X144407791Y-57777429D01*
X144396918Y-57643733D01*
X144395148Y-57633180D01*
X144342033Y-57426315D01*
X144338299Y-57415769D01*
X144249490Y-57221795D01*
X144243954Y-57212088D01*
X144122197Y-57036903D01*
X144115024Y-57028324D01*
X143964176Y-56877476D01*
X143955597Y-56870303D01*
X143780412Y-56748546D01*
X143770705Y-56743010D01*
X143576731Y-56654201D01*
X143566185Y-56650467D01*
X143359321Y-56597353D01*
X143348766Y-56595582D01*
X143215070Y-56584707D01*
X143209964Y-56584500D01*
X142672115Y-56584500D01*
X142656876Y-56588975D01*
X142655671Y-56590365D01*
X142654000Y-56598048D01*
X142654000Y-58570385D01*
X142146000Y-58570385D01*
X142146000Y-56602616D01*
X142141525Y-56587377D01*
X142140135Y-56586172D01*
X142132452Y-56584501D01*
X141590039Y-56584501D01*
X141584929Y-56584709D01*
X141451233Y-56595582D01*
X141440680Y-56597352D01*
X141233815Y-56650467D01*
X141223269Y-56654201D01*
X141029295Y-56743010D01*
X141019588Y-56748546D01*
X140844403Y-56870303D01*
X140835824Y-56877476D01*
X140684976Y-57028324D01*
X140677803Y-57036903D01*
X140556046Y-57212088D01*
X140550510Y-57221795D01*
X140461701Y-57415769D01*
X140457967Y-57426315D01*
X140404853Y-57633179D01*
X140403082Y-57643734D01*
X140392207Y-57777430D01*
X140392000Y-57782536D01*
X140392000Y-58570385D01*
X134908500Y-58570385D01*
X134908500Y-52427869D01*
X151886689Y-52427869D01*
X151903238Y-52714883D01*
X151904063Y-52719088D01*
X151904064Y-52719096D01*
X151936010Y-52881921D01*
X151958586Y-52996995D01*
X151959973Y-53001045D01*
X151959974Y-53001050D01*
X152050321Y-53264930D01*
X152051710Y-53268986D01*
X152180885Y-53525822D01*
X152343721Y-53762750D01*
X152537206Y-53975388D01*
X152540501Y-53978143D01*
X152540502Y-53978144D01*
X152591258Y-54020582D01*
X152757759Y-54159798D01*
X153001298Y-54312571D01*
X153263318Y-54430877D01*
X153267437Y-54432097D01*
X153534857Y-54511311D01*
X153534862Y-54511312D01*
X153538970Y-54512529D01*
X153543204Y-54513177D01*
X153543209Y-54513178D01*
X153791811Y-54551219D01*
X153823153Y-54556015D01*
X153969485Y-54558314D01*
X154106317Y-54560464D01*
X154106323Y-54560464D01*
X154110608Y-54560531D01*
X154114860Y-54560016D01*
X154114868Y-54560016D01*
X154391756Y-54526508D01*
X154391761Y-54526507D01*
X154396017Y-54525992D01*
X154674097Y-54453039D01*
X154939704Y-54343021D01*
X155187922Y-54197974D01*
X155414159Y-54020582D01*
X155455285Y-53978144D01*
X155611244Y-53817206D01*
X155614227Y-53814128D01*
X155616760Y-53810680D01*
X155616764Y-53810675D01*
X155781887Y-53585886D01*
X155784425Y-53582431D01*
X155921604Y-53329779D01*
X156023225Y-53060848D01*
X156087407Y-52780613D01*
X156112963Y-52494260D01*
X156113427Y-52450000D01*
X156093873Y-52163175D01*
X156089336Y-52141264D01*
X156036443Y-51885855D01*
X156035574Y-51881658D01*
X155939607Y-51610657D01*
X155807750Y-51355188D01*
X155794488Y-51336317D01*
X155644904Y-51123482D01*
X155642441Y-51119977D01*
X155446740Y-50909378D01*
X155224268Y-50727287D01*
X154979142Y-50577073D01*
X154961048Y-50569130D01*
X154719830Y-50463243D01*
X154715898Y-50461517D01*
X154689963Y-50454129D01*
X154443534Y-50383932D01*
X154443535Y-50383932D01*
X154439406Y-50382756D01*
X154226704Y-50352485D01*
X154159036Y-50342854D01*
X154159034Y-50342854D01*
X154154784Y-50342249D01*
X154150495Y-50342227D01*
X154150488Y-50342226D01*
X153871583Y-50340765D01*
X153871576Y-50340765D01*
X153867297Y-50340743D01*
X153863053Y-50341302D01*
X153863049Y-50341302D01*
X153737660Y-50357810D01*
X153582266Y-50378268D01*
X153578126Y-50379401D01*
X153578124Y-50379401D01*
X153501311Y-50400415D01*
X153304964Y-50454129D01*
X153301016Y-50455813D01*
X153044476Y-50565237D01*
X153044472Y-50565239D01*
X153040524Y-50566923D01*
X152915960Y-50641473D01*
X152797521Y-50712357D01*
X152797517Y-50712360D01*
X152793839Y-50714561D01*
X152569472Y-50894313D01*
X152371577Y-51102851D01*
X152203814Y-51336317D01*
X152069288Y-51590392D01*
X151970489Y-51860373D01*
X151909245Y-52141264D01*
X151886689Y-52427869D01*
X134908500Y-52427869D01*
X134908500Y-47676004D01*
X140291500Y-47676004D01*
X140306277Y-47826713D01*
X140364858Y-48020742D01*
X140460010Y-48199698D01*
X140588110Y-48356763D01*
X140592857Y-48360690D01*
X140592859Y-48360692D01*
X140739528Y-48482027D01*
X140739531Y-48482029D01*
X140744278Y-48485956D01*
X140922565Y-48582356D01*
X141019373Y-48612323D01*
X141110293Y-48640468D01*
X141110296Y-48640469D01*
X141116180Y-48642290D01*
X141122305Y-48642934D01*
X141122306Y-48642934D01*
X141311622Y-48662832D01*
X141311623Y-48662832D01*
X141317750Y-48663476D01*
X141401014Y-48655898D01*
X141513457Y-48645665D01*
X141513460Y-48645664D01*
X141519596Y-48645106D01*
X141525502Y-48643368D01*
X141525506Y-48643367D01*
X141708120Y-48589620D01*
X141708119Y-48589620D01*
X141714029Y-48587881D01*
X141719486Y-48585028D01*
X141719489Y-48585027D01*
X141803837Y-48540931D01*
X141893645Y-48493981D01*
X142051601Y-48366981D01*
X142181881Y-48211719D01*
X142184845Y-48206327D01*
X142184848Y-48206323D01*
X142276556Y-48039506D01*
X142279523Y-48034109D01*
X142340807Y-47840916D01*
X142341739Y-47832615D01*
X142358107Y-47686683D01*
X142358500Y-47683183D01*
X142358500Y-47676004D01*
X147441500Y-47676004D01*
X147456277Y-47826713D01*
X147514858Y-48020742D01*
X147610010Y-48199698D01*
X147738110Y-48356763D01*
X147742857Y-48360690D01*
X147742859Y-48360692D01*
X147889528Y-48482027D01*
X147889531Y-48482029D01*
X147894278Y-48485956D01*
X148072565Y-48582356D01*
X148169373Y-48612323D01*
X148260293Y-48640468D01*
X148260296Y-48640469D01*
X148266180Y-48642290D01*
X148272305Y-48642934D01*
X148272306Y-48642934D01*
X148461622Y-48662832D01*
X148461623Y-48662832D01*
X148467750Y-48663476D01*
X148551014Y-48655898D01*
X148663457Y-48645665D01*
X148663460Y-48645664D01*
X148669596Y-48645106D01*
X148675502Y-48643368D01*
X148675506Y-48643367D01*
X148858120Y-48589620D01*
X148858119Y-48589620D01*
X148864029Y-48587881D01*
X148869486Y-48585028D01*
X148869489Y-48585027D01*
X148953837Y-48540931D01*
X149043645Y-48493981D01*
X149201601Y-48366981D01*
X149331881Y-48211719D01*
X149334845Y-48206327D01*
X149334848Y-48206323D01*
X149426556Y-48039506D01*
X149429523Y-48034109D01*
X149490807Y-47840916D01*
X149491739Y-47832615D01*
X149508107Y-47686683D01*
X149508500Y-47683183D01*
X149508500Y-46723996D01*
X149493723Y-46573287D01*
X149435142Y-46379258D01*
X149339990Y-46200302D01*
X149211890Y-46043237D01*
X149194874Y-46029160D01*
X149060472Y-45917973D01*
X149060469Y-45917971D01*
X149055722Y-45914044D01*
X148877435Y-45817644D01*
X148780628Y-45787677D01*
X148689707Y-45759532D01*
X148689704Y-45759531D01*
X148683820Y-45757710D01*
X148677695Y-45757066D01*
X148677694Y-45757066D01*
X148488378Y-45737168D01*
X148488377Y-45737168D01*
X148482250Y-45736524D01*
X148398986Y-45744102D01*
X148286543Y-45754335D01*
X148286540Y-45754336D01*
X148280404Y-45754894D01*
X148274498Y-45756632D01*
X148274494Y-45756633D01*
X148133091Y-45798251D01*
X148085971Y-45812119D01*
X148080514Y-45814972D01*
X148080511Y-45814973D01*
X147996163Y-45859069D01*
X147906355Y-45906019D01*
X147748399Y-46033019D01*
X147618119Y-46188281D01*
X147615155Y-46193673D01*
X147615152Y-46193677D01*
X147614136Y-46195526D01*
X147520477Y-46365891D01*
X147459193Y-46559084D01*
X147458507Y-46565201D01*
X147458506Y-46565205D01*
X147456912Y-46579420D01*
X147441500Y-46716817D01*
X147441500Y-47676004D01*
X142358500Y-47676004D01*
X142358500Y-46723996D01*
X142343723Y-46573287D01*
X142285142Y-46379258D01*
X142189990Y-46200302D01*
X142061890Y-46043237D01*
X142044874Y-46029160D01*
X141910472Y-45917973D01*
X141910469Y-45917971D01*
X141905722Y-45914044D01*
X141727435Y-45817644D01*
X141630628Y-45787677D01*
X141539707Y-45759532D01*
X141539704Y-45759531D01*
X141533820Y-45757710D01*
X141527695Y-45757066D01*
X141527694Y-45757066D01*
X141338378Y-45737168D01*
X141338377Y-45737168D01*
X141332250Y-45736524D01*
X141248986Y-45744102D01*
X141136543Y-45754335D01*
X141136540Y-45754336D01*
X141130404Y-45754894D01*
X141124498Y-45756632D01*
X141124494Y-45756633D01*
X140983091Y-45798251D01*
X140935971Y-45812119D01*
X140930514Y-45814972D01*
X140930511Y-45814973D01*
X140846163Y-45859069D01*
X140756355Y-45906019D01*
X140598399Y-46033019D01*
X140468119Y-46188281D01*
X140465155Y-46193673D01*
X140465152Y-46193677D01*
X140464136Y-46195526D01*
X140370477Y-46365891D01*
X140309193Y-46559084D01*
X140308507Y-46565201D01*
X140308506Y-46565205D01*
X140306912Y-46579420D01*
X140291500Y-46716817D01*
X140291500Y-47676004D01*
X134908500Y-47676004D01*
X134908500Y-45722470D01*
X134928502Y-45654349D01*
X134945405Y-45633375D01*
X135083905Y-45494875D01*
X135097491Y-45483102D01*
X135163575Y-45433632D01*
X135230095Y-45408821D01*
X135239084Y-45408500D01*
X196160916Y-45408500D01*
X196229037Y-45428502D01*
G37*
%TD.AperFunction*%
%TD*%
M02*
